{
.appVersion = "113";
DisplayStrings = (
"AÁ/Abreve ÂÄÀ/Amacron/Aogonek ÅÃBC/Cacute/Ccaron Ç/Cdotaccent DÐ/Dcaron/Dcroat EÉ/Ecaron ÊË/Edotaccent È/Emacron/Eogonek FG/Gbreve/Gcommaaccent/Gdotaccent H/Hbar IÍÎÏ/Idotaccent Ì/Imacron/Iogonek JK/Kcommaaccent L/Lacute/Lcaron/Lcommaaccent/Lslash MN/Nacute/Ncaron/Ncommaaccent ÑOÓÔÖÒ/Ohungarumlaut/Omacron ØÕPQR/Racute/Rcaron/Rcommaaccent S/Sacute/Scaron/Scedilla/Scommaaccent T/Tbar/Tcaron/Tcedilla/Tcommaaccent UÚÛÜÙ/Uhungarumlaut/Umacron/Uogonek/Uring VW/Wacute/Wcircumflex/Wdieresis/Wgrave XYÝ/Ycircumflex/Ydieresis/Ygrave Z/Zacute/Zcaron/Zdotaccent aá/abreve âäà/amacron/aogonek åãbc/cacute/ccaron ç/cdotaccent d/dcaron/dcroat eé/ecaron êë/edotaccent è/emacron/eogonek fg/gbreve/gcommaaccent/gdotaccent h/hbar ijk/kcommaaccent l/lacute/lcaron/lcommaaccent/lslash mn/nacute/ncaron/ncommaaccent ñoóôöò/ohungarumlaut/omacron øõpqr/racute/rcaron/rcommaaccent s/sacute/scaron/scedilla/scommaaccent t/tbar/tcaron/tcedilla/tcommaaccent uúûüù/uhungarumlaut/umacron/uogonek/uring vw/wacute/wcircumflex/wdieresis/wgrave xyý/ycircumflex/ydieresis/ygrave z/zacute/zcaron/zdotaccent"
);
date = "2020-11-22 10:42:17 +0000";
designer = "Cruzine Design";
familyName = Milkshake;
featurePrefixes = (
{
automatic = 1;
code = "languagesystem DFLT dflt;\012languagesystem latn dflt;\012languagesystem latn ROM;\012languagesystem latn MOL;\012";
name = Languagesystems;
}
);
features = (
{
automatic = 1;
code = "feature locl;\012";
name = aalt;
},
{
automatic = 1;
code = "script latn;\012language ROM;\012sub Scedilla by Scommaaccent;\012sub scedilla by scommaaccent;\012sub Tcedilla by Tcommaaccent;\012sub tcedilla by tcommaaccent;\012language MOL;\012sub Scedilla by Scommaaccent;\012sub scedilla by scommaaccent;\012sub Tcedilla by Tcommaaccent;\012sub tcedilla by tcommaaccent;\012";
name = locl;
}
);
fontMaster = (
{
ascender = 800;
capHeight = 700;
descender = -200;
id = "686D85FA-502B-420B-8C81-C7709808E604";
weightValue = 0;
widthValue = 0;
xHeight = 500;
}

glyphs = (
{
glyphname = A;
lastChange = "2020-11-22 11:00:00 +0000";
layers = (
{
layerId = "686D85FA-502B-420B-8C81-C7709808E604";
paths = (
{
closed = 1;
nodes = (
"390 -157 OFFCURVE",
"384 -159 OFFCURVE",
"379 -160 CURVE",
"369 -163 OFFCURVE",
"359 -167 OFFCURVE",
"346 -171 CURVE",
"343 -164 OFFCURVE",
"339 -156 OFFCURVE",
"336 -148 CURVE",
"333 -135 OFFCURVE",
"330 -122 OFFCURVE",
"328 -109 CURVE",
"325 -98 OFFCURVE",
"324 -87 OFFCURVE",
"322 -75 CURVE",
"317 -55 OFFCURVE",
"311 -35 OFFCURVE",
"308 -14 CURVE",
"305 10 OFFCURVE",
"294 29 OFFCURVE",
"284 49 CURVE",
"279 61 OFFCURVE",
"282 70 OFFCURVE",
"294 75 CURVE",
"301 78 OFFCURVE",
"304 82 OFFCURVE",
"303 90 CURVE",
"301 121 OFFCURVE",
"300 152 OFFCURVE",
"297 183 CURVE",
"295 205 OFFCURVE",
"291 226 OFFCURVE",
"287 247 CURVE",
"266 245 OFFCURVE",
"246 243 OFFCURVE",
"225 240 CURVE",
"212 238 OFFCURVE",
"199 234 OFFCURVE",
"185 231 CURVE",
"175 229 OFFCURVE",
"164 227 OFFCURVE",
"154 226 CURVE",
"138 224 OFFCURVE",
"122 223 OFFCURVE",
"107 221 CURVE",
"92 219 OFFCURVE",
"77 216 OFFCURVE",
"60 214 CURVE",
"58 198 OFFCURVE",
"57 180 OFFCURVE",
"56 163 CURVE",
"54 127 OFFCURVE",
"52 91 OFFCURVE",
"51 55 CURVE",
"49 27 OFFCURVE",
"48 -1 OFFCURVE",
"46 -29 CURVE",
"44 -58 OFFCURVE",
"44 -87 OFFCURVE",
"41 -115 CURVE",
"40 -125 OFFCURVE",
"37 -133 OFFCURVE",
"40 -143 CURVE",
"45 -155 OFFCURVE",
"34 -166 OFFCURVE",
"21 -166 CURVE",
"-16 -166 OFFCURVE",
"-12 -171 OFFCURVE",
"-12 -134 CURVE",
"-12 -104 OFFCURVE",
"-12 -75 OFFCURVE",
"-11 -45 CURVE",
"-11 -22 OFFCURVE",
"-8 1 OFFCURVE",
"-7 24 CURVE",
"-5 49 OFFCURVE",
"-4 74 OFFCURVE",
"-2 99 CURVE",
"0 130 OFFCURVE",
"4 160 OFFCURVE",
"7 190 CURVE",
"7 192 OFFCURVE",
"7 193 OFFCURVE",
"7 194 CURVE",
"9 227 OFFCURVE",
"10 260 OFFCURVE",
"12 293 CURVE",
"14 315 OFFCURVE",
"16 336 OFFCURVE",
"17 358 CURVE",
"19 376 OFFCURVE",
"21 394 OFFCURVE",
"22 413 CURVE",
"24 443 OFFCURVE",
"25 473 OFFCURVE",
"27 502 CURVE",
"29 522 OFFCURVE",
"30 541 OFFCURVE",
"32 560 CURVE",
"34 596 OFFCURVE",
"35 632 OFFCURVE",
"37 668 CURVE",
"39 695 OFFCURVE",
"39 721 OFFCURVE",
"41 748 CURVE",
"41 752 OFFCURVE",
"44 759 OFFCURVE",
"47 760 CURVE",
"57 763 OFFCURVE",
"68 765 OFFCURVE",
"80 766 CURVE",
"81 767 OFFCURVE",
"84 761 OFFCURVE",
"85 758 CURVE",
"88 749 OFFCURVE",
"92 739 OFFCURVE",
"96 725 CURVE",
"101 744 OFFCURVE",
"105 759 OFFCURVE",
"109 775 CURVE",
"113 789 OFFCURVE",
"118 803 OFFCURVE",
"122 817 CURVE",
"126 829 OFFCURVE",
"128 842 OFFCURVE",
"133 853 CURVE",
"138 864 OFFCURVE",
"145 874 OFFCURVE",
"153 885 CURVE",
"157 873 OFFCURVE",
"164 871 OFFCURVE",
"173 876 CURVE",
"175 876 OFFCURVE",
"178 875 OFFCURVE",
"181 875 CURVE",
"187 875 OFFCURVE",
"193 875 OFFCURVE",
"201 875 CURVE",
"211 854 OFFCURVE",
"224 832 OFFCURVE",
"234 808 CURVE",
"241 789 OFFCURVE",
"244 769 OFFCURVE",
"250 749 CURVE",
"254 735 OFFCURVE",
"259 721 OFFCURVE",
"263 707 CURVE",
"266 698 OFFCURVE",
"267 689 OFFCURVE",
"269 680 CURVE",
"273 661 OFFCURVE",
"278 643 OFFCURVE",
"282 625 CURVE",
"284 617 OFFCURVE",
"286 608 OFFCURVE",
"288 599 CURVE",
"290 586 OFFCURVE",
"291 574 OFFCURVE",
"293 561 CURVE",
"295 548 OFFCURVE",
"299 536 OFFCURVE",
"301 524 CURVE",
"302 521 OFFCURVE",
"302 518 OFFCURVE",
"302 516 CURVE",
"305 498 OFFCURVE",
"305 481 OFFCURVE",
"311 464 CURVE",
"316 450 OFFCURVE",
"315 434 OFFCURVE",
"317 418 CURVE",
"320 401 OFFCURVE",
"323 384 OFFCURVE",
"326 367 CURVE",
"326 366 OFFCURVE",
"326 365 OFFCURVE",
"327 365 CURVE",
"328 346 OFFCURVE",
"330 328 OFFCURVE",
"332 309 CURVE",
"332 309 OFFCURVE",
"333 308 OFFCURVE",
"333 308 CURVE",
"346 305 OFFCURVE",
"353 299 OFFCURVE",
"352 285 CURVE",
"351 279 OFFCURVE",
"354 273 OFFCURVE",
"354 267 CURVE",
"354 263 OFFCURVE",
"352 257 OFFCURVE",
"349 255 CURVE",
"342 251 OFFCURVE",
"341 245 OFFCURVE",
"341 238 CURVE",
"343 215 OFFCURVE",
"344 191 OFFCURVE",
"346 168 CURVE",
"347 153 OFFCURVE",
"349 138 OFFCURVE",
"351 123 CURVE",
"353 104 OFFCURVE",
"354 85 OFFCURVE",
"356 66 CURVE",
"357 51 OFFCURVE",
"358 37 OFFCURVE",
"361 22 CURVE",
"363 4 OFFCURVE",
"367 -13 OFFCURVE",
"370 -31 CURVE",
"372 -44 OFFCURVE",
"373 -58 OFFCURVE",
"375 -72 CURVE",
"377 -85 OFFCURVE",
"381 -98 OFFCURVE",
"383 -112 CURVE",
"385 -121 OFFCURVE",
"385 -131 OFFCURVE",
"385 -142 CURVE",
"389 -142 OFFCURVE",
"392 -142 OFFCURVE",
"395 -142 CURVE",
"395 -146 OFFCURVE",
"395 -151 OFFCURVE",
"395 -156 CURVE"
);
},
{
closed = 1;
nodes = (
"172 810 OFFCURVE",
"170 805 OFFCURVE",
"169 800 CURVE SMOOTH",
"165 786 OFFCURVE",
"161 773 OFFCURVE",
"157 759 CURVE SMOOTH",
"154 745 OFFCURVE",
"150 730 OFFCURVE",
"146 716 CURVE SMOOTH",
"142 702 OFFCURVE",
"137 689 OFFCURVE",
"133 674 CURVE SMOOTH",
"129 659 OFFCURVE",
"127 643 OFFCURVE",
"123 628 CURVE SMOOTH",
"119 611 OFFCURVE",
"113 594 OFFCURVE",
"109 577 CURVE SMOOTH",
"104 554 OFFCURVE",
"99 530 OFFCURVE",
"95 506 CURVE SMOOTH",
"91 488 OFFCURVE",
"88 469 OFFCURVE",
"85 451 CURVE SMOOTH",
"81 428 OFFCURVE",
"78 406 OFFCURVE",
"75 384 CURVE SMOOTH",
"73 365 OFFCURVE",
"72 345 OFFCURVE",
"70 326 CURVE SMOOTH",
"70 323 OFFCURVE",
"70 321 OFFCURVE",
"70 318 CURVE SMOOTH",
"68 302 OFFCURVE",
"66 286 OFFCURVE",
"64 270 CURVE",
"70 269 OFFCURVE",
"73 269 OFFCURVE",
"75 269 CURVE SMOOTH",
"97 272 OFFCURVE",
"120 276 OFFCURVE",
"142 279 CURVE SMOOTH",
"156 281 OFFCURVE",
"171 282 OFFCURVE",
"185 284 CURVE SMOOTH",
"188 284 OFFCURVE",
"191 284 OFFCURVE",
"194 284 CURVE SMOOTH",
"209 287 OFFCURVE",
"224 291 OFFCURVE",
"239 293 CURVE SMOOTH",
"253 296 OFFCURVE",
"268 297 OFFCURVE",
"282 299 CURVE",
"259 474 OFFCURVE",
"233 648 OFFCURVE",
"174 815 CURVE"
);
}
);
width = 400;
}
);
unicode = 0041;
},
{
glyphname = B;
lastChange = "2020-11-22 11:00:04 +0000";
layers = (
{
layerId = "686D85FA-502B-420B-8C81-C7709808E604";
paths = (
{
closed = 1;
nodes = (
"285 53 OFFCURVE",
"280 50 OFFCURVE",
"277 46 CURVE",
"267 31 OFFCURVE",
"252 23 OFFCURVE",
"236 15 CURVE",
"222 8 OFFCURVE",
"207 1 OFFCURVE",
"193 -5 CURVE",
"181 -11 OFFCURVE",
"169 -15 OFFCURVE",
"157 -19 CURVE",
"142 -24 OFFCURVE",
"127 -28 OFFCURVE",
"112 -33 CURVE",
"111 -33 OFFCURVE",
"109 -33 OFFCURVE",
"107 -34 CURVE",
"85 -36 OFFCURVE",
"79 -47 OFFCURVE",
"88 -69 CURVE",
"90 -73 OFFCURVE",
"86 -83 OFFCURVE",
"81 -86 CURVE",
"75 -90 OFFCURVE",
"66 -90 OFFCURVE",
"58 -91 CURVE",
"39 -92 OFFCURVE",
"32 -86 OFFCURVE",
"32 -66 CURVE",
"32 -53 OFFCURVE",
"32 -40 OFFCURVE",
"32 -27 CURVE",
"30 3 OFFCURVE",
"29 32 OFFCURVE",
"27 62 CURVE",
"26 80 OFFCURVE",
"24 98 OFFCURVE",
"22 116 CURVE",
"20 133 OFFCURVE",
"16 149 OFFCURVE",
"13 165 CURVE",
"13 167 OFFCURVE",
"13 169 OFFCURVE",
"13 171 CURVE",
"11 194 OFFCURVE",
"10 218 OFFCURVE",
"8 241 CURVE",
"5 270 OFFCURVE",
"1 299 OFFCURVE",
"-2 328 CURVE",
"-5 355 OFFCURVE",
"-9 382 OFFCURVE",
"-12 408 CURVE",
"-15 438 OFFCURVE",
"-18 467 OFFCURVE",
"-21 497 CURVE",
"-23 511 OFFCURVE",
"-24 524 OFFCURVE",
"-26 538 CURVE",
"-27 544 OFFCURVE",
"-29 551 OFFCURVE",
"-33 555 CURVE",
"-44 567 OFFCURVE",
"-41 582 OFFCURVE",
"-40 595 CURVE",
"-40 609 OFFCURVE",
"-37 624 OFFCURVE",
"-37 638 CURVE",
"-36 658 OFFCURVE",
"-36 658 OFFCURVE",
"-16 659 CURVE",
"11 660 OFFCURVE",
"14 658 OFFCURVE",
"17 624 CURVE",
"18 618 OFFCURVE",
"17 612 OFFCURVE",
"17 606 CURVE",
"20 606 OFFCURVE",
"21 605 OFFCURVE",
"23 605 CURVE",
"47 604 OFFCURVE",
"72 603 OFFCURVE",
"96 600 CURVE",
"114 597 OFFCURVE",
"131 592 OFFCURVE",
"148 586 CURVE",
"165 581 OFFCURVE",
"183 575 OFFCURVE",
"198 565 CURVE",
"220 552 OFFCURVE",
"236 533 OFFCURVE",
"245 508 CURVE",
"252 490 OFFCURVE",
"252 473 OFFCURVE",
"249 456 CURVE",
"246 440 OFFCURVE",
"236 425 OFFCURVE",
"220 416 CURVE",
"210 409 OFFCURVE",
"201 399 OFFCURVE",
"192 390 CURVE",
"167 364 OFFCURVE",
"143 338 OFFCURVE",
"118 311 CURVE",
"112 304 OFFCURVE",
"107 296 OFFCURVE",
"101 287 CURVE",
"115 281 OFFCURVE",
"129 274 OFFCURVE",
"143 266 CURVE",
"150 263 OFFCURVE",
"156 259 OFFCURVE",
"162 255 CURVE",
"185 235 OFFCURVE",
"210 217 OFFCURVE",
"227 190 CURVE",
"238 171 OFFCURVE",
"252 154 OFFCURVE",
"262 135 CURVE",
"270 119 OFFCURVE",
"274 101 OFFCURVE",
"278 84 CURVE",
"280 77 OFFCURVE",
"284 78 OFFCURVE",
"289 78 CURVE",
"289 71 OFFCURVE",
"289 64 OFFCURVE",
"289 56 CURVE"
);
},
{
closed = 1;
nodes = (
"71 333 OFFCURVE",
"88 352 OFFCURVE",
"105 371 CURVE",
"113 381 OFFCURVE",
"121 390 OFFCURVE",
"130 399 CURVE",
"149 418 OFFCURVE",
"167 436 OFFCURVE",
"187 453 CURVE",
"195 461 OFFCURVE",
"205 469 OFFCURVE",
"201 482 CURVE",
"196 494 OFFCURVE",
"189 506 OFFCURVE",
"180 515 CURVE",
"159 535 OFFCURVE",
"130 540 OFFCURVE",
"103 546 CURVE",
"86 551 OFFCURVE",
"68 550 OFFCURVE",
"50 552 CURVE",
"47 552 OFFCURVE",
"43 554 OFFCURVE",
"40 554 CURVE",
"34 555 OFFCURVE",
"29 556 OFFCURVE",
"20 558 CURVE",
"23 545 OFFCURVE",
"26 536 OFFCURVE",
"27 527 CURVE",
"30 497 OFFCURVE",
"33 468 OFFCURVE",
"37 438 CURVE",
"38 424 OFFCURVE",
"40 410 OFFCURVE",
"41 396 CURVE",
"43 374 OFFCURVE",
"45 351 OFFCURVE",
"47 329 CURVE",
"47 324 OFFCURVE",
"49 319 OFFCURVE",
"52 312 CURVE"
);
},
{
closed = 1;
nodes = (
"93 19 OFFCURVE",
"100 24 OFFCURVE",
"107 24 CURVE SMOOTH",
"123 24 OFFCURVE",
"138 27 OFFCURVE",
"152 34 CURVE SMOOTH",
"173 44 OFFCURVE",
"195 53 OFFCURVE",
"217 63 CURVE SMOOTH",
"227 67 OFFCURVE",
"231 71 OFFCURVE",
"227 84 CURVE SMOOTH",
"216 116 OFFCURVE",
"200 144 OFFCURVE",
"180 169 CURVE SMOOTH",
"156 197 OFFCURVE",
"127 219 OFFCURVE",
"93 236 CURVE SMOOTH",
"82 241 OFFCURVE",
"70 244 OFFCURVE",
"56 249 CURVE",
"56 242 OFFCURVE",
"56 239 OFFCURVE",
"56 235 CURVE SMOOTH",
"59 215 OFFCURVE",
"63 196 OFFCURVE",
"66 176 CURVE SMOOTH",
"68 153 OFFCURVE",
"69 130 OFFCURVE",
"71 107 CURVE SMOOTH",
"71 106 OFFCURVE",
"71 104 OFFCURVE",
"72 103 CURVE SMOOTH",
"75 93 OFFCURVE",
"79 83 OFFCURVE",
"80 74 CURVE SMOOTH",
"83 55 OFFCURVE",
"84 36 OFFCURVE",
"86 15 CURVE"
);
}
);
width = 300;
}
);
unicode = 0042;
},
{
glyphname = C;
lastChange = "2020-11-22 11:00:09 +0000";
layers = (
{
layerId = "686D85FA-502B-420B-8C81-C7709808E604";
paths = (
{
closed = 1;
nodes = (
"245 268 OFFCURVE",
"250 265 OFFCURVE",
"252 260 CURVE SMOOTH",
"259 243 OFFCURVE",
"259 243 OFFCURVE",
"250 223 CURVE SMOOTH",
"246 216 OFFCURVE",
"245 208 OFFCURVE",
"235 206 CURVE SMOOTH",
"234 206 OFFCURVE",
"235 199 OFFCURVE",
"235 193 CURVE",
"229 186 OFFCURVE",
"223 177 OFFCURVE",
"215 168 CURVE SMOOTH",
"200 152 OFFCURVE",
"181 140 OFFCURVE",
"159 134 CURVE SMOOTH",
"150 131 OFFCURVE",
"142 126 OFFCURVE",
"132 124 CURVE SMOOTH",
"92 116 OFFCURVE",
"47 140 OFFCURVE",
"27 171 CURVE SMOOTH",
"15 190 OFFCURVE",
"9 210 OFFCURVE",
"10 233 CURVE SMOOTH",
"12 250 OFFCURVE",
"15 267 OFFCURVE",
"14 284 CURVE SMOOTH",
"14 319 OFFCURVE",
"30 347 OFFCURVE",
"42 378 CURVE SMOOTH",
"52 402 OFFCURVE",
"64 424 OFFCURVE",
"79 445 CURVE SMOOTH",
"89 459 OFFCURVE",
"98 477 OFFCURVE",
"116 485 CURVE SMOOTH",
"123 488 OFFCURVE",
"131 489 OFFCURVE",
"139 491 CURVE",
"142 476 OFFCURVE",
"136 463 OFFCURVE",
"152 456 CURVE",
"150 453 OFFCURVE",
"148 449 OFFCURVE",
"145 446 CURVE SMOOTH",
"119 421 OFFCURVE",
"102 389 OFFCURVE",
"88 357 CURVE SMOOTH",
"79 337 OFFCURVE",
"69 317 OFFCURVE",
"65 296 CURVE SMOOTH",
"60 271 OFFCURVE",
"59 244 OFFCURVE",
"60 218 CURVE SMOOTH",
"60 198 OFFCURVE",
"92 175 OFFCURVE",
"113 173 CURVE SMOOTH",
"146 170 OFFCURVE",
"188 207 OFFCURVE",
"199 231 CURVE SMOOTH",
"206 245 OFFCURVE",
"214 258 OFFCURVE",
"222 272 CURVE SMOOTH",
"224 276 OFFCURVE",
"224 280 OFFCURVE",
"225 286 CURVE",
"227 276 OFFCURVE",
"244 287 OFFCURVE",
"242 271 CURVE",
"241 271 OFFCURVE",
"239 271 OFFCURVE",
"237 270 CURVE SMOOTH",
"234 268 OFFCURVE",
"231 266 OFFCURVE",
"228 265 CURVE",
"232 261 OFFCURVE",
"235 258 OFFCURVE",
"239 254 CURVE",
"240 255 OFFCURVE",
"241 256 OFFCURVE",
"242 257 CURVE",
"242 262 OFFCURVE",
"242 267 OFFCURVE",
"242 272 CURVE"
);
}
);
width = 300;
}
);
unicode = 0043;
},
{
glyphname = D;
lastChange = "2020-11-22 11:00:13 +0000";
layers = (
{
layerId = "686D85FA-502B-420B-8C81-C7709808E604";
paths = (
{
closed = 1;
nodes = (
"337 414 OFFCURVE",
"329 402 OFFCURVE",
"330 393 CURVE",
"330 373 OFFCURVE",
"331 354 OFFCURVE",
"325 334 CURVE",
"321 323 OFFCURVE",
"321 311 OFFCURVE",
"319 300 CURVE",
"317 289 OFFCURVE",
"314 279 OFFCURVE",
"311 269 CURVE",
"309 262 OFFCURVE",
"307 255 OFFCURVE",
"305 248 CURVE",
"302 233 OFFCURVE",
"299 217 OFFCURVE",
"295 203 CURVE",
"290 186 OFFCURVE",
"283 170 OFFCURVE",
"277 153 CURVE",
"272 137 OFFCURVE",
"267 121 OFFCURVE",
"261 106 CURVE",
"257 93 OFFCURVE",
"252 81 OFFCURVE",
"246 70 CURVE",
"239 53 OFFCURVE",
"231 37 OFFCURVE",
"223 21 CURVE",
"211 -3 OFFCURVE",
"199 -26 OFFCURVE",
"186 -49 CURVE",
"173 -73 OFFCURVE",
"159 -97 OFFCURVE",
"144 -121 CURVE",
"138 -130 OFFCURVE",
"128 -138 OFFCURVE",
"122 -147 CURVE",
"117 -155 OFFCURVE",
"113 -165 OFFCURVE",
"112 -173 CURVE",
"110 -192 OFFCURVE",
"111 -211 OFFCURVE",
"111 -229 CURVE",
"111 -241 OFFCURVE",
"104 -248 OFFCURVE",
"92 -248 CURVE",
"86 -249 OFFCURVE",
"80 -251 OFFCURVE",
"74 -251 CURVE",
"71 -251 OFFCURVE",
"65 -249 OFFCURVE",
"64 -247 CURVE",
"61 -240 OFFCURVE",
"60 -232 OFFCURVE",
"58 -225 CURVE",
"54 -208 OFFCURVE",
"50 -191 OFFCURVE",
"46 -174 CURVE",
"46 -172 OFFCURVE",
"44 -170 OFFCURVE",
"44 -168 CURVE",
"42 -151 OFFCURVE",
"41 -134 OFFCURVE",
"39 -116 CURVE",
"36 -98 OFFCURVE",
"33 -80 OFFCURVE",
"30 -62 CURVE",
"30 -60 OFFCURVE",
"29 -58 OFFCURVE",
"29 -56 CURVE",
"28 -4 OFFCURVE",
"26 48 OFFCURVE",
"24 99 CURVE",
"24 124 OFFCURVE",
"27 148 OFFCURVE",
"23 172 CURVE",
"15 226 OFFCURVE",
"22 280 OFFCURVE",
"19 334 CURVE",
"17 370 OFFCURVE",
"16 406 OFFCURVE",
"14 442 CURVE",
"13 469 OFFCURVE",
"12 497 OFFCURVE",
"9 524 CURVE",
"7 555 OFFCURVE",
"3 586 OFFCURVE",
"0 617 CURVE",
"-3 648 OFFCURVE",
"-5 679 OFFCURVE",
"-10 710 CURVE",
"-15 740 OFFCURVE",
"-19 770 OFFCURVE",
"-19 801 CURVE",
"-19 808 OFFCURVE",
"-17 813 OFFCURVE",
"-10 814 CURVE",
"0 816 OFFCURVE",
"10 817 OFFCURVE",
"19 815 CURVE",
"23 814 OFFCURVE",
"27 805 OFFCURVE",
"29 799 CURVE",
"32 784 OFFCURVE",
"34 770 OFFCURVE",
"36 757 CURVE",
"45 750 OFFCURVE",
"53 743 OFFCURVE",
"62 738 CURVE",
"80 728 OFFCURVE",
"99 719 OFFCURVE",
"117 710 CURVE",
"123 707 OFFCURVE",
"129 703 OFFCURVE",
"135 700 CURVE",
"157 689 OFFCURVE",
"180 678 OFFCURVE",
"202 666 CURVE",
"214 660 OFFCURVE",
"225 653 OFFCURVE",
"236 645 CURVE",
"249 635 OFFCURVE",
"261 625 OFFCURVE",
"272 613 CURVE",
"293 591 OFFCURVE",
"309 564 OFFCURVE",
"320 534 CURVE",
"331 505 OFFCURVE",
"335 475 OFFCURVE",
"334 444 CURVE",
"334 436 OFFCURVE",
"339 435 OFFCURVE",
"344 432 CURVE",
"344 427 OFFCURVE",
"344 421 OFFCURVE",
"344 415 CURVE"
);
},
{
closed = 1;
nodes = (
"87 -97 OFFCURVE",
"89 -98 OFFCURVE",
"90 -99 CURVE",
"95 -95 OFFCURVE",
"101 -92 OFFCURVE",
"104 -87 CURVE SMOOTH",
"120 -63 OFFCURVE",
"136 -39 OFFCURVE",
"149 -13 CURVE SMOOTH",
"169 25 OFFCURVE",
"186 64 OFFCURVE",
"204 103 CURVE SMOOTH",
"221 141 OFFCURVE",
"236 179 OFFCURVE",
"247 218 CURVE SMOOTH",
"248 224 OFFCURVE",
"250 229 OFFCURVE",
"252 234 CURVE SMOOTH",
"254 244 OFFCURVE",
"255 254 OFFCURVE",
"258 264 CURVE SMOOTH",
"262 283 OFFCURVE",
"266 302 OFFCURVE",
"272 320 CURVE SMOOTH",
"275 330 OFFCURVE",
"271 344 OFFCURVE",
"281 349 CURVE",
"282 364 OFFCURVE",
"283 377 OFFCURVE",
"284 389 CURVE SMOOTH",
"286 407 OFFCURVE",
"289 425 OFFCURVE",
"291 443 CURVE SMOOTH",
"291 443 OFFCURVE",
"291 444 OFFCURVE",
"291 445 CURVE SMOOTH",
"287 459 OFFCURVE",
"282 472 OFFCURVE",
"281 486 CURVE SMOOTH",
"280 523 OFFCURVE",
"259 550 OFFCURVE",
"237 576 CURVE SMOOTH",
"215 601 OFFCURVE",
"189 619 OFFCURVE",
"159 633 CURVE SMOOTH",
"128 647 OFFCURVE",
"98 662 OFFCURVE",
"67 676 CURVE SMOOTH",
"60 679 OFFCURVE",
"53 683 OFFCURVE",
"45 686 CURVE",
"44 685 OFFCURVE",
"43 685 OFFCURVE",
"42 684 CURVE",
"44 673 OFFCURVE",
"46 661 OFFCURVE",
"48 650 CURVE SMOOTH",
"50 634 OFFCURVE",
"52 618 OFFCURVE",
"53 602 CURVE SMOOTH",
"55 583 OFFCURVE",
"56 565 OFFCURVE",
"58 547 CURVE SMOOTH",
"60 526 OFFCURVE",
"58 506 OFFCURVE",
"62 485 CURVE SMOOTH",
"68 454 OFFCURVE",
"66 423 OFFCURVE",
"68 391 CURVE SMOOTH",
"68 377 OFFCURVE",
"67 363 OFFCURVE",
"67 349 CURVE SMOOTH",
"69 301 OFFCURVE",
"71 253 OFFCURVE",
"72 205 CURVE SMOOTH",
"73 188 OFFCURVE",
"72 171 OFFCURVE",
"73 153 CURVE SMOOTH",
"74 114 OFFCURVE",
"70 74 OFFCURVE",
"77 35 CURVE SMOOTH",
"81 11 OFFCURVE",
"75 -13 OFFCURVE",
"81 -38 CURVE SMOOTH",
"86 -56 OFFCURVE",
"84 -77 OFFCURVE",
"85 -96 CURVE"
);
}
);
width = 400;
}
);
unicode = 0044;
},
{
glyphname = E;
lastChange = "2020-11-22 11:00:16 +0000";
layers = (
{
layerId = "686D85FA-502B-420B-8C81-C7709808E604";
paths = (
{
closed = 1;
nodes = (
"271.21 441.164 OFFCURVE",
"267.719 440.151 OFFCURVE",
"266.625 432.752 CURVE SMOOTH",
"265.711 426.567 OFFCURVE",
"261.873 420.429 OFFCURVE",
"258.023 415.24 CURVE SMOOTH",
"256.286 412.9 OFFCURVE",
"250.916 411.325 OFFCURVE",
"247.983 412.163 CURVE SMOOTH",
"238.947 414.744 OFFCURVE",
"229.949 417.998 OFFCURVE",
"221.628 422.322 CURVE SMOOTH",
"217.31 424.567 OFFCURVE",
"214.451 429.621 OFFCURVE",
"210.592 433.772 CURVE",
"161.478 431.153 OFFCURVE",
"110.963 428.459 OFFCURVE",
"59.75 425.727 CURVE",
"59.75 377.571 OFFCURVE",
"59.75 329.808 OFFCURVE",
"59.75 280.432 CURVE",
"72.193 282.414 OFFCURVE",
"84.188 283.72 OFFCURVE",
"95.873 286.383 CURVE SMOOTH",
"104.67 288.388 OFFCURVE",
"112.882 292.98 OFFCURVE",
"121.683 294.94 CURVE SMOOTH",
"145.905 300.335 OFFCURVE",
"170.271 305.105 OFFCURVE",
"194.64 309.804 CURVE SMOOTH",
"204.952 311.793 OFFCURVE",
"215.384 314.005 OFFCURVE",
"225.819 314.344 CURVE SMOOTH",
"255.98 315.324 OFFCURVE",
"264.195 284.393 OFFCURVE",
"255.821 262.234 CURVE SMOOTH",
"254.579 258.947 OFFCURVE",
"252.673 255.829 OFFCURVE",
"250.639 252.94 CURVE SMOOTH",
"238.76 236.063 OFFCURVE",
"219.073 235.717 OFFCURVE",
"209.879 253.565 CURVE SMOOTH",
"205.762 261.557 OFFCURVE",
"200.871 262.414 OFFCURVE",
"194.763 260.971 CURVE SMOOTH",
"179.608 257.391 OFFCURVE",
"164.709 252.732 OFFCURVE",
"149.688 248.577 CURVE SMOOTH",
"141.773 246.387 OFFCURVE",
"133.884 244.04 OFFCURVE",
"125.867 242.301 CURVE SMOOTH",
"109.471 238.744 OFFCURVE",
"92.902 235.943 OFFCURVE",
"76.598 232.027 CURVE SMOOTH",
"69.293 230.272 OFFCURVE",
"63.134 227.208 OFFCURVE",
"63.572 216.789 CURVE SMOOTH",
"64.501 194.669 OFFCURVE",
"63.223 172.459 OFFCURVE",
"64.04 150.33 CURVE SMOOTH",
"64.808 129.492 OFFCURVE",
"66.619 108.656 OFFCURVE",
"68.925 87.925 CURVE SMOOTH",
"70.16 76.823 OFFCURVE",
"73.404 65.944 OFFCURVE",
"76.083 53.362 CURVE",
"87.558 57.191 OFFCURVE",
"100.128 61.243 OFFCURVE",
"112.598 65.583 CURVE SMOOTH",
"128.376 71.074 OFFCURVE",
"144.033 76.912 OFFCURVE",
"159.817 82.383 CURVE SMOOTH",
"170.27 86.007 OFFCURVE",
"180.92 89.072 OFFCURVE",
"191.313 92.85 CURVE SMOOTH",
"192.951 93.446 OFFCURVE",
"193.749 96.469 OFFCURVE",
"194.845 98.42 CURVE SMOOTH",
"206.841 119.753 OFFCURVE",
"222.533 119.36 OFFCURVE",
"239.057 101.844 CURVE SMOOTH",
"253.347 86.694 OFFCURVE",
"240.932 76.542 OFFCURVE",
"236.988 64.758 CURVE SMOOTH",
"231.883 49.507 OFFCURVE",
"219.502 44.989 OFFCURVE",
"204.179 43.225 CURVE SMOOTH",
"192.8 41.915 OFFCURVE",
"181.883 36.429 OFFCURVE",
"170.811 32.655 CURVE SMOOTH",
"148.499 25.049 OFFCURVE",
"126.26 17.224 OFFCURVE",
"103.91 9.735 CURVE SMOOTH",
"94.372 6.539 OFFCURVE",
"84.585 4.096 OFFCURVE",
"74.988 1.065 CURVE SMOOTH",
"60.259 -3.586 OFFCURVE",
"35.582 7.59 OFFCURVE",
"30.297 22.957 CURVE SMOOTH",
"25.881 35.798 OFFCURVE",
"22.566 49.278 OFFCURVE",
"20.885 62.74 CURVE SMOOTH",
"18.17 84.47 OFFCURVE",
"16.58 106.391 OFFCURVE",
"15.617 128.28 CURVE SMOOTH",
"13.519 175.986 OFFCURVE",
"11.53 223.71 OFFCURVE",
"10.55 271.448 CURVE SMOOTH",
"8.586 367.156 OFFCURVE",
"7.462 462.881 OFFCURVE",
"5.627 558.592 CURVE SMOOTH",
"5.375 571.74 OFFCURVE",
"4.22 585.105 OFFCURVE",
"1.425 597.921 CURVE SMOOTH",
"-4.415 624.692 OFFCURVE",
"14.777 640.018 OFFCURVE",
"34.917 633.742 CURVE SMOOTH",
"42.248 631.457 OFFCURVE",
"49.972 623.557 OFFCURVE",
"53.086 616.314 CURVE SMOOTH",
"57.266 606.591 OFFCURVE",
"58.438 595.044 OFFCURVE",
"58.639 584.239 CURVE SMOOTH",
"59.28 549.69 OFFCURVE",
"58.877 515.121 OFFCURVE",
"58.877 479.086 CURVE",
"88.857 479.086 OFFCURVE",
"118.462 475.006 OFFCURVE",
"146.363 480.159 CURVE SMOOTH",
"178.463 486.088 OFFCURVE",
"209.995 482.753 OFFCURVE",
"241.617 482.621 CURVE SMOOTH",
"250.04 482.586 OFFCURVE",
"258.83 469.366 OFFCURVE",
"266.633 461.397 CURVE SMOOTH",
"270.979 456.959 OFFCURVE",
"273.639 450.868 OFFCURVE",
"277.059 445.522 CURVE",
"277.059 443.91 OFFCURVE",
"277.059 442.298 OFFCURVE",
"277.059 440.685 CURVE"
);
}
);
width = 300;
}
);
unicode = 0045;
},
{
glyphname = F;
lastChange = "2020-11-22 11:00:22 +0000";
layers = (
{
layerId = "686D85FA-502B-420B-8C81-C7709808E604";
paths = (
{
closed = 1;
nodes = (
"61 683 OFFCURVE",
"66 684 OFFCURVE",
"72 685 CURVE SMOOTH",
"95 689 OFFCURVE",
"119 694 OFFCURVE",
"143 699 CURVE SMOOTH",
"144 699 OFFCURVE",
"145 699 OFFCURVE",
"146 699 CURVE SMOOTH",
"164 701 OFFCURVE",
"182 703 OFFCURVE",
"200 705 CURVE SMOOTH",
"206 706 OFFCURVE",
"212 709 OFFCURVE",
"218 711 CURVE SMOOTH",
"220 712 OFFCURVE",
"221 713 OFFCURVE",
"223 714 CURVE SMOOTH",
"233 715 OFFCURVE",
"243 717 OFFCURVE",
"253 718 CURVE SMOOTH",
"268 720 OFFCURVE",
"283 721 OFFCURVE",
"298 724 CURVE SMOOTH",
"313 726 OFFCURVE",
"327 731 OFFCURVE",
"342 733 CURVE SMOOTH",
"349 734 OFFCURVE",
"356 732 OFFCURVE",
"358 722 CURVE SMOOTH",
"360 716 OFFCURVE",
"362 710 OFFCURVE",
"365 704 CURVE SMOOTH",
"370 694 OFFCURVE",
"368 685 OFFCURVE",
"360 677 CURVE SMOOTH",
"352 669 OFFCURVE",
"345 661 OFFCURVE",
"338 652 CURVE SMOOTH",
"331 643 OFFCURVE",
"319 640 OFFCURVE",
"310 648 CURVE SMOOTH",
"302 655 OFFCURVE",
"294 662 OFFCURVE",
"286 667 CURVE SMOOTH",
"281 670 OFFCURVE",
"273 671 OFFCURVE",
"268 670 CURVE SMOOTH",
"256 668 OFFCURVE",
"244 663 OFFCURVE",
"232 661 CURVE SMOOTH",
"208 657 OFFCURVE",
"183 655 OFFCURVE",
"159 651 CURVE SMOOTH",
"141 647 OFFCURVE",
"123 642 OFFCURVE",
"105 637 CURVE SMOOTH",
"104 637 OFFCURVE",
"103 637 OFFCURVE",
"102 637 CURVE SMOOTH",
"88 635 OFFCURVE",
"74 634 OFFCURVE",
"58 632 CURVE",
"58 607 OFFCURVE",
"55 583 OFFCURVE",
"59 560 CURVE SMOOTH",
"64 538 OFFCURVE",
"62 517 OFFCURVE",
"63 495 CURVE SMOOTH",
"65 462 OFFCURVE",
"66 429 OFFCURVE",
"68 395 CURVE SMOOTH",
"68 391 OFFCURVE",
"70 386 OFFCURVE",
"73 383 CURVE SMOOTH",
"75 381 OFFCURVE",
"81 383 OFFCURVE",
"85 385 CURVE SMOOTH",
"103 389 OFFCURVE",
"121 394 OFFCURVE",
"139 400 CURVE SMOOTH",
"158 405 OFFCURVE",
"177 412 OFFCURVE",
"196 418 CURVE SMOOTH",
"209 422 OFFCURVE",
"223 424 OFFCURVE",
"236 429 CURVE SMOOTH",
"248 432 OFFCURVE",
"260 437 OFFCURVE",
"272 442 CURVE SMOOTH",
"288 449 OFFCURVE",
"302 440 OFFCURVE",
"305 421 CURVE SMOOTH",
"306 416 OFFCURVE",
"307 411 OFFCURVE",
"309 405 CURVE",
"302 397 OFFCURVE",
"292 392 OFFCURVE",
"280 389 CURVE SMOOTH",
"267 387 OFFCURVE",
"255 382 OFFCURVE",
"242 378 CURVE SMOOTH",
"229 374 OFFCURVE",
"216 370 OFFCURVE",
"202 366 CURVE SMOOTH",
"188 361 OFFCURVE",
"173 356 OFFCURVE",
"159 352 CURVE SMOOTH",
"145 348 OFFCURVE",
"132 346 OFFCURVE",
"118 341 CURVE SMOOTH",
"103 336 OFFCURVE",
"88 329 OFFCURVE",
"74 323 CURVE",
"76 314 OFFCURVE",
"77 308 OFFCURVE",
"78 302 CURVE SMOOTH",
"79 267 OFFCURVE",
"81 232 OFFCURVE",
"83 198 CURVE SMOOTH",
"84 180 OFFCURVE",
"86 163 OFFCURVE",
"87 145 CURVE SMOOTH",
"89 129 OFFCURVE",
"91 112 OFFCURVE",
"92 96 CURVE SMOOTH",
"94 80 OFFCURVE",
"95 64 OFFCURVE",
"97 48 CURVE SMOOTH",
"99 33 OFFCURVE",
"100 18 OFFCURVE",
"102 4 CURVE SMOOTH",
"105 -22 OFFCURVE",
"108 -48 OFFCURVE",
"112 -74 CURVE SMOOTH",
"115 -96 OFFCURVE",
"118 -119 OFFCURVE",
"121 -141 CURVE SMOOTH",
"124 -164 OFFCURVE",
"127 -187 OFFCURVE",
"131 -210 CURVE SMOOTH",
"134 -230 OFFCURVE",
"137 -249 OFFCURVE",
"140 -269 CURVE SMOOTH",
"142 -278 OFFCURVE",
"138 -283 OFFCURVE",
"128 -283 CURVE SMOOTH",
"120 -283 OFFCURVE",
"112 -286 OFFCURVE",
"104 -288 CURVE SMOOTH",
"94 -290 OFFCURVE",
"91 -283 OFFCURVE",
"87 -275 CURVE SMOOTH",
"86 -271 OFFCURVE",
"84 -266 OFFCURVE",
"83 -261 CURVE SMOOTH",
"81 -251 OFFCURVE",
"80 -240 OFFCURVE",
"78 -230 CURVE SMOOTH",
"75 -216 OFFCURVE",
"71 -203 OFFCURVE",
"68 -189 CURVE SMOOTH",
"67 -180 OFFCURVE",
"65 -171 OFFCURVE",
"63 -163 CURVE SMOOTH",
"61 -150 OFFCURVE",
"59 -138 OFFCURVE",
"58 -126 CURVE SMOOTH",
"58 -121 OFFCURVE",
"61 -116 OFFCURVE",
"63 -111 CURVE SMOOTH",
"64 -110 OFFCURVE",
"66 -108 OFFCURVE",
"66 -107 CURVE SMOOTH",
"64 -94 OFFCURVE",
"63 -81 OFFCURVE",
"61 -68 CURVE SMOOTH",
"61 -64 OFFCURVE",
"59 -59 OFFCURVE",
"58 -55 CURVE SMOOTH",
"55 -30 OFFCURVE",
"52 -6 OFFCURVE",
"49 19 CURVE SMOOTH",
"49 19 OFFCURVE",
"49 20 OFFCURVE",
"49 21 CURVE SMOOTH",
"47 45 OFFCURVE",
"46 70 OFFCURVE",
"44 94 CURVE SMOOTH",
"41 118 OFFCURVE",
"38 142 OFFCURVE",
"35 166 CURVE SMOOTH",
"35 167 OFFCURVE",
"34 168 OFFCURVE",
"34 169 CURVE SMOOTH",
"33 195 OFFCURVE",
"31 220 OFFCURVE",
"29 246 CURVE SMOOTH",
"27 281 OFFCURVE",
"23 315 OFFCURVE",
"21 350 CURVE SMOOTH",
"20 353 OFFCURVE",
"20 356 OFFCURVE",
"20 359 CURVE SMOOTH",
"18 402 OFFCURVE",
"17 446 OFFCURVE",
"15 490 CURVE SMOOTH",
"13 520 OFFCURVE",
"11 550 OFFCURVE",
"10 581 CURVE SMOOTH",
"8 617 OFFCURVE",
"6 653 OFFCURVE",
"5 689 CURVE SMOOTH",
"3 723 OFFCURVE",
"1 757 OFFCURVE",
"0 791 CURVE SMOOTH",
"-2 829 OFFCURVE",
"-4 866 OFFCURVE",
"-4 904 CURVE SMOOTH",
"-5 969 OFFCURVE",
"-5 1035 OFFCURVE",
"-4 1101 CURVE SMOOTH",
"-4 1110 OFFCURVE",
"-2 1119 OFFCURVE",
"0 1128 CURVE SMOOTH",
"1 1130 OFFCURVE",
"5 1133 OFFCURVE",
"8 1133 CURVE SMOOTH",
"16 1133 OFFCURVE",
"25 1131 OFFCURVE",
"33 1131 CURVE SMOOTH",
"43 1131 OFFCURVE",
"48 1125 OFFCURVE",
"48 1115 CURVE SMOOTH",
"49 1099 OFFCURVE",
"51 1082 OFFCURVE",
"48 1066 CURVE SMOOTH",
"38 1005 OFFCURVE",
"42 944 OFFCURVE",
"45 884 CURVE SMOOTH",
"47 840 OFFCURVE",
"46 796 OFFCURVE",
"49 751 CURVE SMOOTH",
"50 728 OFFCURVE",
"53 705 OFFCURVE",
"56 683 CURVE"
);
}
);
width = 400;
}
);
unicode = 0046;
},
{
glyphname = G;
lastChange = "2020-11-22 11:00:35 +0000";
layers = (
{
layerId = "686D85FA-502B-420B-8C81-C7709808E604";
paths = (
{
closed = 1;
nodes = (
"141 661 OFFCURVE",
"141 659 OFFCURVE",
"142 658 CURVE SMOOTH",
"169 653 OFFCURVE",
"182 632 OFFCURVE",
"192 610 CURVE SMOOTH",
"200 595 OFFCURVE",
"209 581 OFFCURVE",
"214 565 CURVE SMOOTH",
"216 554 OFFCURVE",
"214 542 OFFCURVE",
"211 531 CURVE SMOOTH",
"208 523 OFFCURVE",
"181 526 OFFCURVE",
"178 534 CURVE SMOOTH",
"168 558 OFFCURVE",
"154 580 OFFCURVE",
"139 601 CURVE SMOOTH",
"131 613 OFFCURVE",
"126 612 OFFCURVE",
"115 602 CURVE SMOOTH",
"98 585 OFFCURVE",
"87 565 OFFCURVE",
"81 541 CURVE SMOOTH",
"77 526 OFFCURVE",
"72 511 OFFCURVE",
"67 496 CURVE SMOOTH",
"65 487 OFFCURVE",
"63 478 OFFCURVE",
"62 468 CURVE SMOOTH",
"60 452 OFFCURVE",
"58 436 OFFCURVE",
"57 419 CURVE SMOOTH",
"55 396 OFFCURVE",
"57 372 OFFCURVE",
"51 350 CURVE SMOOTH",
"46 328 OFFCURVE",
"48 306 OFFCURVE",
"48 285 CURVE SMOOTH",
"48 261 OFFCURVE",
"50 237 OFFCURVE",
"53 214 CURVE SMOOTH",
"55 192 OFFCURVE",
"57 170 OFFCURVE",
"63 149 CURVE SMOOTH",
"71 117 OFFCURVE",
"79 85 OFFCURVE",
"97 56 CURVE SMOOTH",
"103 46 OFFCURVE",
"108 34 OFFCURVE",
"122 28 CURVE SMOOTH",
"137 21 OFFCURVE",
"146 24 OFFCURVE",
"155 34 CURVE SMOOTH",
"168 48 OFFCURVE",
"179 64 OFFCURVE",
"187 81 CURVE SMOOTH",
"196 100 OFFCURVE",
"201 121 OFFCURVE",
"207 140 CURVE SMOOTH",
"213 159 OFFCURVE",
"217 179 OFFCURVE",
"218 199 CURVE SMOOTH",
"219 221 OFFCURVE",
"225 243 OFFCURVE",
"226 265 CURVE SMOOTH",
"228 288 OFFCURVE",
"228 312 OFFCURVE",
"226 336 CURVE SMOOTH",
"224 352 OFFCURVE",
"219 368 OFFCURVE",
"213 383 CURVE SMOOTH",
"209 393 OFFCURVE",
"204 394 OFFCURVE",
"193 385 CURVE SMOOTH",
"181 375 OFFCURVE",
"169 366 OFFCURVE",
"159 355 CURVE SMOOTH",
"148 343 OFFCURVE",
"139 330 OFFCURVE",
"129 317 CURVE",
"135 311 OFFCURVE",
"144 305 OFFCURVE",
"143 302 CURVE SMOOTH",
"139 291 OFFCURVE",
"134 279 OFFCURVE",
"126 271 CURVE SMOOTH",
"118 263 OFFCURVE",
"106 257 OFFCURVE",
"94 253 CURVE SMOOTH",
"83 249 OFFCURVE",
"63 266 OFFCURVE",
"62 279 CURVE SMOOTH",
"60 301 OFFCURVE",
"71 319 OFFCURVE",
"82 336 CURVE SMOOTH",
"98 360 OFFCURVE",
"115 383 OFFCURVE",
"136 403 CURVE SMOOTH",
"150 418 OFFCURVE",
"170 430 OFFCURVE",
"189 439 CURVE SMOOTH",
"214 451 OFFCURVE",
"249 432 OFFCURVE",
"260 405 CURVE SMOOTH",
"277 367 OFFCURVE",
"275 327 OFFCURVE",
"276 287 CURVE SMOOTH",
"276 280 OFFCURVE",
"275 274 OFFCURVE",
"275 268 CURVE SMOOTH",
"273 241 OFFCURVE",
"273 214 OFFCURVE",
"269 188 CURVE SMOOTH",
"266 163 OFFCURVE",
"262 138 OFFCURVE",
"255 114 CURVE SMOOTH",
"245 84 OFFCURVE",
"235 53 OFFCURVE",
"216 27 CURVE SMOOTH",
"201 5 OFFCURVE",
"184 -15 OFFCURVE",
"158 -23 CURVE SMOOTH",
"134 -31 OFFCURVE",
"111 -29 OFFCURVE",
"89 -11 CURVE SMOOTH",
"61 13 OFFCURVE",
"43 41 OFFCURVE",
"33 76 CURVE SMOOTH",
"26 100 OFFCURVE",
"20 123 OFFCURVE",
"13 146 CURVE SMOOTH",
"4 178 OFFCURVE",
"4 210 OFFCURVE",
"4 243 CURVE SMOOTH",
"4 290 OFFCURVE",
"3 337 OFFCURVE",
"4 383 CURVE SMOOTH",
"5 409 OFFCURVE",
"5 435 OFFCURVE",
"9 461 CURVE SMOOTH",
"13 486 OFFCURVE",
"21 510 OFFCURVE",
"28 534 CURVE SMOOTH",
"35 556 OFFCURVE",
"42 579 OFFCURVE",
"53 599 CURVE SMOOTH",
"65 621 OFFCURVE",
"78 643 OFFCURVE",
"101 656 CURVE SMOOTH",
"106 658 OFFCURVE",
"111 660 OFFCURVE",
"116 663 CURVE",
"124 663 OFFCURVE",
"132 663 OFFCURVE",
"140 663 CURVE"
);
}
);
width = 300;
}
);
unicode = 0047;
},
{
glyphname = H;
lastChange = "2020-11-22 11:00:29 +0000";
layers = (
{
layerId = "686D85FA-502B-420B-8C81-C7709808E604";
paths = (
{
closed = 1;
nodes = (
"154 -36 OFFCURVE",
"164 -29 OFFCURVE",
"173 -31 CURVE",
"173 -19 OFFCURVE",
"174 -7 OFFCURVE",
"173 4 CURVE SMOOTH",
"172 31 OFFCURVE",
"170 57 OFFCURVE",
"170 83 CURVE SMOOTH",
"169 120 OFFCURVE",
"169 157 OFFCURVE",
"168 194 CURVE SMOOTH",
"167 225 OFFCURVE",
"165 255 OFFCURVE",
"164 286 CURVE SMOOTH",
"163 318 OFFCURVE",
"163 351 OFFCURVE",
"164 384 CURVE SMOOTH",
"164 397 OFFCURVE",
"162 405 OFFCURVE",
"147 406 CURVE SMOOTH",
"140 407 OFFCURVE",
"132 409 OFFCURVE",
"125 408 CURVE SMOOTH",
"115 408 OFFCURVE",
"107 409 OFFCURVE",
"104 423 CURVE",
"85 407 OFFCURVE",
"64 418 OFFCURVE",
"43 419 CURVE",
"45 411 OFFCURVE",
"47 403 OFFCURVE",
"47 396 CURVE SMOOTH",
"48 374 OFFCURVE",
"47 352 OFFCURVE",
"48 331 CURVE SMOOTH",
"48 326 OFFCURVE",
"50 320 OFFCURVE",
"51 315 CURVE SMOOTH",
"54 308 OFFCURVE",
"49 304 OFFCURVE",
"43 302 CURVE SMOOTH",
"39 301 OFFCURVE",
"34 301 OFFCURVE",
"30 301 CURVE",
"29 300 OFFCURVE",
"29 299 OFFCURVE",
"28 297 CURVE",
"32 296 OFFCURVE",
"36 294 OFFCURVE",
"41 292 CURVE",
"46 269 OFFCURVE",
"54 246 OFFCURVE",
"53 221 CURVE SMOOTH",
"52 192 OFFCURVE",
"55 163 OFFCURVE",
"57 134 CURVE SMOOTH",
"58 118 OFFCURVE",
"60 103 OFFCURVE",
"62 87 CURVE SMOOTH",
"63 76 OFFCURVE",
"65 64 OFFCURVE",
"67 53 CURVE SMOOTH",
"68 50 OFFCURVE",
"70 47 OFFCURVE",
"73 46 CURVE SMOOTH",
"81 43 OFFCURVE",
"90 39 OFFCURVE",
"98 36 CURVE SMOOTH",
"107 34 OFFCURVE",
"106 27 OFFCURVE",
"104 21 CURVE SMOOTH",
"100 7 OFFCURVE",
"96 -7 OFFCURVE",
"91 -21 CURVE SMOOTH",
"90 -24 OFFCURVE",
"87 -27 OFFCURVE",
"85 -29 CURVE SMOOTH",
"81 -33 OFFCURVE",
"77 -36 OFFCURVE",
"74 -38 CURVE",
"68 -39 OFFCURVE",
"62 -41 OFFCURVE",
"57 -39 CURVE SMOOTH",
"51 -36 OFFCURVE",
"43 -32 OFFCURVE",
"39 -26 CURVE SMOOTH",
"34 -17 OFFCURVE",
"31 -6 OFFCURVE",
"28 4 CURVE SMOOTH",
"26 9 OFFCURVE",
"24 15 OFFCURVE",
"24 21 CURVE SMOOTH",
"20 43 OFFCURVE",
"17 65 OFFCURVE",
"13 86 CURVE SMOOTH",
"5 138 OFFCURVE",
"4 190 OFFCURVE",
"4 242 CURVE SMOOTH",
"3 280 OFFCURVE",
"1 318 OFFCURVE",
"-1 356 CURVE SMOOTH",
"-3 383 OFFCURVE",
"-4 409 OFFCURVE",
"-6 436 CURVE SMOOTH",
"-7 455 OFFCURVE",
"-9 474 OFFCURVE",
"-11 493 CURVE SMOOTH",
"-12 514 OFFCURVE",
"-13 535 OFFCURVE",
"-16 555 CURVE SMOOTH",
"-18 574 OFFCURVE",
"-22 592 OFFCURVE",
"-25 611 CURVE SMOOTH",
"-25 611 OFFCURVE",
"-25 612 OFFCURVE",
"-25 613 CURVE SMOOTH",
"-27 638 OFFCURVE",
"-28 664 OFFCURVE",
"-30 689 CURVE SMOOTH",
"-32 711 OFFCURVE",
"-36 732 OFFCURVE",
"-39 753 CURVE SMOOTH",
"-39 755 OFFCURVE",
"-39 756 OFFCURVE",
"-39 758 CURVE SMOOTH",
"-39 791 OFFCURVE",
"-39 824 OFFCURVE",
"-39 857 CURVE",
"-30 860 OFFCURVE",
"-21 860 OFFCURVE",
"-19 872 CURVE SMOOTH",
"-18 874 OFFCURVE",
"-9 876 OFFCURVE",
"-6 874 CURVE SMOOTH",
"4 869 OFFCURVE",
"10 861 OFFCURVE",
"9 848 CURVE SMOOTH",
"8 840 OFFCURVE",
"8 831 OFFCURVE",
"9 823 CURVE SMOOTH",
"11 784 OFFCURVE",
"11 745 OFFCURVE",
"15 706 CURVE SMOOTH",
"17 683 OFFCURVE",
"21 659 OFFCURVE",
"25 636 CURVE SMOOTH",
"27 621 OFFCURVE",
"26 606 OFFCURVE",
"28 590 CURVE SMOOTH",
"31 570 OFFCURVE",
"35 551 OFFCURVE",
"37 531 CURVE SMOOTH",
"38 521 OFFCURVE",
"37 511 OFFCURVE",
"38 501 CURVE SMOOTH",
"38 494 OFFCURVE",
"22 497 OFFCURVE",
"29 487 CURVE SMOOTH",
"32 483 OFFCURVE",
"37 480 OFFCURVE",
"41 475 CURVE SMOOTH",
"43 473 OFFCURVE",
"43 470 OFFCURVE",
"44 468 CURVE",
"64 466 OFFCURVE",
"84 464 OFFCURVE",
"104 461 CURVE SMOOTH",
"118 459 OFFCURVE",
"132 455 OFFCURVE",
"147 453 CURVE SMOOTH",
"155 452 OFFCURVE",
"159 457 OFFCURVE",
"159 466 CURVE SMOOTH",
"157 486 OFFCURVE",
"155 507 OFFCURVE",
"154 528 CURVE SMOOTH",
"154 546 OFFCURVE",
"155 565 OFFCURVE",
"154 584 CURVE SMOOTH",
"153 613 OFFCURVE",
"150 642 OFFCURVE",
"149 671 CURVE SMOOTH",
"147 703 OFFCURVE",
"146 735 OFFCURVE",
"144 768 CURVE SMOOTH",
"142 796 OFFCURVE",
"139 824 OFFCURVE",
"137 852 CURVE SMOOTH",
"137 857 OFFCURVE",
"130 930 OFFCURVE",
"179 921 CURVE SMOOTH",
"195 918 OFFCURVE",
"190 894 OFFCURVE",
"184 879 CURVE SMOOTH",
"183 877 OFFCURVE",
"184 873 OFFCURVE",
"185 871 CURVE SMOOTH",
"186 868 OFFCURVE",
"188 866 OFFCURVE",
"187 864 CURVE SMOOTH",
"179 847 OFFCURVE",
"189 831 OFFCURVE",
"188 814 CURVE SMOOTH",
"188 784 OFFCURVE",
"191 753 OFFCURVE",
"193 723 CURVE SMOOTH",
"194 696 OFFCURVE",
"196 669 OFFCURVE",
"197 642 CURVE SMOOTH",
"199 617 OFFCURVE",
"201 591 OFFCURVE",
"202 565 CURVE SMOOTH",
"204 531 OFFCURVE",
"206 496 OFFCURVE",
"207 462 CURVE SMOOTH",
"208 459 OFFCURVE",
"208 457 OFFCURVE",
"209 452 CURVE",
"219 452 OFFCURVE",
"228 451 OFFCURVE",
"238 452 CURVE SMOOTH",
"247 453 OFFCURVE",
"257 444 OFFCURVE",
"261 434 CURVE SMOOTH",
"265 423 OFFCURVE",
"261 412 OFFCURVE",
"260 401 CURVE SMOOTH",
"260 397 OFFCURVE",
"255 392 OFFCURVE",
"251 390 CURVE SMOOTH",
"239 384 OFFCURVE",
"225 378 OFFCURVE",
"212 373 CURVE",
"213 350 OFFCURVE",
"216 328 OFFCURVE",
"216 305 CURVE SMOOTH",
"217 266 OFFCURVE",
"216 227 OFFCURVE",
"216 188 CURVE SMOOTH",
"217 173 OFFCURVE",
"220 158 OFFCURVE",
"221 144 CURVE SMOOTH",
"221 138 OFFCURVE",
"217 133 OFFCURVE",
"218 128 CURVE SMOOTH",
"218 119 OFFCURVE",
"221 110 OFFCURVE",
"221 102 CURVE SMOOTH",
"221 59 OFFCURVE",
"221 17 OFFCURVE",
"221 -25 CURVE SMOOTH",
"222 -47 OFFCURVE",
"221 -68 OFFCURVE",
"222 -90 CURVE SMOOTH",
"222 -98 OFFCURVE",
"226 -106 OFFCURVE",
"226 -115 CURVE SMOOTH",
"226 -124 OFFCURVE",
"223 -133 OFFCURVE",
"222 -143 CURVE SMOOTH",
"222 -152 OFFCURVE",
"219 -162 OFFCURVE",
"223 -170 CURVE SMOOTH",
"227 -179 OFFCURVE",
"224 -183 OFFCURVE",
"218 -186 CURVE SMOOTH",
"208 -192 OFFCURVE",
"214 -195 OFFCURVE",
"223 -200 CURVE",
"215 -200 OFFCURVE",
"209 -200 OFFCURVE",
"204 -201 CURVE SMOOTH",
"198 -202 OFFCURVE",
"192 -205 OFFCURVE",
"187 -205 CURVE SMOOTH",
"182 -205 OFFCURVE",
"177 -203 OFFCURVE",
"174 -200 CURVE SMOOTH",
"159 -187 OFFCURVE",
"159 -167 OFFCURVE",
"154 -150 CURVE SMOOTH",
"150 -135 OFFCURVE",
"147 -120 OFFCURVE",
"144 -104 CURVE SMOOTH",
"142 -94 OFFCURVE",
"142 -83 OFFCURVE",
"139 -73 CURVE SMOOTH",
"137 -66 OFFCURVE",
"132 -59 OFFCURVE",
"128 -52 CURVE SMOOTH",
"123 -40 OFFCURVE",
"125 -36 OFFCURVE",
"136 -30 CURVE SMOOTH",
"141 -28 OFFCURVE",
"145 -25 OFFCURVE",
"152 -21 CURVE"
);
}
);
width = 300;
}
);
unicode = 0048;
},
{
glyphname = I;
lastChange = "2020-11-22 11:00:41 +0000";
layers = (
{
layerId = "686D85FA-502B-420B-8C81-C7709808E604";
paths = (
{
closed = 1;
nodes = (
"31 633 OFFCURVE",
"20 629 OFFCURVE",
"9 626 CURVE SMOOTH",
"4 624 OFFCURVE",
"-3 623 OFFCURVE",
"-7 624 CURVE SMOOTH",
"-12 626 OFFCURVE",
"-17 631 OFFCURVE",
"-18 635 CURVE SMOOTH",
"-20 641 OFFCURVE",
"-19 648 OFFCURVE",
"-19 655 CURVE SMOOTH",
"-19 674 OFFCURVE",
"-11 681 OFFCURVE",
"8 682 CURVE SMOOTH",
"17 682 OFFCURVE",
"25 685 OFFCURVE",
"35 687 CURVE",
"35 714 OFFCURVE",
"35 740 OFFCURVE",
"35 767 CURVE SMOOTH",
"34 780 OFFCURVE",
"42 788 OFFCURVE",
"55 787 CURVE SMOOTH",
"58 787 OFFCURVE",
"60 787 OFFCURVE",
"63 787 CURVE SMOOTH",
"79 788 OFFCURVE",
"85 780 OFFCURVE",
"84 763 CURVE SMOOTH",
"83 749 OFFCURVE",
"83 735 OFFCURVE",
"84 721 CURVE SMOOTH",
"84 715 OFFCURVE",
"87 709 OFFCURVE",
"90 701 CURVE",
"104 706 OFFCURVE",
"119 712 OFFCURVE",
"134 715 CURVE SMOOTH",
"150 718 OFFCURVE",
"167 721 OFFCURVE",
"184 719 CURVE SMOOTH",
"197 718 OFFCURVE",
"205 706 OFFCURVE",
"209 693 CURVE SMOOTH",
"214 675 OFFCURVE",
"197 649 OFFCURVE",
"178 647 CURVE SMOOTH",
"170 646 OFFCURVE",
"164 648 OFFCURVE",
"161 656 CURVE SMOOTH",
"158 666 OFFCURVE",
"155 668 OFFCURVE",
"144 664 CURVE SMOOTH",
"128 658 OFFCURVE",
"111 655 OFFCURVE",
"92 651 CURVE",
"93 643 OFFCURVE",
"95 634 OFFCURVE",
"96 626 CURVE SMOOTH",
"97 625 OFFCURVE",
"97 624 OFFCURVE",
"97 622 CURVE SMOOTH",
"99 606 OFFCURVE",
"101 589 OFFCURVE",
"102 572 CURVE SMOOTH",
"104 554 OFFCURVE",
"106 535 OFFCURVE",
"107 517 CURVE SMOOTH",
"109 504 OFFCURVE",
"111 491 OFFCURVE",
"112 477 CURVE SMOOTH",
"114 460 OFFCURVE",
"113 442 OFFCURVE",
"118 426 CURVE SMOOTH",
"124 405 OFFCURVE",
"118 384 OFFCURVE",
"122 363 CURVE SMOOTH",
"127 340 OFFCURVE",
"129 317 OFFCURVE",
"126 295 CURVE SMOOTH",
"123 275 OFFCURVE",
"132 257 OFFCURVE",
"131 238 CURVE SMOOTH",
"131 188 OFFCURVE",
"131 138 OFFCURVE",
"131 88 CURVE SMOOTH",
"131 67 OFFCURVE",
"131 46 OFFCURVE",
"131 22 CURVE",
"142 26 OFFCURVE",
"152 29 OFFCURVE",
"161 32 CURVE SMOOTH",
"168 34 OFFCURVE",
"174 36 OFFCURVE",
"181 38 CURVE SMOOTH",
"195 43 OFFCURVE",
"210 47 OFFCURVE",
"224 52 CURVE SMOOTH",
"231 54 OFFCURVE",
"258 52 OFFCURVE",
"261 47 CURVE SMOOTH",
"265 37 OFFCURVE",
"267 26 OFFCURVE",
"268 16 CURVE SMOOTH",
"269 4 OFFCURVE",
"262 -4 OFFCURVE",
"251 -10 CURVE SMOOTH",
"248 -12 OFFCURVE",
"245 -14 OFFCURVE",
"241 -16 CURVE SMOOTH",
"233 -21 OFFCURVE",
"227 -22 OFFCURVE",
"222 -12 CURVE SMOOTH",
"219 -8 OFFCURVE",
"216 -4 OFFCURVE",
"208 -8 CURVE SMOOTH",
"193 -15 OFFCURVE",
"176 -16 OFFCURVE",
"160 -20 CURVE SMOOTH",
"153 -22 OFFCURVE",
"145 -23 OFFCURVE",
"138 -26 CURVE SMOOTH",
"135 -28 OFFCURVE",
"132 -34 OFFCURVE",
"132 -38 CURVE SMOOTH",
"131 -57 OFFCURVE",
"132 -77 OFFCURVE",
"131 -97 CURVE SMOOTH",
"131 -106 OFFCURVE",
"128 -115 OFFCURVE",
"126 -124 CURVE SMOOTH",
"125 -126 OFFCURVE",
"121 -130 OFFCURVE",
"118 -130 CURVE SMOOTH",
"108 -131 OFFCURVE",
"96 -133 OFFCURVE",
"86 -130 CURVE SMOOTH",
"81 -128 OFFCURVE",
"77 -118 OFFCURVE",
"74 -112 CURVE SMOOTH",
"73 -110 OFFCURVE",
"74 -107 OFFCURVE",
"73 -104 CURVE SMOOTH",
"72 -91 OFFCURVE",
"70 -77 OFFCURVE",
"69 -63 CURVE SMOOTH",
"68 -57 OFFCURVE",
"67 -52 OFFCURVE",
"67 -45 CURVE",
"64 -44 OFFCURVE",
"59 -43 OFFCURVE",
"56 -44 CURVE SMOOTH",
"40 -51 OFFCURVE",
"21 -46 OFFCURVE",
"6 -55 CURVE SMOOTH",
"0 -59 OFFCURVE",
"-8 -59 OFFCURVE",
"-15 -58 CURVE SMOOTH",
"-23 -57 OFFCURVE",
"-30 -53 OFFCURVE",
"-28 -42 CURVE SMOOTH",
"-27 -35 OFFCURVE",
"-30 -27 OFFCURVE",
"-28 -21 CURVE SMOOTH",
"-25 -7 OFFCURVE",
"-12 -3 OFFCURVE",
"0 -1 CURVE SMOOTH",
"10 1 OFFCURVE",
"20 3 OFFCURVE",
"30 4 CURVE SMOOTH",
"44 6 OFFCURVE",
"58 8 OFFCURVE",
"72 9 CURVE SMOOTH",
"79 9 OFFCURVE",
"81 12 OFFCURVE",
"82 19 CURVE SMOOTH",
"82 39 OFFCURVE",
"83 58 OFFCURVE",
"83 77 CURVE SMOOTH",
"83 106 OFFCURVE",
"84 135 OFFCURVE",
"83 164 CURVE SMOOTH",
"82 207 OFFCURVE",
"80 251 OFFCURVE",
"78 294 CURVE SMOOTH",
"77 325 OFFCURVE",
"76 355 OFFCURVE",
"73 385 CURVE SMOOTH",
"71 406 OFFCURVE",
"67 427 OFFCURVE",
"64 448 CURVE SMOOTH",
"64 449 OFFCURVE",
"64 451 OFFCURVE",
"64 452 CURVE SMOOTH",
"62 474 OFFCURVE",
"61 496 OFFCURVE",
"59 518 CURVE SMOOTH",
"56 544 OFFCURVE",
"53 571 OFFCURVE",
"49 597 CURVE SMOOTH",
"47 610 OFFCURVE",
"44 623 OFFCURVE",
"42 637 CURVE"
);
}
);
width = 300;
}
);
unicode = 0049;
},
{
glyphname = J;
lastChange = "2020-11-22 11:01:56 +0000";
layers = (
{
layerId = "686D85FA-502B-420B-8C81-C7709808E604";
paths = (
{
closed = 1;
nodes = (
"271 450 OFFCURVE",
"265 446 OFFCURVE",
"259 444 CURVE",
"248 442 OFFCURVE",
"247 435 OFFCURVE",
"247 426 CURVE",
"248 416 OFFCURVE",
"247 407 OFFCURVE",
"247 398 CURVE",
"249 375 OFFCURVE",
"250 353 OFFCURVE",
"252 330 CURVE",
"254 312 OFFCURVE",
"255 294 OFFCURVE",
"257 276 CURVE",
"258 258 OFFCURVE",
"261 240 OFFCURVE",
"261 222 CURVE",
"262 197 OFFCURVE",
"262 173 OFFCURVE",
"262 148 CURVE",
"262 118 OFFCURVE",
"256 88 OFFCURVE",
"242 61 CURVE",
"242 60 OFFCURVE",
"242 58 OFFCURVE",
"241 58 CURVE",
"231 51 OFFCURVE",
"221 43 OFFCURVE",
"210 37 CURVE",
"198 29 OFFCURVE",
"185 32 OFFCURVE",
"172 35 CURVE",
"137 42 OFFCURVE",
"112 66 OFFCURVE",
"90 91 CURVE",
"80 103 OFFCURVE",
"77 120 OFFCURVE",
"67 133 CURVE",
"55 150 OFFCURVE",
"56 171 OFFCURVE",
"50 190 CURVE",
"47 198 OFFCURVE",
"52 208 OFFCURVE",
"53 217 CURVE",
"53 233 OFFCURVE",
"63 244 OFFCURVE",
"67 258 CURVE",
"74 278 OFFCURVE",
"90 290 OFFCURVE",
"105 302 CURVE",
"121 315 OFFCURVE",
"141 266 OFFCURVE",
"160 276 CURVE",
"170 281 OFFCURVE",
"194 293 OFFCURVE",
"204 299 CURVE",
"211 301 OFFCURVE",
"200 353 OFFCURVE",
"199 361 CURVE",
"197 385 OFFCURVE",
"196 409 OFFCURVE",
"195 436 CURVE",
"182 433 OFFCURVE",
"172 432 OFFCURVE",
"161 430 CURVE",
"150 428 OFFCURVE",
"140 426 OFFCURVE",
"129 424 CURVE",
"115 422 OFFCURVE",
"102 422 OFFCURVE",
"89 419 CURVE",
"69 415 OFFCURVE",
"49 409 OFFCURVE",
"29 405 CURVE",
"17 403 OFFCURVE",
"4 401 OFFCURVE",
"-9 400 CURVE",
"-13 400 OFFCURVE",
"-18 405 OFFCURVE",
"-19 408 CURVE",
"-21 416 OFFCURVE",
"-22 425 OFFCURVE",
"-22 434 CURVE",
"-22 443 OFFCURVE",
"-16 450 OFFCURVE",
"-8 452 CURVE",
"2 455 OFFCURVE",
"12 456 OFFCURVE",
"22 458 CURVE",
"37 461 OFFCURVE",
"51 464 OFFCURVE",
"66 467 CURVE",
"68 467 OFFCURVE",
"70 467 OFFCURVE",
"72 468 CURVE",
"88 471 OFFCURVE",
"104 474 OFFCURVE",
"119 477 CURVE",
"121 477 OFFCURVE",
"122 477 OFFCURVE",
"123 477 CURVE",
"138 479 OFFCURVE",
"154 479 OFFCURVE",
"168 483 CURVE",
"191 488 OFFCURVE",
"214 492 OFFCURVE",
"238 492 CURVE",
"239 492 OFFCURVE",
"241 495 OFFCURVE",
"243 497 CURVE",
"244 497 OFFCURVE",
"246 497 OFFCURVE",
"248 497 CURVE",
"250 495 OFFCURVE",
"252 494 OFFCURVE",
"254 492 CURVE",
"258 487 OFFCURVE",
"266 481 OFFCURVE",
"266 476 CURVE",
"266 467 OFFCURVE",
"270 462 OFFCURVE",
"277 458 CURVE",
"277 457 OFFCURVE",
"277 455 OFFCURVE",
"277 454 CURVE"
);
},
{
closed = 1;
nodes = (
"181 286 OFFCURVE",
"159 277 OFFCURVE",
"140 264 CURVE SMOOTH",
"120 250 OFFCURVE",
"101 233 OFFCURVE",
"102 204 CURVE SMOOTH",
"103 193 OFFCURVE",
"104 181 OFFCURVE",
"107 170 CURVE SMOOTH",
"117 131 OFFCURVE",
"141 103 OFFCURVE",
"177 85 CURVE SMOOTH",
"191 79 OFFCURVE",
"198 82 OFFCURVE",
"204 96 CURVE SMOOTH",
"214 122 OFFCURVE",
"215 150 OFFCURVE",
"214 177 CURVE SMOOTH",
"211 208 OFFCURVE",
"210 240 OFFCURVE",
"208 271 CURVE SMOOTH",
"208 280 OFFCURVE",
"205 288 OFFCURVE",
"204 299 CURVE"
);
}
);
width = 300;
}
);
unicode = 004A;
},
{
glyphname = K;
lastChange = "2020-11-22 11:02:01 +0000";
layers = (
{
layerId = "686D85FA-502B-420B-8C81-C7709808E604";
paths = (
{
closed = 1;
nodes = (
"61 465 OFFCURVE",
"68 475 OFFCURVE",
"74 486 CURVE SMOOTH",
"109 553 OFFCURVE",
"145 621 OFFCURVE",
"179 689 CURVE SMOOTH",
"186 701 OFFCURVE",
"190 715 OFFCURVE",
"194 728 CURVE SMOOTH",
"196 736 OFFCURVE",
"200 738 OFFCURVE",
"207 740 CURVE SMOOTH",
"214 741 OFFCURVE",
"221 743 OFFCURVE",
"228 744 CURVE SMOOTH",
"230 744 OFFCURVE",
"232 744 OFFCURVE",
"234 743 CURVE SMOOTH",
"244 734 OFFCURVE",
"247 719 OFFCURVE",
"241 705 CURVE SMOOTH",
"219 660 OFFCURVE",
"199 614 OFFCURVE",
"176 569 CURVE SMOOTH",
"161 539 OFFCURVE",
"143 509 OFFCURVE",
"126 479 CURVE SMOOTH",
"119 465 OFFCURVE",
"112 452 OFFCURVE",
"105 438 CURVE SMOOTH",
"93 415 OFFCURVE",
"80 392 OFFCURVE",
"69 368 CURVE SMOOTH",
"67 365 OFFCURVE",
"68 359 OFFCURVE",
"70 356 CURVE SMOOTH",
"85 337 OFFCURVE",
"101 318 OFFCURVE",
"117 299 CURVE SMOOTH",
"130 282 OFFCURVE",
"143 264 OFFCURVE",
"156 246 CURVE SMOOTH",
"178 213 OFFCURVE",
"201 181 OFFCURVE",
"223 148 CURVE SMOOTH",
"232 136 OFFCURVE",
"241 123 OFFCURVE",
"248 110 CURVE SMOOTH",
"250 105 OFFCURVE",
"258 100 OFFCURVE",
"251 93 CURVE SMOOTH",
"250 93 OFFCURVE",
"253 89 OFFCURVE",
"254 88 CURVE SMOOTH",
"258 84 OFFCURVE",
"263 82 OFFCURVE",
"267 79 CURVE",
"257 67 OFFCURVE",
"261 54 OFFCURVE",
"274 54 CURVE SMOOTH",
"288 54 OFFCURVE",
"292 43 OFFCURVE",
"297 35 CURVE SMOOTH",
"307 20 OFFCURVE",
"314 2 OFFCURVE",
"322 -14 CURVE SMOOTH",
"331 -31 OFFCURVE",
"330 -37 OFFCURVE",
"315 -48 CURVE SMOOTH",
"307 -53 OFFCURVE",
"302 -63 OFFCURVE",
"290 -59 CURVE SMOOTH",
"288 -58 OFFCURVE",
"285 -58 OFFCURVE",
"283 -56 CURVE SMOOTH",
"274 -47 OFFCURVE",
"265 -37 OFFCURVE",
"257 -26 CURVE SMOOTH",
"255 -24 OFFCURVE",
"253 -17 OFFCURVE",
"255 -14 CURVE SMOOTH",
"265 1 OFFCURVE",
"255 10 OFFCURVE",
"246 19 CURVE SMOOTH",
"246 20 OFFCURVE",
"245 21 OFFCURVE",
"245 22 CURVE",
"248 26 OFFCURVE",
"252 30 OFFCURVE",
"255 33 CURVE",
"254 34 OFFCURVE",
"254 35 OFFCURVE",
"253 36 CURVE",
"249 34 OFFCURVE",
"245 32 OFFCURVE",
"241 30 CURVE",
"241 32 OFFCURVE",
"240 34 OFFCURVE",
"240 35 CURVE SMOOTH",
"246 44 OFFCURVE",
"247 49 OFFCURVE",
"234 48 CURVE SMOOTH",
"232 48 OFFCURVE",
"230 50 OFFCURVE",
"229 52 CURVE SMOOTH",
"214 74 OFFCURVE",
"199 97 OFFCURVE",
"184 120 CURVE SMOOTH",
"182 123 OFFCURVE",
"183 128 OFFCURVE",
"182 132 CURVE",
"180 132 OFFCURVE",
"177 132 OFFCURVE",
"176 132 CURVE",
"163 149 OFFCURVE",
"152 165 OFFCURVE",
"139 181 CURVE",
"142 186 OFFCURVE",
"148 193 OFFCURVE",
"134 194 CURVE SMOOTH",
"131 194 OFFCURVE",
"127 198 OFFCURVE",
"124 201 CURVE SMOOTH",
"104 229 OFFCURVE",
"84 257 OFFCURVE",
"61 287 CURVE",
"62 269 OFFCURVE",
"58 255 OFFCURVE",
"64 239 CURVE SMOOTH",
"68 231 OFFCURVE",
"65 221 OFFCURVE",
"66 211 CURVE SMOOTH",
"67 144 OFFCURVE",
"69 78 OFFCURVE",
"71 11 CURVE SMOOTH",
"71 -15 OFFCURVE",
"73 -41 OFFCURVE",
"75 -67 CURVE SMOOTH",
"76 -81 OFFCURVE",
"78 -95 OFFCURVE",
"80 -109 CURVE SMOOTH",
"83 -125 OFFCURVE",
"86 -140 OFFCURVE",
"89 -155 CURVE SMOOTH",
"90 -157 OFFCURVE",
"89 -158 OFFCURVE",
"90 -160 CURVE SMOOTH",
"93 -179 OFFCURVE",
"96 -198 OFFCURVE",
"99 -217 CURVE SMOOTH",
"100 -232 OFFCURVE",
"102 -247 OFFCURVE",
"90 -259 CURVE SMOOTH",
"80 -269 OFFCURVE",
"65 -272 OFFCURVE",
"52 -268 CURVE SMOOTH",
"18 -260 OFFCURVE",
"7 -231 OFFCURVE",
"-7 -205 CURVE SMOOTH",
"-10 -198 OFFCURVE",
"-10 -190 OFFCURVE",
"1 -187 CURVE SMOOTH",
"6 -186 OFFCURVE",
"12 -182 OFFCURVE",
"16 -179 CURVE SMOOTH",
"26 -171 OFFCURVE",
"33 -173 OFFCURVE",
"39 -186 CURVE",
"40 -183 OFFCURVE",
"41 -182 OFFCURVE",
"41 -181 CURVE SMOOTH",
"39 -169 OFFCURVE",
"38 -157 OFFCURVE",
"36 -145 CURVE SMOOTH",
"34 -138 OFFCURVE",
"33 -132 OFFCURVE",
"32 -125 CURVE SMOOTH",
"29 -98 OFFCURVE",
"26 -71 OFFCURVE",
"23 -44 CURVE SMOOTH",
"23 -42 OFFCURVE",
"22 -40 OFFCURVE",
"22 -39 CURVE SMOOTH",
"21 2 OFFCURVE",
"19 44 OFFCURVE",
"17 85 CURVE SMOOTH",
"15 158 OFFCURVE",
"14 230 OFFCURVE",
"11 303 CURVE SMOOTH",
"11 318 OFFCURVE",
"6 332 OFFCURVE",
"3 347 CURVE SMOOTH",
"2 349 OFFCURVE",
"2 352 OFFCURVE",
"3 354 CURVE SMOOTH",
"12 372 OFFCURVE",
"8 389 OFFCURVE",
"4 407 CURVE SMOOTH",
"3 412 OFFCURVE",
"3 417 OFFCURVE",
"3 422 CURVE SMOOTH",
"1 465 OFFCURVE",
"0 509 OFFCURVE",
"-2 553 CURVE SMOOTH",
"-3 576 OFFCURVE",
"-5 598 OFFCURVE",
"-7 621 CURVE SMOOTH",
"-10 647 OFFCURVE",
"-13 674 OFFCURVE",
"-16 700 CURVE SMOOTH",
"-16 702 OFFCURVE",
"-16 703 OFFCURVE",
"-16 704 CURVE SMOOTH",
"-18 735 OFFCURVE",
"-19 766 OFFCURVE",
"-22 797 CURVE SMOOTH",
"-23 813 OFFCURVE",
"-27 829 OFFCURVE",
"-29 845 CURVE SMOOTH",
"-29 849 OFFCURVE",
"-28 855 OFFCURVE",
"-25 856 CURVE SMOOTH",
"-15 861 OFFCURVE",
"-4 868 OFFCURVE",
"7 869 CURVE SMOOTH",
"17 871 OFFCURVE",
"20 858 OFFCURVE",
"22 850 CURVE SMOOTH",
"25 833 OFFCURVE",
"26 815 OFFCURVE",
"27 798 CURVE SMOOTH",
"29 779 OFFCURVE",
"28 759 OFFCURVE",
"32 741 CURVE SMOOTH",
"38 720 OFFCURVE",
"35 700 OFFCURVE",
"37 679 CURVE SMOOTH",
"38 656 OFFCURVE",
"37 633 OFFCURVE",
"42 611 CURVE SMOOTH",
"48 587 OFFCURVE",
"44 565 OFFCURVE",
"46 542 CURVE SMOOTH",
"49 513 OFFCURVE",
"51 484 OFFCURVE",
"54 452 CURVE"
);
}
);
width = 300;
}
);
unicode = 004B;
},
{
glyphname = L;
lastChange = "2020-11-22 11:02:08 +0000";
layers = (
{
layerId = "686D85FA-502B-420B-8C81-C7709808E604";
paths = (
{
closed = 1;
nodes = (
"33 532 OFFCURVE",
"44 523 OFFCURVE",
"36 509 CURVE SMOOTH",
"34 506 OFFCURVE",
"35 501 OFFCURVE",
"35 497 CURVE SMOOTH",
"35 449 OFFCURVE",
"31 401 OFFCURVE",
"36 354 CURVE SMOOTH",
"41 308 OFFCURVE",
"38 262 OFFCURVE",
"40 216 CURVE SMOOTH",
"41 206 OFFCURVE",
"46 203 OFFCURVE",
"55 207 CURVE SMOOTH",
"58 208 OFFCURVE",
"62 209 OFFCURVE",
"65 209 CURVE SMOOTH",
"87 209 OFFCURVE",
"109 210 OFFCURVE",
"130 209 CURVE SMOOTH",
"152 207 OFFCURVE",
"172 199 OFFCURVE",
"189 187 CURVE SMOOTH",
"201 179 OFFCURVE",
"201 171 OFFCURVE",
"191 159 CURVE SMOOTH",
"189 157 OFFCURVE",
"187 154 OFFCURVE",
"185 152 CURVE SMOOTH",
"172 138 OFFCURVE",
"172 139 OFFCURVE",
"156 149 CURVE SMOOTH",
"151 152 OFFCURVE",
"145 155 OFFCURVE",
"139 155 CURVE SMOOTH",
"117 157 OFFCURVE",
"95 164 OFFCURVE",
"72 158 CURVE SMOOTH",
"56 153 OFFCURVE",
"41 148 OFFCURVE",
"26 142 CURVE SMOOTH",
"14 137 OFFCURVE",
"-7 152 OFFCURVE",
"-8 166 CURVE SMOOTH",
"-8 167 OFFCURVE",
"-8 168 OFFCURVE",
"-8 169 CURVE SMOOTH",
"-10 285 OFFCURVE",
"-12 402 OFFCURVE",
"-13 518 CURVE SMOOTH",
"-13 537 OFFCURVE",
"-4 544 OFFCURVE",
"16 540 CURVE SMOOTH",
"20 540 OFFCURVE",
"24 542 OFFCURVE",
"29 543 CURVE"
);
}
);
width = 200;
}
);
unicode = 004C;
},
{
glyphname = M;
lastChange = "2020-11-22 11:02:19 +0000";
layers = (
{
layerId = "686D85FA-502B-420B-8C81-C7709808E604";
paths = (
{
closed = 1;
nodes = (
"368 590 OFFCURVE",
"365 587 OFFCURVE",
"365 579 CURVE SMOOTH",
"366 568 OFFCURVE",
"365 557 OFFCURVE",
"366 547 CURVE SMOOTH",
"367 528 OFFCURVE",
"364 511 OFFCURVE",
"358 493 CURVE SMOOTH",
"356 489 OFFCURVE",
"359 483 OFFCURVE",
"359 478 CURVE SMOOTH",
"360 471 OFFCURVE",
"361 464 OFFCURVE",
"361 458 CURVE SMOOTH",
"359 436 OFFCURVE",
"357 415 OFFCURVE",
"356 393 CURVE SMOOTH",
"355 387 OFFCURVE",
"359 378 OFFCURVE",
"349 375 CURVE SMOOTH",
"348 375 OFFCURVE",
"347 371 OFFCURVE",
"347 370 CURVE SMOOTH",
"354 341 OFFCURVE",
"352 312 OFFCURVE",
"347 282 CURVE SMOOTH",
"344 269 OFFCURVE",
"346 254 OFFCURVE",
"346 240 CURVE SMOOTH",
"346 222 OFFCURVE",
"349 203 OFFCURVE",
"346 186 CURVE SMOOTH",
"337 149 OFFCURVE",
"345 112 OFFCURVE",
"341 75 CURVE SMOOTH",
"340 58 OFFCURVE",
"344 44 OFFCURVE",
"352 29 CURVE SMOOTH",
"357 22 OFFCURVE",
"360 12 OFFCURVE",
"360 3 CURVE SMOOTH",
"360 -21 OFFCURVE",
"358 -45 OFFCURVE",
"355 -68 CURVE SMOOTH",
"354 -78 OFFCURVE",
"349 -88 OFFCURVE",
"335 -87 CURVE SMOOTH",
"330 -87 OFFCURVE",
"324 -90 OFFCURVE",
"318 -91 CURVE",
"295 -74 OFFCURVE",
"300 -46 OFFCURVE",
"295 -22 CURVE",
"298 -20 OFFCURVE",
"302 -19 OFFCURVE",
"305 -17 CURVE",
"305 -16 OFFCURVE",
"305 -15 OFFCURVE",
"305 -15 CURVE SMOOTH",
"292 -5 OFFCURVE",
"290 10 OFFCURVE",
"289 24 CURVE SMOOTH",
"287 47 OFFCURVE",
"288 69 OFFCURVE",
"289 92 CURVE SMOOTH",
"290 131 OFFCURVE",
"291 170 OFFCURVE",
"293 209 CURVE SMOOTH",
"296 274 OFFCURVE",
"300 339 OFFCURVE",
"303 404 CURVE SMOOTH",
"304 423 OFFCURVE",
"306 442 OFFCURVE",
"308 461 CURVE SMOOTH",
"309 486 OFFCURVE",
"311 512 OFFCURVE",
"313 537 CURVE SMOOTH",
"315 571 OFFCURVE",
"316 605 OFFCURVE",
"318 639 CURVE SMOOTH",
"318 641 OFFCURVE",
"317 642 OFFCURVE",
"314 644 CURVE",
"310 632 OFFCURVE",
"307 619 OFFCURVE",
"303 607 CURVE SMOOTH",
"296 589 OFFCURVE",
"297 569 OFFCURVE",
"284 554 CURVE SMOOTH",
"281 549 OFFCURVE",
"280 542 OFFCURVE",
"278 536 CURVE",
"278 541 OFFCURVE",
"278 546 OFFCURVE",
"278 551 CURVE",
"277 551 OFFCURVE",
"276 552 OFFCURVE",
"275 552 CURVE",
"271 548 OFFCURVE",
"268 544 OFFCURVE",
"262 538 CURVE",
"270 537 OFFCURVE",
"274 537 OFFCURVE",
"279 537 CURVE",
"280 525 OFFCURVE",
"280 514 OFFCURVE",
"272 505 CURVE SMOOTH",
"269 502 OFFCURVE",
"266 500 OFFCURVE",
"263 498 CURVE SMOOTH",
"260 496 OFFCURVE",
"257 494 OFFCURVE",
"255 493 CURVE",
"258 491 OFFCURVE",
"261 490 OFFCURVE",
"264 488 CURVE SMOOTH",
"265 488 OFFCURVE",
"266 487 OFFCURVE",
"268 487 CURVE",
"270 477 OFFCURVE",
"268 469 OFFCURVE",
"258 463 CURVE SMOOTH",
"252 461 OFFCURVE",
"254 458 OFFCURVE",
"262 453 CURVE",
"258 436 OFFCURVE",
"254 419 OFFCURVE",
"249 402 CURVE SMOOTH",
"246 388 OFFCURVE",
"241 375 OFFCURVE",
"237 362 CURVE SMOOTH",
"232 347 OFFCURVE",
"227 331 OFFCURVE",
"221 316 CURVE SMOOTH",
"215 300 OFFCURVE",
"207 285 OFFCURVE",
"201 269 CURVE SMOOTH",
"194 253 OFFCURVE",
"188 236 OFFCURVE",
"181 219 CURVE",
"172 225 OFFCURVE",
"167 225 OFFCURVE",
"161 218 CURVE SMOOTH",
"157 212 OFFCURVE",
"143 215 OFFCURVE",
"140 223 CURVE SMOOTH",
"133 236 OFFCURVE",
"129 250 OFFCURVE",
"124 263 CURVE SMOOTH",
"119 277 OFFCURVE",
"115 291 OFFCURVE",
"111 305 CURVE SMOOTH",
"108 314 OFFCURVE",
"107 324 OFFCURVE",
"104 333 CURVE SMOOTH",
"101 348 OFFCURVE",
"97 362 OFFCURVE",
"93 377 CURVE SMOOTH",
"89 390 OFFCURVE",
"87 404 OFFCURVE",
"84 417 CURVE",
"104 426 OFFCURVE",
"90 442 OFFCURVE",
"95 453 CURVE",
"95 454 OFFCURVE",
"94 455 OFFCURVE",
"93 456 CURVE",
"87 454 OFFCURVE",
"82 452 OFFCURVE",
"77 450 CURVE",
"73 464 OFFCURVE",
"68 481 OFFCURVE",
"64 497 CURVE",
"63 497 OFFCURVE",
"62 497 OFFCURVE",
"61 498 CURVE",
"60 491 OFFCURVE",
"59 484 OFFCURVE",
"57 477 CURVE SMOOTH",
"57 477 OFFCURVE",
"58 476 OFFCURVE",
"57 476 CURVE SMOOTH",
"48 448 OFFCURVE",
"59 419 OFFCURVE",
"57 390 CURVE SMOOTH",
"54 361 OFFCURVE",
"57 331 OFFCURVE",
"56 302 CURVE SMOOTH",
"55 279 OFFCURVE",
"54 256 OFFCURVE",
"51 234 CURVE SMOOTH",
"48 210 OFFCURVE",
"41 187 OFFCURVE",
"37 163 CURVE SMOOTH",
"34 141 OFFCURVE",
"27 121 OFFCURVE",
"17 102 CURVE SMOOTH",
"13 94 OFFCURVE",
"6 88 OFFCURVE",
"1 82 CURVE SMOOTH",
"-4 75 OFFCURVE",
"-13 72 OFFCURVE",
"-12 62 CURVE SMOOTH",
"-12 59 OFFCURVE",
"-18 56 OFFCURVE",
"-21 53 CURVE SMOOTH",
"-24 52 OFFCURVE",
"-27 52 OFFCURVE",
"-30 51 CURVE SMOOTH",
"-49 44 OFFCURVE",
"-57 46 OFFCURVE",
"-60 72 CURVE SMOOTH",
"-60 77 OFFCURVE",
"-60 83 OFFCURVE",
"-60 88 CURVE SMOOTH",
"-62 105 OFFCURVE",
"-56 118 OFFCURVE",
"-38 122 CURVE SMOOTH",
"-30 124 OFFCURVE",
"-24 130 OFFCURVE",
"-22 138 CURVE SMOOTH",
"-17 161 OFFCURVE",
"-10 183 OFFCURVE",
"-6 206 CURVE SMOOTH",
"1 245 OFFCURVE",
"3 285 OFFCURVE",
"3 325 CURVE SMOOTH",
"4 354 OFFCURVE",
"6 383 OFFCURVE",
"8 412 CURVE SMOOTH",
"9 429 OFFCURVE",
"11 445 OFFCURVE",
"13 462 CURVE SMOOTH",
"14 464 OFFCURVE",
"18 466 OFFCURVE",
"21 469 CURVE SMOOTH",
"23 470 OFFCURVE",
"25 472 OFFCURVE",
"27 474 CURVE",
"25 475 OFFCURVE",
"23 478 OFFCURVE",
"21 478 CURVE SMOOTH",
"9 478 OFFCURVE",
"9 483 OFFCURVE",
"11 493 CURVE SMOOTH",
"13 514 OFFCURVE",
"11 535 OFFCURVE",
"13 556 CURVE SMOOTH",
"15 584 OFFCURVE",
"12 611 OFFCURVE",
"13 639 CURVE SMOOTH",
"13 645 OFFCURVE",
"16 652 OFFCURVE",
"18 658 CURVE",
"29 658 OFFCURVE",
"39 658 OFFCURVE",
"51 658 CURVE",
"51 652 OFFCURVE",
"51 645 OFFCURVE",
"52 638 CURVE",
"59 638 OFFCURVE",
"66 638 OFFCURVE",
"74 638 CURVE",
"81 612 OFFCURVE",
"87 586 OFFCURVE",
"96 562 CURVE SMOOTH",
"104 543 OFFCURVE",
"108 525 OFFCURVE",
"110 505 CURVE SMOOTH",
"111 493 OFFCURVE",
"117 482 OFFCURVE",
"120 470 CURVE",
"117 467 OFFCURVE",
"113 463 OFFCURVE",
"110 459 CURVE SMOOTH",
"109 458 OFFCURVE",
"113 455 OFFCURVE",
"113 455 CURVE SMOOTH",
"116 457 OFFCURVE",
"119 459 OFFCURVE",
"123 462 CURVE",
"136 412 OFFCURVE",
"149 361 OFFCURVE",
"163 309 CURVE",
"164 310 OFFCURVE",
"165 310 OFFCURVE",
"166 310 CURVE",
"173 330 OFFCURVE",
"180 351 OFFCURVE",
"187 372 CURVE SMOOTH",
"195 396 OFFCURVE",
"202 420 OFFCURVE",
"210 444 CURVE SMOOTH",
"212 451 OFFCURVE",
"214 459 OFFCURVE",
"215 466 CURVE SMOOTH",
"216 472 OFFCURVE",
"215 479 OFFCURVE",
"224 480 CURVE",
"223 495 OFFCURVE",
"230 505 OFFCURVE",
"239 515 CURVE SMOOTH",
"240 516 OFFCURVE",
"235 522 OFFCURVE",
"232 525 CURVE",
"231 525 OFFCURVE",
"230 525 OFFCURVE",
"229 525 CURVE",
"233 541 OFFCURVE",
"238 557 OFFCURVE",
"242 574 CURVE SMOOTH",
"244 584 OFFCURVE",
"247 595 OFFCURVE",
"250 605 CURVE SMOOTH",
"251 610 OFFCURVE",
"253 615 OFFCURVE",
"254 621 CURVE SMOOTH",
"262 648 OFFCURVE",
"268 675 OFFCURVE",
"283 700 CURVE SMOOTH",
"294 718 OFFCURVE",
"322 725 OFFCURVE",
"342 717 CURVE SMOOTH",
"354 712 OFFCURVE",
"361 704 OFFCURVE",
"366 693 CURVE SMOOTH",
"367 690 OFFCURVE",
"372 689 OFFCURVE",
"376 687 CURVE",
"376 654 OFFCURVE",
"376 622 OFFCURVE",
"376 590 CURVE"
);
}
);
width = 450;
}
);
unicode = 004D;
},
{
glyphname = N;
lastChange = "2020-11-22 11:02:34 +0000";
layers = (
{
layerId = "686D85FA-502B-420B-8C81-C7709808E604";
paths = (
{
closed = 1;
nodes = (
"64 377 OFFCURVE",
"64 374 OFFCURVE",
"64 371 CURVE SMOOTH",
"62 335 OFFCURVE",
"64 299 OFFCURVE",
"58 265 CURVE SMOOTH",
"52 227 OFFCURVE",
"57 190 OFFCURVE",
"54 152 CURVE SMOOTH",
"53 135 OFFCURVE",
"51 117 OFFCURVE",
"50 100 CURVE SMOOTH",
"49 96 OFFCURVE",
"51 91 OFFCURVE",
"53 86 CURVE SMOOTH",
"58 72 OFFCURVE",
"48 57 OFFCURVE",
"33 57 CURVE SMOOTH",
"28 57 OFFCURVE",
"24 57 OFFCURVE",
"19 57 CURVE SMOOTH",
"7 56 OFFCURVE",
"1 61 OFFCURVE",
"1 74 CURVE SMOOTH",
"1 127 OFFCURVE",
"-2 181 OFFCURVE",
"2 233 CURVE SMOOTH",
"4 258 OFFCURVE",
"5 283 OFFCURVE",
"6 308 CURVE SMOOTH",
"8 360 OFFCURVE",
"9 412 OFFCURVE",
"10 464 CURVE SMOOTH",
"10 467 OFFCURVE",
"12 471 OFFCURVE",
"14 474 CURVE SMOOTH",
"23 485 OFFCURVE",
"35 488 OFFCURVE",
"48 488 CURVE SMOOTH",
"52 488 OFFCURVE",
"57 489 OFFCURVE",
"61 488 CURVE SMOOTH",
"68 486 OFFCURVE",
"75 483 OFFCURVE",
"81 480 CURVE SMOOTH",
"89 476 OFFCURVE",
"92 469 OFFCURVE",
"93 461 CURVE SMOOTH",
"96 446 OFFCURVE",
"102 433 OFFCURVE",
"107 420 CURVE SMOOTH",
"117 396 OFFCURVE",
"126 373 OFFCURVE",
"137 351 CURVE SMOOTH",
"149 323 OFFCURVE",
"162 295 OFFCURVE",
"175 267 CURVE SMOOTH",
"186 242 OFFCURVE",
"197 217 OFFCURVE",
"208 191 CURVE SMOOTH",
"219 165 OFFCURVE",
"231 138 OFFCURVE",
"242 112 CURVE SMOOTH",
"245 105 OFFCURVE",
"247 98 OFFCURVE",
"249 91 CURVE",
"250 91 OFFCURVE",
"251 92 OFFCURVE",
"252 92 CURVE",
"252 95 OFFCURVE",
"253 98 OFFCURVE",
"253 101 CURVE SMOOTH",
"253 155 OFFCURVE",
"256 210 OFFCURVE",
"252 263 CURVE SMOOTH",
"244 345 OFFCURVE",
"253 426 OFFCURVE",
"247 507 CURVE SMOOTH",
"244 540 OFFCURVE",
"247 573 OFFCURVE",
"242 605 CURVE SMOOTH",
"238 629 OFFCURVE",
"240 652 OFFCURVE",
"238 675 CURVE SMOOTH",
"237 692 OFFCURVE",
"235 709 OFFCURVE",
"233 726 CURVE SMOOTH",
"232 740 OFFCURVE",
"230 754 OFFCURVE",
"228 769 CURVE SMOOTH",
"225 793 OFFCURVE",
"222 817 OFFCURVE",
"219 841 CURVE SMOOTH",
"218 849 OFFCURVE",
"218 856 OFFCURVE",
"230 857 CURVE SMOOTH",
"232 857 OFFCURVE",
"235 860 OFFCURVE",
"237 862 CURVE SMOOTH",
"249 874 OFFCURVE",
"259 874 OFFCURVE",
"269 860 CURVE SMOOTH",
"276 850 OFFCURVE",
"288 842 OFFCURVE",
"286 827 CURVE SMOOTH",
"285 825 OFFCURVE",
"286 822 OFFCURVE",
"285 821 CURVE SMOOTH",
"273 799 OFFCURVE",
"274 776 OFFCURVE",
"281 753 CURVE SMOOTH",
"281 752 OFFCURVE",
"281 751 OFFCURVE",
"281 750 CURVE SMOOTH",
"283 725 OFFCURVE",
"285 699 OFFCURVE",
"286 673 CURVE SMOOTH",
"289 638 OFFCURVE",
"290 603 OFFCURVE",
"292 568 CURVE SMOOTH",
"294 542 OFFCURVE",
"296 515 OFFCURVE",
"296 489 CURVE SMOOTH",
"298 382 OFFCURVE",
"300 275 OFFCURVE",
"302 169 CURVE SMOOTH",
"303 112 OFFCURVE",
"304 56 OFFCURVE",
"306 -1 CURVE SMOOTH",
"306 -10 OFFCURVE",
"291 -35 OFFCURVE",
"283 -36 CURVE SMOOTH",
"269 -37 OFFCURVE",
"260 -28 OFFCURVE",
"252 -19 CURVE SMOOTH",
"234 0 OFFCURVE",
"225 24 OFFCURVE",
"214 48 CURVE SMOOTH",
"198 82 OFFCURVE",
"183 116 OFFCURVE",
"168 151 CURVE SMOOTH",
"150 191 OFFCURVE",
"134 231 OFFCURVE",
"117 271 CURVE SMOOTH",
"104 302 OFFCURVE",
"90 332 OFFCURVE",
"76 363 CURVE SMOOTH",
"73 369 OFFCURVE",
"71 375 OFFCURVE",
"68 381 CURVE",
"67 380 OFFCURVE",
"66 380 OFFCURVE",
"65 380 CURVE"
);
}
);
width = 340;
}
);
unicode = 004E;
},
{
glyphname = O;
lastChange = "2020-11-22 11:02:41 +0000";
layers = (
{
layerId = "686D85FA-502B-420B-8C81-C7709808E604";
paths = (
{
closed = 1;
nodes = (
"105 402 OFFCURVE",
"110 402 OFFCURVE",
"115 402 CURVE",
"117 401 OFFCURVE",
"119 399 OFFCURVE",
"121 397 CURVE",
"127 393 OFFCURVE",
"134 391 OFFCURVE",
"139 386 CURVE",
"151 372 OFFCURVE",
"144 358 OFFCURVE",
"134 345 CURVE",
"138 343 OFFCURVE",
"141 341 OFFCURVE",
"145 339 CURVE",
"166 329 OFFCURVE",
"181 313 OFFCURVE",
"186 291 CURVE",
"190 271 OFFCURVE",
"190 250 OFFCURVE",
"181 230 CURVE",
"165 193 OFFCURVE",
"141 162 OFFCURVE",
"104 142 CURVE",
"87 133 OFFCURVE",
"69 127 OFFCURVE",
"51 132 CURVE",
"22 140 OFFCURVE",
"-1 171 OFFCURVE",
"-2 201 CURVE",
"-2 214 OFFCURVE",
"-2 228 OFFCURVE",
"-2 241 CURVE",
"-3 241 OFFCURVE",
"-4 240 OFFCURVE",
"-4 240 CURVE",
"-7 246 OFFCURVE",
"-10 251 OFFCURVE",
"-11 257 CURVE",
"-12 266 OFFCURVE",
"-11 275 OFFCURVE",
"-11 284 CURVE",
"-11 305 OFFCURVE",
"2 317 OFFCURVE",
"17 329 CURVE",
"24 336 OFFCURVE",
"31 343 OFFCURVE",
"37 350 CURVE",
"50 370 OFFCURVE",
"64 388 OFFCURVE",
"87 397 CURVE",
"92 398 OFFCURVE",
"96 401 OFFCURVE",
"100 402 CURVE"
);
},
{
closed = 1;
nodes = (
"52 213 OFFCURVE",
"52 205 OFFCURVE",
"52 197 CURVE SMOOTH",
"52 188 OFFCURVE",
"56 185 OFFCURVE",
"64 184 CURVE SMOOTH",
"79 182 OFFCURVE",
"88 192 OFFCURVE",
"98 200 CURVE SMOOTH",
"119 215 OFFCURVE",
"130 239 OFFCURVE",
"138 263 CURVE SMOOTH",
"140 270 OFFCURVE",
"139 278 OFFCURVE",
"133 285 CURVE SMOOTH",
"118 301 OFFCURVE",
"99 302 OFFCURVE",
"79 300 CURVE SMOOTH",
"75 299 OFFCURVE",
"69 294 OFFCURVE",
"66 289 CURVE SMOOTH",
"56 268 OFFCURVE",
"50 245 OFFCURVE",
"52 222 CURVE"
);
}
);
width = 200;
}
);
unicode = 004F;
},
{
glyphname = P;
lastChange = "2020-11-22 11:02:50 +0000";
layers = (
{
layerId = "686D85FA-502B-420B-8C81-C7709808E604";
paths = (
{
closed = 1;
nodes = (
"289 455 OFFCURVE",
"287 453 OFFCURVE",
"285 446 CURVE",
"281 434 OFFCURVE",
"276 421 OFFCURVE",
"268 411 CURVE",
"246 385 OFFCURVE",
"224 358 OFFCURVE",
"200 334 CURVE",
"188 322 OFFCURVE",
"172 314 OFFCURVE",
"158 304 CURVE",
"153 301 OFFCURVE",
"146 298 OFFCURVE",
"142 293 CURVE",
"124 275 OFFCURVE",
"100 269 OFFCURVE",
"77 259 CURVE",
"77 222 OFFCURVE",
"78 185 OFFCURVE",
"77 147 CURVE",
"76 111 OFFCURVE",
"73 75 OFFCURVE",
"73 39 CURVE",
"73 12 OFFCURVE",
"75 -16 OFFCURVE",
"78 -43 CURVE",
"80 -66 OFFCURVE",
"83 -88 OFFCURVE",
"87 -111 CURVE",
"90 -127 OFFCURVE",
"92 -144 OFFCURVE",
"97 -159 CURVE",
"102 -175 OFFCURVE",
"90 -175 OFFCURVE",
"83 -179 CURVE",
"79 -181 OFFCURVE",
"75 -181 OFFCURVE",
"71 -183 CURVE",
"61 -187 OFFCURVE",
"49 -183 OFFCURVE",
"45 -172 CURVE",
"40 -161 OFFCURVE",
"37 -149 OFFCURVE",
"34 -137 CURVE",
"29 -120 OFFCURVE",
"24 -102 OFFCURVE",
"20 -84 CURVE",
"19 -81 OFFCURVE",
"20 -78 OFFCURVE",
"19 -75 CURVE",
"16 -61 OFFCURVE",
"13 -46 OFFCURVE",
"10 -32 CURVE",
"8 -22 OFFCURVE",
"7 -11 OFFCURVE",
"5 -1 CURVE",
"3 8 OFFCURVE",
"0 18 OFFCURVE",
"-4 30 CURVE",
"1 33 OFFCURVE",
"7 36 OFFCURVE",
"12 39 CURVE",
"20 43 OFFCURVE",
"25 46 OFFCURVE",
"25 56 CURVE",
"24 104 OFFCURVE",
"24 151 OFFCURVE",
"25 199 CURVE",
"25 212 OFFCURVE",
"27 226 OFFCURVE",
"28 239 CURVE",
"19 241 OFFCURVE",
"7 241 OFFCURVE",
"3 247 CURVE",
"-3 256 OFFCURVE",
"-4 268 OFFCURVE",
"-5 280 CURVE",
"-5 291 OFFCURVE",
"6 298 OFFCURVE",
"28 301 CURVE",
"28 302 OFFCURVE",
"29 304 OFFCURVE",
"29 305 CURVE",
"31 371 OFFCURVE",
"32 437 OFFCURVE",
"34 503 CURVE",
"34 538 OFFCURVE",
"35 572 OFFCURVE",
"33 607 CURVE",
"33 625 OFFCURVE",
"28 644 OFFCURVE",
"26 662 CURVE",
"25 665 OFFCURVE",
"26 668 OFFCURVE",
"26 670 CURVE",
"27 684 OFFCURVE",
"29 698 OFFCURVE",
"27 712 CURVE",
"24 735 OFFCURVE",
"19 758 OFFCURVE",
"15 782 CURVE",
"12 799 OFFCURVE",
"9 816 OFFCURVE",
"6 833 CURVE",
"5 840 OFFCURVE",
"15 850 OFFCURVE",
"25 851 CURVE",
"32 852 OFFCURVE",
"38 855 OFFCURVE",
"44 856 CURVE",
"47 856 OFFCURVE",
"50 856 OFFCURVE",
"54 856 CURVE",
"55 852 OFFCURVE",
"56 849 OFFCURVE",
"58 845 CURVE",
"59 840 OFFCURVE",
"62 836 OFFCURVE",
"63 831 CURVE",
"65 819 OFFCURVE",
"66 808 OFFCURVE",
"68 796 CURVE",
"71 779 OFFCURVE",
"75 763 OFFCURVE",
"77 746 CURVE",
"79 727 OFFCURVE",
"75 708 OFFCURVE",
"81 688 CURVE",
"84 680 OFFCURVE",
"86 678 OFFCURVE",
"94 677 CURVE",
"105 675 OFFCURVE",
"116 673 OFFCURVE",
"125 669 CURVE",
"140 662 OFFCURVE",
"155 654 OFFCURVE",
"169 645 CURVE",
"179 639 OFFCURVE",
"187 631 OFFCURVE",
"197 624 CURVE",
"211 614 OFFCURVE",
"227 606 OFFCURVE",
"239 594 CURVE",
"252 581 OFFCURVE",
"263 564 OFFCURVE",
"274 548 CURVE",
"277 543 OFFCURVE",
"280 537 OFFCURVE",
"280 531 CURVE",
"281 521 OFFCURVE",
"287 517 OFFCURVE",
"295 515 CURVE",
"295 495 OFFCURVE",
"295 475 OFFCURVE",
"295 455 CURVE"
);
},
{
closed = 1;
nodes = (
"82 628 OFFCURVE",
"82 624 OFFCURVE",
"82 620 CURVE",
"84 594 OFFCURVE",
"87 568 OFFCURVE",
"87 542 CURVE",
"86 510 OFFCURVE",
"83 478 OFFCURVE",
"82 447 CURVE",
"82 412 OFFCURVE",
"82 377 OFFCURVE",
"82 342 CURVE",
"82 335 OFFCURVE",
"82 327 OFFCURVE",
"82 320 CURVE",
"83 319 OFFCURVE",
"84 318 OFFCURVE",
"85 318 CURVE",
"112 335 OFFCURVE",
"140 351 OFFCURVE",
"164 372 CURVE",
"187 391 OFFCURVE",
"207 413 OFFCURVE",
"225 437 CURVE",
"234 449 OFFCURVE",
"238 466 OFFCURVE",
"241 481 CURVE",
"245 504 OFFCURVE",
"233 523 OFFCURVE",
"220 541 CURVE",
"215 548 OFFCURVE",
"206 553 OFFCURVE",
"204 560 CURVE",
"203 570 OFFCURVE",
"197 571 OFFCURVE",
"191 574 CURVE",
"188 576 OFFCURVE",
"185 577 OFFCURVE",
"183 579 CURVE",
"170 587 OFFCURVE",
"157 597 OFFCURVE",
"144 604 CURVE",
"124 615 OFFCURVE",
"104 624 OFFCURVE",
"82 634 CURVE"
);
},
{
closed = 1;
nodes = (
"96 640 OFFCURVE",
"104 651 OFFCURVE",
"101 662 CURVE SMOOTH",
"100 664 OFFCURVE",
"98 665 OFFCURVE",
"97 666 CURVE",
"96 664 OFFCURVE",
"94 663 OFFCURVE",
"93 661 CURVE SMOOTH",
"90 657 OFFCURVE",
"88 653 OFFCURVE",
"86 649 CURVE",
"85 650 OFFCURVE",
"84 650 OFFCURVE",
"83 651 CURVE",
"83 647 OFFCURVE",
"83 643 OFFCURVE",
"83 639 CURVE"
);
}
);
width = 340;
}
);
unicode = 0050;
},
{
glyphname = Q;
lastChange = "2020-11-22 11:02:57 +0000";
layers = (
{
layerId = "686D85FA-502B-420B-8C81-C7709808E604";
paths = (
{
closed = 1;
nodes = (
"133 463 OFFCURVE",
"148 472 OFFCURVE",
"164 479 CURVE",
"177 485 OFFCURVE",
"192 485 OFFCURVE",
"205 476 CURVE",
"217 468 OFFCURVE",
"217 456 OFFCURVE",
"207 446 CURVE",
"204 443 OFFCURVE",
"201 439 OFFCURVE",
"198 436 CURVE",
"195 432 OFFCURVE",
"193 428 OFFCURVE",
"186 432 CURVE",
"182 434 OFFCURVE",
"174 429 OFFCURVE",
"169 428 CURVE",
"169 426 OFFCURVE",
"169 425 OFFCURVE",
"169 424 CURVE",
"172 424 OFFCURVE",
"175 424 OFFCURVE",
"177 424 CURVE",
"202 423 OFFCURVE",
"225 414 OFFCURVE",
"246 402 CURVE",
"265 391 OFFCURVE",
"281 376 OFFCURVE",
"286 355 CURVE",
"290 338 OFFCURVE",
"292 319 OFFCURVE",
"287 303 CURVE",
"271 253 OFFCURVE",
"230 227 OFFCURVE",
"185 206 CURVE",
"180 204 OFFCURVE",
"175 202 OFFCURVE",
"170 200 CURVE",
"173 185 OFFCURVE",
"176 171 OFFCURVE",
"179 157 CURVE",
"181 145 OFFCURVE",
"184 133 OFFCURVE",
"187 121 CURVE",
"189 113 OFFCURVE",
"191 104 OFFCURVE",
"193 96 CURVE",
"195 84 OFFCURVE",
"196 72 OFFCURVE",
"198 60 CURVE",
"202 38 OFFCURVE",
"207 17 OFFCURVE",
"212 -5 CURVE",
"213 -13 OFFCURVE",
"216 -22 OFFCURVE",
"217 -31 CURVE",
"219 -43 OFFCURVE",
"220 -55 OFFCURVE",
"222 -68 CURVE",
"224 -79 OFFCURVE",
"228 -90 OFFCURVE",
"231 -101 CURVE",
"233 -112 OFFCURVE",
"234 -123 OFFCURVE",
"237 -134 CURVE",
"239 -148 OFFCURVE",
"242 -162 OFFCURVE",
"245 -176 CURVE",
"247 -186 OFFCURVE",
"249 -196 OFFCURVE",
"251 -207 CURVE",
"254 -218 OFFCURVE",
"257 -230 OFFCURVE",
"260 -241 CURVE",
"262 -251 OFFCURVE",
"263 -261 OFFCURVE",
"266 -271 CURVE",
"268 -284 OFFCURVE",
"272 -296 OFFCURVE",
"275 -309 CURVE",
"277 -317 OFFCURVE",
"278 -325 OFFCURVE",
"280 -333 CURVE",
"285 -351 OFFCURVE",
"289 -369 OFFCURVE",
"294 -387 CURVE",
"296 -394 OFFCURVE",
"298 -401 OFFCURVE",
"299 -408 CURVE",
"301 -418 OFFCURVE",
"288 -442 OFFCURVE",
"279 -447 CURVE",
"276 -449 OFFCURVE",
"272 -453 OFFCURVE",
"270 -457 CURVE",
"261 -478 OFFCURVE",
"244 -481 OFFCURVE",
"228 -466 CURVE",
"210 -448 OFFCURVE",
"210 -448 OFFCURVE",
"227 -429 CURVE",
"234 -422 OFFCURVE",
"239 -414 OFFCURVE",
"245 -406 CURVE",
"242 -397 OFFCURVE",
"239 -389 OFFCURVE",
"237 -380 CURVE",
"233 -363 OFFCURVE",
"231 -345 OFFCURVE",
"227 -328 CURVE",
"223 -311 OFFCURVE",
"218 -293 OFFCURVE",
"214 -276 CURVE",
"211 -265 OFFCURVE",
"210 -253 OFFCURVE",
"207 -242 CURVE",
"206 -235 OFFCURVE",
"204 -229 OFFCURVE",
"203 -222 CURVE",
"198 -202 OFFCURVE",
"193 -182 OFFCURVE",
"189 -162 CURVE",
"187 -152 OFFCURVE",
"185 -142 OFFCURVE",
"183 -132 CURVE",
"179 -108 OFFCURVE",
"174 -85 OFFCURVE",
"169 -61 CURVE",
"166 -41 OFFCURVE",
"163 -21 OFFCURVE",
"159 -1 CURVE",
"155 19 OFFCURVE",
"149 40 OFFCURVE",
"145 60 CURVE",
"143 73 OFFCURVE",
"142 85 OFFCURVE",
"140 98 CURVE",
"137 110 OFFCURVE",
"134 121 OFFCURVE",
"132 133 CURVE",
"129 145 OFFCURVE",
"126 157 OFFCURVE",
"125 169 CURVE",
"124 185 OFFCURVE",
"123 187 OFFCURVE",
"108 187 CURVE",
"93 187 OFFCURVE",
"77 187 OFFCURVE",
"62 187 CURVE",
"40 187 OFFCURVE",
"21 196 OFFCURVE",
"4 209 CURVE",
"-8 219 OFFCURVE",
"-13 235 OFFCURVE",
"-15 251 CURVE",
"-18 283 OFFCURVE",
"-5 310 OFFCURVE",
"11 336 CURVE",
"26 363 OFFCURVE",
"45 386 OFFCURVE",
"67 408 CURVE",
"71 411 OFFCURVE",
"71 420 OFFCURVE",
"71 426 CURVE",
"71 432 OFFCURVE",
"69 438 OFFCURVE",
"67 444 CURVE",
"61 468 OFFCURVE",
"55 491 OFFCURVE",
"49 515 CURVE",
"47 524 OFFCURVE",
"45 533 OFFCURVE",
"43 542 CURVE",
"38 563 OFFCURVE",
"33 583 OFFCURVE",
"29 605 CURVE",
"25 621 OFFCURVE",
"22 638 OFFCURVE",
"19 655 CURVE",
"14 677 OFFCURVE",
"8 698 OFFCURVE",
"5 719 CURVE",
"3 740 OFFCURVE",
"5 761 OFFCURVE",
"5 782 CURVE",
"5 784 OFFCURVE",
"5 786 OFFCURVE",
"7 786 CURVE",
"17 792 OFFCURVE",
"26 799 OFFCURVE",
"37 802 CURVE",
"47 804 OFFCURVE",
"55 793 OFFCURVE",
"57 776 CURVE",
"58 773 OFFCURVE",
"58 770 OFFCURVE",
"58 767 CURVE",
"56 756 OFFCURVE",
"56 744 OFFCURVE",
"57 732 CURVE",
"59 713 OFFCURVE",
"62 694 OFFCURVE",
"67 676 CURVE",
"72 656 OFFCURVE",
"73 636 OFFCURVE",
"77 616 CURVE",
"80 601 OFFCURVE",
"86 587 OFFCURVE",
"90 572 CURVE",
"92 565 OFFCURVE",
"94 557 OFFCURVE",
"96 549 CURVE",
"98 538 OFFCURVE",
"99 526 OFFCURVE",
"101 515 CURVE",
"102 511 OFFCURVE",
"104 507 OFFCURVE",
"105 503 CURVE",
"109 487 OFFCURVE",
"113 470 OFFCURVE",
"117 454 CURVE"
);
},
{
closed = 1;
nodes = (
"164 252 OFFCURVE",
"166 253 OFFCURVE",
"168 254 CURVE",
"195 267 OFFCURVE",
"219 281 OFFCURVE",
"234 308 CURVE",
"245 327 OFFCURVE",
"238 350 OFFCURVE",
"219 361 CURVE",
"201 372 OFFCURVE",
"182 371 OFFCURVE",
"162 370 CURVE",
"146 370 OFFCURVE",
"138 361 OFFCURVE",
"140 345 CURVE",
"141 334 OFFCURVE",
"147 324 OFFCURVE",
"149 313 CURVE",
"153 292 OFFCURVE",
"156 271 OFFCURVE",
"160 250 CURVE"
);
},
{
closed = 1;
nodes = (
"50 301 OFFCURVE",
"41 283 OFFCURVE",
"34 265 CURVE SMOOTH",
"32 260 OFFCURVE",
"36 249 OFFCURVE",
"40 246 CURVE SMOOTH",
"62 234 OFFCURVE",
"86 233 OFFCURVE",
"112 237 CURVE",
"108 256 OFFCURVE",
"103 274 OFFCURVE",
"99 293 CURVE",
"84 298 OFFCURVE",
"67 299 OFFCURVE",
"58 319 CURVE"
);
}
);
width = 300;
}
);
unicode = 0051;
},
{
glyphname = R;
lastChange = "2020-11-22 11:03:05 +0000";
layers = (
{
layerId = "686D85FA-502B-420B-8C81-C7709808E604";
paths = (
{
closed = 1;
nodes = (
"26 2 OFFCURVE",
"24 9 OFFCURVE",
"24 16 CURVE",
"22 35 OFFCURVE",
"20 55 OFFCURVE",
"18 75 CURVE",
"17 89 OFFCURVE",
"17 103 OFFCURVE",
"13 116 CURVE",
"5 146 OFFCURVE",
"11 176 OFFCURVE",
"9 206 CURVE",
"7 227 OFFCURVE",
"5 248 OFFCURVE",
"4 269 CURVE",
"4 277 OFFCURVE",
"1 279 OFFCURVE",
"-6 279 CURVE",
"-25 280 OFFCURVE",
"-29 285 OFFCURVE",
"-30 304 CURVE",
"-31 327 OFFCURVE",
"-28 325 OFFCURVE",
"-4 334 CURVE",
"-4 351 OFFCURVE",
"-5 369 OFFCURVE",
"-6 386 CURVE",
"-7 419 OFFCURVE",
"-9 452 OFFCURVE",
"-11 485 CURVE",
"-12 501 OFFCURVE",
"-14 516 OFFCURVE",
"-15 531 CURVE",
"-16 548 OFFCURVE",
"-9 561 OFFCURVE",
"5 572 CURVE",
"20 583 OFFCURVE",
"42 578 OFFCURVE",
"53 562 CURVE",
"64 546 OFFCURVE",
"80 535 OFFCURVE",
"99 531 CURVE",
"109 528 OFFCURVE",
"118 524 OFFCURVE",
"127 521 CURVE",
"136 518 OFFCURVE",
"144 514 OFFCURVE",
"153 512 CURVE",
"187 503 OFFCURVE",
"218 488 OFFCURVE",
"249 472 CURVE",
"271 460 OFFCURVE",
"287 424 OFFCURVE",
"279 400 CURVE",
"275 387 OFFCURVE",
"268 373 OFFCURVE",
"253 366 CURVE",
"239 358 OFFCURVE",
"226 347 OFFCURVE",
"211 340 CURVE",
"194 333 OFFCURVE",
"176 329 OFFCURVE",
"159 323 CURVE",
"148 319 OFFCURVE",
"137 315 OFFCURVE",
"124 310 CURVE",
"135 303 OFFCURVE",
"146 296 OFFCURVE",
"156 289 CURVE",
"168 281 OFFCURVE",
"181 274 OFFCURVE",
"193 266 CURVE",
"212 254 OFFCURVE",
"232 242 OFFCURVE",
"251 231 CURVE",
"273 219 OFFCURVE",
"295 207 OFFCURVE",
"318 195 CURVE",
"332 188 OFFCURVE",
"347 183 OFFCURVE",
"362 178 CURVE",
"376 172 OFFCURVE",
"385 163 OFFCURVE",
"390 149 CURVE",
"395 135 OFFCURVE",
"379 105 OFFCURVE",
"361 105 CURVE",
"346 105 OFFCURVE",
"332 104 OFFCURVE",
"322 118 CURVE",
"317 124 OFFCURVE",
"314 132 OFFCURVE",
"309 143 CURVE",
"285 155 OFFCURVE",
"256 168 OFFCURVE",
"229 183 CURVE",
"205 197 OFFCURVE",
"182 214 OFFCURVE",
"159 228 CURVE",
"130 245 OFFCURVE",
"101 262 OFFCURVE",
"72 278 CURVE",
"68 280 OFFCURVE",
"63 279 OFFCURVE",
"58 279 CURVE",
"58 275 OFFCURVE",
"57 271 OFFCURVE",
"57 267 CURVE",
"59 222 OFFCURVE",
"60 176 OFFCURVE",
"62 131 CURVE",
"63 114 OFFCURVE",
"65 97 OFFCURVE",
"67 80 CURVE",
"69 57 OFFCURVE",
"72 35 OFFCURVE",
"74 12 CURVE",
"75 4 OFFCURVE",
"60 -4 OFFCURVE",
"52 -3 CURVE",
"45 -2 OFFCURVE",
"38 -3 OFFCURVE",
"31 -3 CURVE",
"30 -3 OFFCURVE",
"29 -4 OFFCURVE",
"28 -5 CURVE"
);
},
{
closed = 1;
nodes = (
"66 348 OFFCURVE",
"73 350 OFFCURVE",
"80 352 CURVE SMOOTH",
"94 355 OFFCURVE",
"108 359 OFFCURVE",
"122 363 CURVE SMOOTH",
"141 368 OFFCURVE",
"159 374 OFFCURVE",
"177 381 CURVE SMOOTH",
"194 388 OFFCURVE",
"210 398 OFFCURVE",
"226 407 CURVE SMOOTH",
"232 411 OFFCURVE",
"233 416 OFFCURVE",
"226 422 CURVE SMOOTH",
"206 442 OFFCURVE",
"178 448 OFFCURVE",
"153 458 CURVE SMOOTH",
"137 464 OFFCURVE",
"119 467 OFFCURVE",
"103 474 CURVE SMOOTH",
"83 482 OFFCURVE",
"64 492 OFFCURVE",
"44 501 CURVE SMOOTH",
"43 502 OFFCURVE",
"40 501 OFFCURVE",
"39 501 CURVE",
"53 450 OFFCURVE",
"58 400 OFFCURVE",
"57 346 CURVE"
);
}
);
width = 340;
}
);
unicode = 0052;
},
{
glyphname = S;
lastChange = "2020-11-22 11:03:11 +0000";
layers = (
{
layerId = "686D85FA-502B-420B-8C81-C7709808E604";
paths = (
{
closed = 1;
nodes = (
"165 216 OFFCURVE",
"158 213 OFFCURVE",
"159 210 CURVE SMOOTH",
"159 192 OFFCURVE",
"150 176 OFFCURVE",
"141 161 CURVE SMOOTH",
"126 133 OFFCURVE",
"101 114 OFFCURVE",
"74 99 CURVE SMOOTH",
"47 84 OFFCURVE",
"23 93 OFFCURVE",
"10 118 CURVE SMOOTH",
"4 132 OFFCURVE",
"10 144 OFFCURVE",
"25 146 CURVE SMOOTH",
"35 147 OFFCURVE",
"46 149 OFFCURVE",
"57 150 CURVE SMOOTH",
"59 150 OFFCURVE",
"61 150 OFFCURVE",
"63 151 CURVE SMOOTH",
"79 166 OFFCURVE",
"97 179 OFFCURVE",
"105 201 CURVE SMOOTH",
"107 208 OFFCURVE",
"109 214 OFFCURVE",
"109 220 CURVE SMOOTH",
"112 241 OFFCURVE",
"104 259 OFFCURVE",
"88 271 CURVE SMOOTH",
"70 285 OFFCURVE",
"51 297 OFFCURVE",
"33 310 CURVE SMOOTH",
"16 321 OFFCURVE",
"-3 332 OFFCURVE",
"-9 351 CURVE SMOOTH",
"-14 367 OFFCURVE",
"-14 386 OFFCURVE",
"-9 402 CURVE SMOOTH",
"1 440 OFFCURVE",
"27 470 OFFCURVE",
"56 496 CURVE SMOOTH",
"72 510 OFFCURVE",
"89 522 OFFCURVE",
"111 524 CURVE SMOOTH",
"114 525 OFFCURVE",
"117 527 OFFCURVE",
"120 528 CURVE",
"121 528 OFFCURVE",
"123 528 OFFCURVE",
"124 528 CURVE",
"136 521 OFFCURVE",
"136 511 OFFCURVE",
"131 499 CURVE SMOOTH",
"130 497 OFFCURVE",
"130 494 OFFCURVE",
"130 491 CURVE SMOOTH",
"130 484 OFFCURVE",
"127 481 OFFCURVE",
"120 478 CURVE SMOOTH",
"109 472 OFFCURVE",
"99 464 OFFCURVE",
"89 456 CURVE SMOOTH",
"81 450 OFFCURVE",
"75 442 OFFCURVE",
"67 435 CURVE SMOOTH",
"51 422 OFFCURVE",
"44 403 OFFCURVE",
"38 384 CURVE SMOOTH",
"36 378 OFFCURVE",
"39 369 OFFCURVE",
"43 365 CURVE SMOOTH",
"49 358 OFFCURVE",
"58 354 OFFCURVE",
"65 349 CURVE SMOOTH",
"77 341 OFFCURVE",
"90 334 OFFCURVE",
"101 325 CURVE SMOOTH",
"112 316 OFFCURVE",
"120 304 OFFCURVE",
"130 295 CURVE SMOOTH",
"149 281 OFFCURVE",
"151 260 OFFCURVE",
"158 241 CURVE SMOOTH",
"160 234 OFFCURVE",
"162 232 OFFCURVE",
"168 233 CURVE",
"168 228 OFFCURVE",
"168 223 OFFCURVE",
"168 219 CURVE"
);
}
);
width = 220;
}
);
unicode = 0053;
},
{
glyphname = T;
lastChange = "2020-11-22 11:03:19 +0000";
layers = (
{
layerId = "686D85FA-502B-420B-8C81-C7709808E604";
paths = (
{
closed = 1;
nodes = (
"-271 738 OFFCURVE",
"-274 729 OFFCURVE",
"-284 723 CURVE SMOOTH",
"-288 721 OFFCURVE",
"-293 720 OFFCURVE",
"-297 720 CURVE SMOOTH",
"-321 720 OFFCURVE",
"-345 721 OFFCURVE",
"-369 722 CURVE SMOOTH",
"-376 722 OFFCURVE",
"-383 722 OFFCURVE",
"-390 723 CURVE SMOOTH",
"-403 724 OFFCURVE",
"-409 730 OFFCURVE",
"-409 743 CURVE SMOOTH",
"-410 750 OFFCURVE",
"-412 757 OFFCURVE",
"-411 763 CURVE SMOOTH",
"-408 780 OFFCURVE",
"-392 782 OFFCURVE",
"-380 785 CURVE SMOOTH",
"-363 790 OFFCURVE",
"-345 792 OFFCURVE",
"-328 796 CURVE SMOOTH",
"-310 799 OFFCURVE",
"-293 802 OFFCURVE",
"-275 805 CURVE SMOOTH",
"-254 809 OFFCURVE",
"-233 812 OFFCURVE",
"-212 815 CURVE SMOOTH",
"-190 818 OFFCURVE",
"-169 822 OFFCURVE",
"-147 825 CURVE SMOOTH",
"-124 828 OFFCURVE",
"-100 831 OFFCURVE",
"-76 834 CURVE SMOOTH",
"-51 838 OFFCURVE",
"-26 841 OFFCURVE",
"0 844 CURVE SMOOTH",
"32 848 OFFCURVE",
"65 853 OFFCURVE",
"98 857 CURVE SMOOTH",
"121 860 OFFCURVE",
"144 861 OFFCURVE",
"166 863 CURVE SMOOTH",
"186 865 OFFCURVE",
"205 866 OFFCURVE",
"224 868 CURVE SMOOTH",
"238 870 OFFCURVE",
"252 872 OFFCURVE",
"266 873 CURVE SMOOTH",
"289 875 OFFCURVE",
"312 873 OFFCURVE",
"334 879 CURVE SMOOTH",
"355 884 OFFCURVE",
"376 881 OFFCURVE",
"396 883 CURVE SMOOTH",
"411 884 OFFCURVE",
"427 887 OFFCURVE",
"442 887 CURVE SMOOTH",
"458 888 OFFCURVE",
"461 884 OFFCURVE",
"461 868 CURVE SMOOTH",
"461 862 OFFCURVE",
"464 857 OFFCURVE",
"464 851 CURVE SMOOTH",
"464 847 OFFCURVE",
"461 841 OFFCURVE",
"458 840 CURVE SMOOTH",
"445 834 OFFCURVE",
"432 829 OFFCURVE",
"418 825 CURVE SMOOTH",
"404 820 OFFCURVE",
"391 815 OFFCURVE",
"377 811 CURVE SMOOTH",
"368 809 OFFCURVE",
"359 808 OFFCURVE",
"350 806 CURVE SMOOTH",
"327 801 OFFCURVE",
"304 796 OFFCURVE",
"281 791 CURVE SMOOTH",
"266 787 OFFCURVE",
"250 784 OFFCURVE",
"235 781 CURVE SMOOTH",
"214 776 OFFCURVE",
"193 772 OFFCURVE",
"172 767 CURVE SMOOTH",
"171 767 OFFCURVE",
"170 767 OFFCURVE",
"170 767 CURVE SMOOTH",
"152 765 OFFCURVE",
"134 764 OFFCURVE",
"116 762 CURVE SMOOTH",
"97 759 OFFCURVE",
"79 755 OFFCURVE",
"61 753 CURVE SMOOTH",
"50 751 OFFCURVE",
"38 752 OFFCURVE",
"27 752 CURVE",
"28 739 OFFCURVE",
"30 727 OFFCURVE",
"31 715 CURVE SMOOTH",
"32 709 OFFCURVE",
"35 704 OFFCURVE",
"35 699 CURVE SMOOTH",
"37 680 OFFCURVE",
"38 660 OFFCURVE",
"40 640 CURVE SMOOTH",
"41 627 OFFCURVE",
"43 614 OFFCURVE",
"45 601 CURVE SMOOTH",
"48 582 OFFCURVE",
"51 564 OFFCURVE",
"54 546 CURVE SMOOTH",
"54 545 OFFCURVE",
"54 544 OFFCURVE",
"55 543 CURVE SMOOTH",
"56 522 OFFCURVE",
"57 502 OFFCURVE",
"60 481 CURVE SMOOTH",
"62 464 OFFCURVE",
"66 447 OFFCURVE",
"69 430 CURVE SMOOTH",
"69 429 OFFCURVE",
"69 428 OFFCURVE",
"69 427 CURVE SMOOTH",
"71 408 OFFCURVE",
"72 389 OFFCURVE",
"74 369 CURVE SMOOTH",
"76 354 OFFCURVE",
"80 338 OFFCURVE",
"83 323 CURVE SMOOTH",
"83 322 OFFCURVE",
"83 321 OFFCURVE",
"84 321 CURVE SMOOTH",
"85 303 OFFCURVE",
"86 284 OFFCURVE",
"89 267 CURVE SMOOTH",
"91 253 OFFCURVE",
"95 241 OFFCURVE",
"97 227 CURVE SMOOTH",
"98 224 OFFCURVE",
"98 219 OFFCURVE",
"98 215 CURVE SMOOTH",
"101 198 OFFCURVE",
"104 181 OFFCURVE",
"107 164 CURVE SMOOTH",
"109 152 OFFCURVE",
"110 140 OFFCURVE",
"113 129 CURVE SMOOTH",
"115 115 OFFCURVE",
"119 100 OFFCURVE",
"122 86 CURVE SMOOTH",
"124 76 OFFCURVE",
"125 65 OFFCURVE",
"127 55 CURVE SMOOTH",
"131 36 OFFCURVE",
"137 18 OFFCURVE",
"141 0 CURVE SMOOTH",
"143 -10 OFFCURVE",
"144 -20 OFFCURVE",
"147 -29 CURVE SMOOTH",
"151 -45 OFFCURVE",
"156 -61 OFFCURVE",
"160 -77 CURVE SMOOTH",
"162 -84 OFFCURVE",
"164 -91 OFFCURVE",
"166 -99 CURVE SMOOTH",
"168 -109 OFFCURVE",
"170 -119 OFFCURVE",
"173 -129 CURVE SMOOTH",
"175 -143 OFFCURVE",
"154 -160 OFFCURVE",
"141 -160 CURVE SMOOTH",
"106 -158 OFFCURVE",
"94 -130 OFFCURVE",
"80 -106 CURVE SMOOTH",
"73 -94 OFFCURVE",
"75 -75 OFFCURVE",
"75 -59 CURVE SMOOTH",
"74 -56 OFFCURVE",
"81 -52 OFFCURVE",
"85 -51 CURVE SMOOTH",
"98 -48 OFFCURVE",
"98 -48 OFFCURVE",
"94 -35 CURVE SMOOTH",
"92 -28 OFFCURVE",
"90 -20 OFFCURVE",
"89 -12 CURVE SMOOTH",
"85 7 OFFCURVE",
"83 26 OFFCURVE",
"79 45 CURVE SMOOTH",
"75 63 OFFCURVE",
"69 82 OFFCURVE",
"65 100 CURVE SMOOTH",
"63 110 OFFCURVE",
"61 120 OFFCURVE",
"60 130 CURVE SMOOTH",
"58 143 OFFCURVE",
"57 156 OFFCURVE",
"54 169 CURVE SMOOTH",
"52 184 OFFCURVE",
"48 198 OFFCURVE",
"46 212 CURVE SMOOTH",
"44 222 OFFCURVE",
"42 232 OFFCURVE",
"41 242 CURVE SMOOTH",
"38 258 OFFCURVE",
"37 274 OFFCURVE",
"35 290 CURVE SMOOTH",
"33 306 OFFCURVE",
"29 323 OFFCURVE",
"27 339 CURVE SMOOTH",
"26 341 OFFCURVE",
"26 343 OFFCURVE",
"26 345 CURVE SMOOTH",
"24 364 OFFCURVE",
"23 382 OFFCURVE",
"21 401 CURVE SMOOTH",
"18 427 OFFCURVE",
"14 454 OFFCURVE",
"11 480 CURVE SMOOTH",
"8 508 OFFCURVE",
"5 535 OFFCURVE",
"1 563 CURVE SMOOTH",
"-1 580 OFFCURVE",
"-5 598 OFFCURVE",
"-8 615 CURVE SMOOTH",
"-8 617 OFFCURVE",
"-8 618 OFFCURVE",
"-8 620 CURVE SMOOTH",
"-10 641 OFFCURVE",
"-11 661 OFFCURVE",
"-13 682 CURVE SMOOTH",
"-16 702 OFFCURVE",
"-20 722 OFFCURVE",
"-23 741 CURVE SMOOTH",
"-24 744 OFFCURVE",
"-28 746 OFFCURVE",
"-31 747 CURVE SMOOTH",
"-35 748 OFFCURVE",
"-40 747 OFFCURVE",
"-44 747 CURVE SMOOTH",
"-53 747 OFFCURVE",
"-56 751 OFFCURVE",
"-57 760 CURVE SMOOTH",
"-58 786 OFFCURVE",
"-63 789 OFFCURVE",
"-87 782 CURVE SMOOTH",
"-90 781 OFFCURVE",
"-92 781 OFFCURVE",
"-95 781 CURVE SMOOTH",
"-117 778 OFFCURVE",
"-139 775 OFFCURVE",
"-161 772 CURVE SMOOTH",
"-176 770 OFFCURVE",
"-190 769 OFFCURVE",
"-204 766 CURVE SMOOTH",
"-221 764 OFFCURVE",
"-237 761 OFFCURVE",
"-254 757 CURVE SMOOTH",
"-262 755 OFFCURVE",
"-273 760 OFFCURVE",
"-278 746 CURVE"
);
}
);
width = 200;
}
);
unicode = 0054;
},
{
glyphname = U;
lastChange = "2020-11-22 11:03:24 +0000";
layers = (
{
layerId = "686D85FA-502B-420B-8C81-C7709808E604";
paths = (
{
closed = 1;
nodes = (
"-15 404 OFFCURVE",
"-14 399 OFFCURVE",
"-14 393 CURVE",
"0 396 OFFCURVE",
"-7 406 OFFCURVE",
"-5 413 CURVE",
"0 414 OFFCURVE",
"5 416 OFFCURVE",
"11 417 CURVE SMOOTH",
"13 418 OFFCURVE",
"17 417 OFFCURVE",
"18 415 CURVE SMOOTH",
"28 402 OFFCURVE",
"36 388 OFFCURVE",
"39 371 CURVE SMOOTH",
"42 351 OFFCURVE",
"48 332 OFFCURVE",
"53 312 CURVE SMOOTH",
"55 302 OFFCURVE",
"55 291 OFFCURVE",
"58 280 CURVE SMOOTH",
"61 268 OFFCURVE",
"64 256 OFFCURVE",
"69 245 CURVE SMOOTH",
"74 232 OFFCURVE",
"81 219 OFFCURVE",
"86 206 CURVE SMOOTH",
"90 198 OFFCURVE",
"93 198 OFFCURVE",
"97 204 CURVE SMOOTH",
"105 217 OFFCURVE",
"114 230 OFFCURVE",
"120 243 CURVE SMOOTH",
"129 263 OFFCURVE",
"138 284 OFFCURVE",
"144 305 CURVE SMOOTH",
"149 320 OFFCURVE",
"151 337 OFFCURVE",
"154 353 CURVE SMOOTH",
"159 377 OFFCURVE",
"165 401 OFFCURVE",
"169 426 CURVE SMOOTH",
"171 438 OFFCURVE",
"206 448 OFFCURVE",
"216 438 CURVE SMOOTH",
"227 427 OFFCURVE",
"233 415 OFFCURVE",
"237 399 CURVE SMOOTH",
"241 382 OFFCURVE",
"246 365 OFFCURVE",
"251 347 CURVE SMOOTH",
"253 336 OFFCURVE",
"254 325 OFFCURVE",
"256 314 CURVE SMOOTH",
"258 298 OFFCURVE",
"259 282 OFFCURVE",
"261 265 CURVE SMOOTH",
"264 246 OFFCURVE",
"267 226 OFFCURVE",
"270 207 CURVE SMOOTH",
"271 203 OFFCURVE",
"270 199 OFFCURVE",
"271 196 CURVE SMOOTH",
"272 181 OFFCURVE",
"272 165 OFFCURVE",
"276 151 CURVE SMOOTH",
"279 142 OFFCURVE",
"288 135 OFFCURVE",
"296 129 CURVE SMOOTH",
"306 122 OFFCURVE",
"305 115 OFFCURVE",
"299 108 CURVE SMOOTH",
"291 99 OFFCURVE",
"289 86 OFFCURVE",
"273 82 CURVE SMOOTH",
"255 78 OFFCURVE",
"241 84 OFFCURVE",
"237 104 CURVE SMOOTH",
"232 130 OFFCURVE",
"226 155 OFFCURVE",
"222 180 CURVE SMOOTH",
"218 205 OFFCURVE",
"216 230 OFFCURVE",
"212 254 CURVE SMOOTH",
"209 277 OFFCURVE",
"205 299 OFFCURVE",
"201 323 CURVE",
"193 297 OFFCURVE",
"187 272 OFFCURVE",
"178 249 CURVE SMOOTH",
"170 227 OFFCURVE",
"158 207 OFFCURVE",
"147 186 CURVE SMOOTH",
"139 170 OFFCURVE",
"127 158 OFFCURVE",
"111 150 CURVE SMOOTH",
"93 141 OFFCURVE",
"64 151 OFFCURVE",
"52 166 CURVE SMOOTH",
"38 184 OFFCURVE",
"28 205 OFFCURVE",
"21 226 CURVE SMOOTH",
"16 240 OFFCURVE",
"13 255 OFFCURVE",
"9 269 CURVE SMOOTH",
"5 289 OFFCURVE",
"0 308 OFFCURVE",
"-4 327 CURVE SMOOTH",
"-6 335 OFFCURVE",
"-6 343 OFFCURVE",
"-9 350 CURVE SMOOTH",
"-12 359 OFFCURVE",
"-18 367 OFFCURVE",
"-22 375 CURVE SMOOTH",
"-23 378 OFFCURVE",
"-20 383 OFFCURVE",
"-21 386 CURVE SMOOTH",
"-21 391 OFFCURVE",
"-24 395 OFFCURVE",
"-24 399 CURVE SMOOTH",
"-24 403 OFFCURVE",
"-20 407 OFFCURVE",
"-18 410 CURVE",
"-18 410 OFFCURVE",
"-17 410 OFFCURVE",
"-16 410 CURVE"
);
}
);
width = 300;
}
);
unicode = 0055;
},
{
glyphname = V;
lastChange = "2020-11-22 11:03:31 +0000";
layers = (
{
layerId = "686D85FA-502B-420B-8C81-C7709808E604";
paths = (
{
closed = 1;
nodes = (
"292 483 OFFCURVE",
"278 479 OFFCURVE",
"261 476 CURVE",
"260 456 OFFCURVE",
"259 437 OFFCURVE",
"258 419 CURVE SMOOTH",
"255 385 OFFCURVE",
"251 351 OFFCURVE",
"248 317 CURVE SMOOTH",
"246 301 OFFCURVE",
"245 285 OFFCURVE",
"243 269 CURVE SMOOTH",
"241 252 OFFCURVE",
"237 235 OFFCURVE",
"234 218 CURVE SMOOTH",
"232 205 OFFCURVE",
"231 192 OFFCURVE",
"229 179 CURVE SMOOTH",
"224 157 OFFCURVE",
"219 134 OFFCURVE",
"215 111 CURVE SMOOTH",
"212 95 OFFCURVE",
"206 81 OFFCURVE",
"196 67 CURVE SMOOTH",
"185 52 OFFCURVE",
"159 50 OFFCURVE",
"148 65 CURVE SMOOTH",
"138 78 OFFCURVE",
"130 91 OFFCURVE",
"123 106 CURVE SMOOTH",
"108 138 OFFCURVE",
"93 170 OFFCURVE",
"79 203 CURVE SMOOTH",
"67 231 OFFCURVE",
"56 260 OFFCURVE",
"46 289 CURVE SMOOTH",
"37 313 OFFCURVE",
"30 337 OFFCURVE",
"20 360 CURVE SMOOTH",
"8 388 OFFCURVE",
"2 419 OFFCURVE",
"-16 444 CURVE SMOOTH",
"-20 450 OFFCURVE",
"-21 459 OFFCURVE",
"-22 466 CURVE SMOOTH",
"-23 469 OFFCURVE",
"-21 474 OFFCURVE",
"-18 475 CURVE SMOOTH",
"-10 479 OFFCURVE",
"-1 483 OFFCURVE",
"8 486 CURVE SMOOTH",
"20 489 OFFCURVE",
"30 482 OFFCURVE",
"35 468 CURVE SMOOTH",
"42 448 OFFCURVE",
"50 429 OFFCURVE",
"57 410 CURVE SMOOTH",
"63 394 OFFCURVE",
"68 377 OFFCURVE",
"74 361 CURVE SMOOTH",
"81 343 OFFCURVE",
"89 325 OFFCURVE",
"96 307 CURVE SMOOTH",
"102 291 OFFCURVE",
"107 275 OFFCURVE",
"113 259 CURVE SMOOTH",
"117 248 OFFCURVE",
"122 236 OFFCURVE",
"127 225 CURVE SMOOTH",
"134 208 OFFCURVE",
"140 192 OFFCURVE",
"147 176 CURVE SMOOTH",
"151 164 OFFCURVE",
"156 153 OFFCURVE",
"161 141 CURVE SMOOTH",
"163 138 OFFCURVE",
"166 136 OFFCURVE",
"169 131 CURVE",
"172 146 OFFCURVE",
"174 158 OFFCURVE",
"176 170 CURVE SMOOTH",
"179 193 OFFCURVE",
"182 216 OFFCURVE",
"185 239 CURVE SMOOTH",
"187 252 OFFCURVE",
"189 265 OFFCURVE",
"190 279 CURVE SMOOTH",
"192 296 OFFCURVE",
"191 314 OFFCURVE",
"196 330 CURVE SMOOTH",
"201 347 OFFCURVE",
"198 363 OFFCURVE",
"200 379 CURVE SMOOTH",
"201 398 OFFCURVE",
"203 418 OFFCURVE",
"205 437 CURVE SMOOTH",
"206 452 OFFCURVE",
"207 466 OFFCURVE",
"210 481 CURVE SMOOTH",
"212 498 OFFCURVE",
"216 515 OFFCURVE",
"219 532 CURVE SMOOTH",
"220 537 OFFCURVE",
"218 543 OFFCURVE",
"219 548 CURVE SMOOTH",
"222 562 OFFCURVE",
"225 577 OFFCURVE",
"229 591 CURVE SMOOTH",
"230 594 OFFCURVE",
"237 596 OFFCURVE",
"241 597 CURVE SMOOTH",
"249 599 OFFCURVE",
"257 599 OFFCURVE",
"267 600 CURVE",
"280 593 OFFCURVE",
"286 579 OFFCURVE",
"287 561 CURVE SMOOTH",
"288 550 OFFCURVE",
"293 538 OFFCURVE",
"296 527 CURVE SMOOTH",
"297 520 OFFCURVE",
"297 513 OFFCURVE",
"297 505 CURVE",
"300 505 OFFCURVE",
"304 505 OFFCURVE",
"307 505 CURVE",
"307 499 OFFCURVE",
"307 493 OFFCURVE",
"307 486 CURVE"
);
}
);
width = 350;
}
);
unicode = 0056;
},
{
glyphname = W;
lastChange = "2020-11-22 11:03:36 +0000";
layers = (
{
layerId = "686D85FA-502B-420B-8C81-C7709808E604";
paths = (
{
closed = 1;
nodes = (
"265 81 OFFCURVE",
"266 83 OFFCURVE",
"266 85 CURVE SMOOTH",
"267 134 OFFCURVE",
"269 183 OFFCURVE",
"271 231 CURVE SMOOTH",
"271 239 OFFCURVE",
"270 246 OFFCURVE",
"271 253 CURVE SMOOTH",
"272 286 OFFCURVE",
"274 318 OFFCURVE",
"276 351 CURVE SMOOTH",
"277 374 OFFCURVE",
"279 398 OFFCURVE",
"281 422 CURVE SMOOTH",
"282 436 OFFCURVE",
"284 449 OFFCURVE",
"286 463 CURVE SMOOTH",
"288 476 OFFCURVE",
"289 490 OFFCURVE",
"290 503 CURVE SMOOTH",
"292 548 OFFCURVE",
"293 592 OFFCURVE",
"295 637 CURVE SMOOTH",
"296 660 OFFCURVE",
"298 682 OFFCURVE",
"300 705 CURVE SMOOTH",
"302 719 OFFCURVE",
"307 731 OFFCURVE",
"321 737 CURVE SMOOTH",
"322 737 OFFCURVE",
"323 738 OFFCURVE",
"324 738 CURVE SMOOTH",
"333 736 OFFCURVE",
"344 736 OFFCURVE",
"352 731 CURVE SMOOTH",
"359 726 OFFCURVE",
"364 716 OFFCURVE",
"368 707 CURVE SMOOTH",
"374 693 OFFCURVE",
"379 678 OFFCURVE",
"384 663 CURVE SMOOTH",
"385 661 OFFCURVE",
"386 656 OFFCURVE",
"385 655 CURVE SMOOTH",
"374 645 OFFCURVE",
"363 636 OFFCURVE",
"347 623 CURVE",
"346 607 OFFCURVE",
"345 585 OFFCURVE",
"343 564 CURVE SMOOTH",
"342 537 OFFCURVE",
"340 510 OFFCURVE",
"338 483 CURVE SMOOTH",
"337 463 OFFCURVE",
"335 443 OFFCURVE",
"334 422 CURVE SMOOTH",
"331 387 OFFCURVE",
"328 352 OFFCURVE",
"325 317 CURVE SMOOTH",
"325 313 OFFCURVE",
"324 309 OFFCURVE",
"324 306 CURVE SMOOTH",
"322 212 OFFCURVE",
"321 118 OFFCURVE",
"319 24 CURVE SMOOTH",
"319 -3 OFFCURVE",
"320 -30 OFFCURVE",
"318 -58 CURVE SMOOTH",
"317 -73 OFFCURVE",
"317 -89 OFFCURVE",
"305 -101 CURVE SMOOTH",
"304 -102 OFFCURVE",
"305 -104 OFFCURVE",
"304 -104 CURVE SMOOTH",
"297 -110 OFFCURVE",
"271 -105 OFFCURVE",
"267 -98 CURVE SMOOTH",
"251 -69 OFFCURVE",
"239 -39 OFFCURVE",
"232 -7 CURVE SMOOTH",
"227 13 OFFCURVE",
"222 33 OFFCURVE",
"217 54 CURVE SMOOTH",
"213 74 OFFCURVE",
"207 94 OFFCURVE",
"203 114 CURVE SMOOTH",
"201 128 OFFCURVE",
"200 143 OFFCURVE",
"198 158 CURVE SMOOTH",
"196 174 OFFCURVE",
"192 190 OFFCURVE",
"189 206 CURVE SMOOTH",
"189 209 OFFCURVE",
"189 211 OFFCURVE",
"188 213 CURVE SMOOTH",
"187 231 OFFCURVE",
"186 249 OFFCURVE",
"183 267 CURVE SMOOTH",
"181 280 OFFCURVE",
"177 294 OFFCURVE",
"174 307 CURVE SMOOTH",
"172 322 OFFCURVE",
"171 337 OFFCURVE",
"169 352 CURVE SMOOTH",
"169 354 OFFCURVE",
"168 356 OFFCURVE",
"168 359 CURVE",
"167 359 OFFCURVE",
"166 359 OFFCURVE",
"165 359 CURVE",
"163 351 OFFCURVE",
"161 342 OFFCURVE",
"159 334 CURVE SMOOTH",
"156 319 OFFCURVE",
"153 304 OFFCURVE",
"151 289 CURVE SMOOTH",
"149 279 OFFCURVE",
"147 270 OFFCURVE",
"145 260 CURVE SMOOTH",
"143 245 OFFCURVE",
"142 231 OFFCURVE",
"140 216 CURVE SMOOTH",
"137 200 OFFCURVE",
"133 184 OFFCURVE",
"131 168 CURVE SMOOTH",
"130 156 OFFCURVE",
"130 145 OFFCURVE",
"130 133 CURVE SMOOTH",
"131 114 OFFCURVE",
"131 96 OFFCURVE",
"120 80 CURVE SMOOTH",
"119 77 OFFCURVE",
"116 74 OFFCURVE",
"113 74 CURVE SMOOTH",
"92 71 OFFCURVE",
"79 78 OFFCURVE",
"69 95 CURVE SMOOTH",
"53 121 OFFCURVE",
"42 148 OFFCURVE",
"34 177 CURVE SMOOTH",
"29 197 OFFCURVE",
"27 218 OFFCURVE",
"24 238 CURVE SMOOTH",
"21 253 OFFCURVE",
"18 268 OFFCURVE",
"15 282 CURVE SMOOTH",
"15 283 OFFCURVE",
"15 285 OFFCURVE",
"15 286 CURVE SMOOTH",
"13 307 OFFCURVE",
"11 328 OFFCURVE",
"9 349 CURVE SMOOTH",
"8 357 OFFCURVE",
"6 366 OFFCURVE",
"5 374 CURVE",
"-15 373 OFFCURVE",
"-20 377 OFFCURVE",
"-20 396 CURVE SMOOTH",
"-20 408 OFFCURVE",
"-20 420 OFFCURVE",
"-20 432 CURVE SMOOTH",
"-20 452 OFFCURVE",
"-9 466 OFFCURVE",
"7 473 CURVE SMOOTH",
"14 476 OFFCURVE",
"26 472 OFFCURVE",
"33 467 CURVE SMOOTH",
"48 458 OFFCURVE",
"52 443 OFFCURVE",
"53 426 CURVE SMOOTH",
"54 402 OFFCURVE",
"56 378 OFFCURVE",
"58 355 CURVE SMOOTH",
"59 341 OFFCURVE",
"61 327 OFFCURVE",
"63 314 CURVE SMOOTH",
"66 290 OFFCURVE",
"69 266 OFFCURVE",
"73 242 CURVE SMOOTH",
"75 227 OFFCURVE",
"80 211 OFFCURVE",
"84 195 CURVE",
"84 196 OFFCURVE",
"86 196 OFFCURVE",
"86 197 CURVE SMOOTH",
"88 212 OFFCURVE",
"89 228 OFFCURVE",
"92 244 CURVE SMOOTH",
"94 257 OFFCURVE",
"98 270 OFFCURVE",
"101 284 CURVE SMOOTH",
"101 285 OFFCURVE",
"101 286 OFFCURVE",
"101 287 CURVE SMOOTH",
"103 303 OFFCURVE",
"104 318 OFFCURVE",
"106 333 CURVE SMOOTH",
"109 353 OFFCURVE",
"113 373 OFFCURVE",
"116 394 CURVE SMOOTH",
"118 404 OFFCURVE",
"119 414 OFFCURVE",
"121 424 CURVE SMOOTH",
"124 439 OFFCURVE",
"127 454 OFFCURVE",
"130 469 CURVE SMOOTH",
"131 475 OFFCURVE",
"130 481 OFFCURVE",
"131 487 CURVE SMOOTH",
"132 511 OFFCURVE",
"147 519 OFFCURVE",
"171 513 CURVE SMOOTH",
"192 508 OFFCURVE",
"189 491 OFFCURVE",
"193 478 CURVE SMOOTH",
"200 456 OFFCURVE",
"203 433 OFFCURVE",
"208 411 CURVE SMOOTH",
"211 394 OFFCURVE",
"215 377 OFFCURVE",
"217 360 CURVE SMOOTH",
"221 339 OFFCURVE",
"224 317 OFFCURVE",
"227 296 CURVE SMOOTH",
"230 274 OFFCURVE",
"234 252 OFFCURVE",
"237 230 CURVE SMOOTH",
"240 209 OFFCURVE",
"243 187 OFFCURVE",
"247 165 CURVE SMOOTH",
"250 146 OFFCURVE",
"253 127 OFFCURVE",
"256 108 CURVE SMOOTH",
"258 99 OFFCURVE",
"261 89 OFFCURVE",
"264 77 CURVE"
);
}
);
width = 400;
}
);
unicode = 0057;
},
{
glyphname = X;
lastChange = "2020-11-22 11:03:40 +0000";
layers = (
{
layerId = "686D85FA-502B-420B-8C81-C7709808E604";
paths = (
{
closed = 1;
nodes = (
"119 429 OFFCURVE",
"127 449 OFFCURVE",
"133 469 CURVE SMOOTH",
"138 487 OFFCURVE",
"143 505 OFFCURVE",
"148 524 CURVE SMOOTH",
"154 543 OFFCURVE",
"160 561 OFFCURVE",
"166 580 CURVE SMOOTH",
"170 594 OFFCURVE",
"173 608 OFFCURVE",
"177 622 CURVE SMOOTH",
"183 640 OFFCURVE",
"189 657 OFFCURVE",
"194 675 CURVE SMOOTH",
"195 677 OFFCURVE",
"196 680 OFFCURVE",
"196 683 CURVE SMOOTH",
"196 700 OFFCURVE",
"194 718 OFFCURVE",
"197 735 CURVE SMOOTH",
"201 754 OFFCURVE",
"210 773 OFFCURVE",
"218 790 CURVE SMOOTH",
"223 800 OFFCURVE",
"233 808 OFFCURVE",
"239 817 CURVE SMOOTH",
"248 829 OFFCURVE",
"259 827 OFFCURVE",
"271 824 CURVE SMOOTH",
"281 821 OFFCURVE",
"288 814 OFFCURVE",
"288 802 CURVE SMOOTH",
"288 792 OFFCURVE",
"287 781 OFFCURVE",
"283 772 CURVE SMOOTH",
"275 747 OFFCURVE",
"264 723 OFFCURVE",
"255 698 CURVE SMOOTH",
"249 683 OFFCURVE",
"245 667 OFFCURVE",
"240 651 CURVE SMOOTH",
"236 639 OFFCURVE",
"231 627 OFFCURVE",
"227 615 CURVE SMOOTH",
"223 602 OFFCURVE",
"220 589 OFFCURVE",
"216 576 CURVE SMOOTH",
"211 561 OFFCURVE",
"206 547 OFFCURVE",
"202 532 CURVE SMOOTH",
"198 519 OFFCURVE",
"196 505 OFFCURVE",
"192 492 CURVE SMOOTH",
"186 473 OFFCURVE",
"179 454 OFFCURVE",
"173 436 CURVE SMOOTH",
"171 430 OFFCURVE",
"170 424 OFFCURVE",
"167 418 CURVE SMOOTH",
"167 416 OFFCURVE",
"164 414 OFFCURVE",
"163 413 CURVE SMOOTH",
"161 410 OFFCURVE",
"158 406 OFFCURVE",
"159 406 CURVE SMOOTH",
"169 395 OFFCURVE",
"158 385 OFFCURVE",
"156 376 CURVE SMOOTH",
"151 361 OFFCURVE",
"147 349 OFFCURVE",
"160 334 CURVE SMOOTH",
"181 310 OFFCURVE",
"197 283 OFFCURVE",
"215 256 CURVE SMOOTH",
"219 250 OFFCURVE",
"221 241 OFFCURVE",
"226 236 CURVE SMOOTH",
"230 232 OFFCURVE",
"239 228 OFFCURVE",
"242 230 CURVE SMOOTH",
"250 235 OFFCURVE",
"252 230 OFFCURVE",
"254 226 CURVE SMOOTH",
"263 208 OFFCURVE",
"272 191 OFFCURVE",
"278 172 CURVE SMOOTH",
"282 159 OFFCURVE",
"283 144 OFFCURVE",
"284 130 CURVE SMOOTH",
"284 121 OFFCURVE",
"279 114 OFFCURVE",
"269 112 CURVE SMOOTH",
"263 111 OFFCURVE",
"257 108 OFFCURVE",
"251 107 CURVE SMOOTH",
"248 107 OFFCURVE",
"242 107 OFFCURVE",
"241 109 CURVE SMOOTH",
"234 121 OFFCURVE",
"228 134 OFFCURVE",
"221 146 CURVE SMOOTH",
"205 173 OFFCURVE",
"189 200 OFFCURVE",
"172 227 CURVE SMOOTH",
"159 247 OFFCURVE",
"145 266 OFFCURVE",
"130 288 CURVE",
"116 261 OFFCURVE",
"111 233 OFFCURVE",
"102 205 CURVE SMOOTH",
"93 178 OFFCURVE",
"84 151 OFFCURVE",
"74 123 CURVE",
"78 123 OFFCURVE",
"79 123 OFFCURVE",
"80 123 CURVE SMOOTH",
"84 126 OFFCURVE",
"88 132 OFFCURVE",
"91 132 CURVE SMOOTH",
"98 130 OFFCURVE",
"103 125 OFFCURVE",
"109 120 CURVE SMOOTH",
"111 119 OFFCURVE",
"112 116 OFFCURVE",
"114 114 CURVE SMOOTH",
"126 102 OFFCURVE",
"125 101 OFFCURVE",
"114 90 CURVE SMOOTH",
"91 66 OFFCURVE",
"69 42 OFFCURVE",
"46 19 CURVE SMOOTH",
"45 17 OFFCURVE",
"42 17 OFFCURVE",
"41 15 CURVE SMOOTH",
"38 12 OFFCURVE",
"36 8 OFFCURVE",
"33 4 CURVE",
"34 3 OFFCURVE",
"34 1 OFFCURVE",
"35 0 CURVE",
"21 6 OFFCURVE",
"7 11 OFFCURVE",
"-8 17 CURVE",
"-6 26 OFFCURVE",
"-4 33 OFFCURVE",
"-2 40 CURVE SMOOTH",
"3 56 OFFCURVE",
"8 72 OFFCURVE",
"13 88 CURVE SMOOTH",
"19 106 OFFCURVE",
"25 125 OFFCURVE",
"30 143 CURVE SMOOTH",
"34 156 OFFCURVE",
"38 169 OFFCURVE",
"42 181 CURVE SMOOTH",
"47 200 OFFCURVE",
"53 218 OFFCURVE",
"58 236 CURVE SMOOTH",
"62 250 OFFCURVE",
"67 263 OFFCURVE",
"71 276 CURVE SMOOTH",
"76 293 OFFCURVE",
"80 310 OFFCURVE",
"87 326 CURVE SMOOTH",
"93 338 OFFCURVE",
"90 348 OFFCURVE",
"84 357 CURVE SMOOTH",
"73 376 OFFCURVE",
"60 393 OFFCURVE",
"49 412 CURVE SMOOTH",
"34 434 OFFCURVE",
"21 457 OFFCURVE",
"7 480 CURVE SMOOTH",
"4 486 OFFCURVE",
"1 491 OFFCURVE",
"-3 496 CURVE SMOOTH",
"-5 498 OFFCURVE",
"-9 498 OFFCURVE",
"-12 500 CURVE SMOOTH",
"-17 501 OFFCURVE",
"-25 502 OFFCURVE",
"-28 506 CURVE SMOOTH",
"-38 518 OFFCURVE",
"-47 531 OFFCURVE",
"-55 546 CURVE SMOOTH",
"-63 562 OFFCURVE",
"-61 578 OFFCURVE",
"-50 586 CURVE SMOOTH",
"-33 598 OFFCURVE",
"-28 602 OFFCURVE",
"-5 589 CURVE SMOOTH",
"12 580 OFFCURVE",
"18 563 OFFCURVE",
"27 549 CURVE SMOOTH",
"38 531 OFFCURVE",
"48 513 OFFCURVE",
"59 494 CURVE SMOOTH",
"66 482 OFFCURVE",
"73 468 OFFCURVE",
"81 456 CURVE SMOOTH",
"90 439 OFFCURVE",
"101 424 OFFCURVE",
"112 406 CURVE"
);
}
);
width = 300;
}
);
unicode = 0058;
},
{
glyphname = Y;
lastChange = "2020-11-22 11:03:48 +0000";
layers = (
{
layerId = "686D85FA-502B-420B-8C81-C7709808E604";
paths = (
{
closed = 1;
nodes = (
"171 551 OFFCURVE",
"168 547 OFFCURVE",
"169 539 CURVE SMOOTH",
"169 535 OFFCURVE",
"169 531 OFFCURVE",
"169 527 CURVE SMOOTH",
"166 505 OFFCURVE",
"162 482 OFFCURVE",
"160 459 CURVE SMOOTH",
"159 444 OFFCURVE",
"160 429 OFFCURVE",
"159 414 CURVE SMOOTH",
"158 405 OFFCURVE",
"155 396 OFFCURVE",
"154 387 CURVE SMOOTH",
"152 367 OFFCURVE",
"151 346 OFFCURVE",
"149 325 CURVE SMOOTH",
"147 305 OFFCURVE",
"143 285 OFFCURVE",
"140 265 CURVE SMOOTH",
"138 250 OFFCURVE",
"137 235 OFFCURVE",
"135 221 CURVE SMOOTH",
"134 215 OFFCURVE",
"132 210 OFFCURVE",
"130 205 CURVE SMOOTH",
"121 180 OFFCURVE",
"123 153 OFFCURVE",
"120 127 CURVE SMOOTH",
"117 100 OFFCURVE",
"113 73 OFFCURVE",
"110 45 CURVE SMOOTH",
"108 28 OFFCURVE",
"110 9 OFFCURVE",
"105 -8 CURVE SMOOTH",
"96 -35 OFFCURVE",
"97 -62 OFFCURVE",
"96 -90 CURVE SMOOTH",
"96 -93 OFFCURVE",
"97 -96 OFFCURVE",
"97 -102 CURVE",
"112 -80 OFFCURVE",
"125 -97 OFFCURVE",
"138 -101 CURVE SMOOTH",
"146 -103 OFFCURVE",
"148 -114 OFFCURVE",
"142 -123 CURVE SMOOTH",
"128 -146 OFFCURVE",
"115 -170 OFFCURVE",
"100 -193 CURVE SMOOTH",
"94 -203 OFFCURVE",
"85 -210 OFFCURVE",
"77 -218 CURVE SMOOTH",
"75 -220 OFFCURVE",
"72 -220 OFFCURVE",
"70 -220 CURVE SMOOTH",
"45 -220 OFFCURVE",
"27 -208 OFFCURVE",
"37 -178 CURVE SMOOTH",
"38 -177 OFFCURVE",
"38 -176 OFFCURVE",
"38 -175 CURVE SMOOTH",
"40 -155 OFFCURVE",
"41 -136 OFFCURVE",
"43 -116 CURVE SMOOTH",
"46 -91 OFFCURVE",
"49 -65 OFFCURVE",
"52 -40 CURVE SMOOTH",
"54 -22 OFFCURVE",
"56 -5 OFFCURVE",
"58 13 CURVE SMOOTH",
"59 32 OFFCURVE",
"60 52 OFFCURVE",
"63 72 CURVE SMOOTH",
"65 89 OFFCURVE",
"69 107 OFFCURVE",
"71 124 CURVE SMOOTH",
"74 139 OFFCURVE",
"75 153 OFFCURVE",
"77 168 CURVE SMOOTH",
"81 200 OFFCURVE",
"86 232 OFFCURVE",
"91 264 CURVE SMOOTH",
"91 266 OFFCURVE",
"91 268 OFFCURVE",
"91 269 CURVE SMOOTH",
"93 292 OFFCURVE",
"94 315 OFFCURVE",
"97 338 CURVE SMOOTH",
"98 351 OFFCURVE",
"103 364 OFFCURVE",
"106 377 CURVE SMOOTH",
"106 378 OFFCURVE",
"106 378 OFFCURVE",
"106 379 CURVE SMOOTH",
"108 399 OFFCURVE",
"109 419 OFFCURVE",
"111 439 CURVE SMOOTH",
"113 463 OFFCURVE",
"114 488 OFFCURVE",
"116 512 CURVE SMOOTH",
"118 528 OFFCURVE",
"122 543 OFFCURVE",
"125 559 CURVE SMOOTH",
"125 560 OFFCURVE",
"124 562 OFFCURVE",
"123 565 CURVE",
"120 563 OFFCURVE",
"117 561 OFFCURVE",
"116 559 CURVE SMOOTH",
"108 539 OFFCURVE",
"101 518 OFFCURVE",
"91 500 CURVE SMOOTH",
"78 478 OFFCURVE",
"64 457 OFFCURVE",
"44 442 CURVE SMOOTH",
"38 437 OFFCURVE",
"30 435 OFFCURVE",
"23 433 CURVE SMOOTH",
"1 428 OFFCURVE",
"-19 432 OFFCURVE",
"-31 452 CURVE SMOOTH",
"-37 464 OFFCURVE",
"-43 478 OFFCURVE",
"-43 491 CURVE SMOOTH",
"-45 531 OFFCURVE",
"-44 570 OFFCURVE",
"-44 610 CURVE SMOOTH",
"-44 627 OFFCURVE",
"-23 642 OFFCURVE",
"-6 639 CURVE",
"-5 630 OFFCURVE",
"-5 621 OFFCURVE",
"5 615 CURVE SMOOTH",
"7 614 OFFCURVE",
"4 604 OFFCURVE",
"4 598 CURVE SMOOTH",
"4 594 OFFCURVE",
"3 590 OFFCURVE",
"3 586 CURVE SMOOTH",
"3 584 OFFCURVE",
"4 582 OFFCURVE",
"3 582 CURVE SMOOTH",
"-13 567 OFFCURVE",
"4 551 OFFCURVE",
"0 536 CURVE SMOOTH",
"-2 530 OFFCURVE",
"-3 524 OFFCURVE",
"-4 518 CURVE SMOOTH",
"-5 516 OFFCURVE",
"-4 511 OFFCURVE",
"-3 511 CURVE SMOOTH",
"7 510 OFFCURVE",
"3 502 OFFCURVE",
"4 497 CURVE SMOOTH",
"6 491 OFFCURVE",
"7 485 OFFCURVE",
"8 479 CURVE",
"10 478 OFFCURVE",
"12 478 OFFCURVE",
"13 477 CURVE",
"24 490 OFFCURVE",
"36 501 OFFCURVE",
"45 515 CURVE SMOOTH",
"53 528 OFFCURVE",
"57 543 OFFCURVE",
"63 558 CURVE SMOOTH",
"64 561 OFFCURVE",
"66 565 OFFCURVE",
"68 568 CURVE SMOOTH",
"81 588 OFFCURVE",
"83 613 OFFCURVE",
"91 635 CURVE SMOOTH",
"98 654 OFFCURVE",
"98 675 OFFCURVE",
"101 695 CURVE SMOOTH",
"103 706 OFFCURVE",
"108 717 OFFCURVE",
"110 729 CURVE SMOOTH",
"113 746 OFFCURVE",
"114 763 OFFCURVE",
"116 781 CURVE SMOOTH",
"116 785 OFFCURVE",
"115 789 OFFCURVE",
"116 793 CURVE SMOOTH",
"117 801 OFFCURVE",
"120 806 OFFCURVE",
"130 805 CURVE SMOOTH",
"131 805 OFFCURVE",
"131 805 OFFCURVE",
"132 805 CURVE SMOOTH",
"166 805 OFFCURVE",
"170 801 OFFCURVE",
"169 768 CURVE SMOOTH",
"169 761 OFFCURVE",
"170 756 OFFCURVE",
"179 757 CURVE",
"179 688 OFFCURVE",
"179 618 OFFCURVE",
"179 549 CURVE"
);
}
);
width = 250;
}
);
unicode = 0059;
},
{
glyphname = Z;
lastChange = "2020-11-22 11:03:56 +0000";
layers = (
{
layerId = "686D85FA-502B-420B-8C81-C7709808E604";
paths = (
{
closed = 1;
nodes = (
"269 488 OFFCURVE",
"271 485 OFFCURVE",
"274 483 CURVE SMOOTH",
"294 473 OFFCURVE",
"296 443 OFFCURVE",
"282 429 CURVE SMOOTH",
"271 419 OFFCURVE",
"258 411 OFFCURVE",
"246 402 CURVE SMOOTH",
"232 391 OFFCURVE",
"218 380 OFFCURVE",
"204 370 CURVE SMOOTH",
"188 358 OFFCURVE",
"171 346 OFFCURVE",
"155 334 CURVE SMOOTH",
"152 332 OFFCURVE",
"149 329 OFFCURVE",
"147 326 CURVE SMOOTH",
"128 310 OFFCURVE",
"110 294 OFFCURVE",
"92 277 CURVE SMOOTH",
"75 260 OFFCURVE",
"59 241 OFFCURVE",
"43 223 CURVE SMOOTH",
"36 215 OFFCURVE",
"30 205 OFFCURVE",
"23 196 CURVE",
"37 177 OFFCURVE",
"43 176 OFFCURVE",
"68 184 CURVE SMOOTH",
"70 185 OFFCURVE",
"73 184 OFFCURVE",
"75 184 CURVE SMOOTH",
"96 187 OFFCURVE",
"117 191 OFFCURVE",
"138 194 CURVE SMOOTH",
"150 195 OFFCURVE",
"162 197 OFFCURVE",
"174 199 CURVE SMOOTH",
"188 202 OFFCURVE",
"203 205 OFFCURVE",
"218 208 CURVE SMOOTH",
"229 210 OFFCURVE",
"240 212 OFFCURVE",
"252 213 CURVE SMOOTH",
"268 215 OFFCURVE",
"285 214 OFFCURVE",
"301 219 CURVE SMOOTH",
"325 226 OFFCURVE",
"349 222 OFFCURVE",
"373 223 CURVE SMOOTH",
"396 224 OFFCURVE",
"424 192 OFFCURVE",
"410 165 CURVE SMOOTH",
"401 148 OFFCURVE",
"392 130 OFFCURVE",
"383 114 CURVE SMOOTH",
"379 106 OFFCURVE",
"371 103 OFFCURVE",
"362 108 CURVE SMOOTH",
"354 113 OFFCURVE",
"346 117 OFFCURVE",
"339 123 CURVE SMOOTH",
"336 125 OFFCURVE",
"336 132 OFFCURVE",
"338 136 CURVE SMOOTH",
"344 149 OFFCURVE",
"352 161 OFFCURVE",
"360 174 CURVE",
"356 174 OFFCURVE",
"353 175 OFFCURVE",
"350 175 CURVE SMOOTH",
"330 172 OFFCURVE",
"310 169 OFFCURVE",
"289 166 CURVE SMOOTH",
"279 164 OFFCURVE",
"268 162 OFFCURVE",
"258 161 CURVE SMOOTH",
"244 159 OFFCURVE",
"230 158 OFFCURVE",
"217 155 CURVE SMOOTH",
"204 153 OFFCURVE",
"191 150 OFFCURVE",
"178 147 CURVE SMOOTH",
"168 145 OFFCURVE",
"158 143 OFFCURVE",
"149 141 CURVE SMOOTH",
"132 139 OFFCURVE",
"116 138 OFFCURVE",
"99 136 CURVE SMOOTH",
"75 134 OFFCURVE",
"51 133 OFFCURVE",
"28 131 CURVE SMOOTH",
"17 131 OFFCURVE",
"9 135 OFFCURVE",
"2 143 CURVE SMOOTH",
"-5 151 OFFCURVE",
"-11 160 OFFCURVE",
"-24 162 CURVE SMOOTH",
"-36 164 OFFCURVE",
"-43 189 OFFCURVE",
"-37 199 CURVE SMOOTH",
"-28 213 OFFCURVE",
"-19 228 OFFCURVE",
"-7 240 CURVE SMOOTH",
"29 279 OFFCURVE",
"66 318 OFFCURVE",
"104 356 CURVE SMOOTH",
"122 374 OFFCURVE",
"144 388 OFFCURVE",
"165 403 CURVE SMOOTH",
"178 414 OFFCURVE",
"191 423 OFFCURVE",
"207 435 CURVE",
"185 435 OFFCURVE",
"166 435 OFFCURVE",
"146 435 CURVE SMOOTH",
"139 434 OFFCURVE",
"132 431 OFFCURVE",
"125 431 CURVE SMOOTH",
"99 431 OFFCURVE",
"73 426 OFFCURVE",
"48 419 CURVE SMOOTH",
"37 415 OFFCURVE",
"25 414 OFFCURVE",
"13 414 CURVE SMOOTH",
"10 414 OFFCURVE",
"5 418 OFFCURVE",
"3 421 CURVE SMOOTH",
"-1 431 OFFCURVE",
"-4 441 OFFCURVE",
"-7 451 CURVE SMOOTH",
"-7 453 OFFCURVE",
"-6 457 OFFCURVE",
"-5 458 CURVE SMOOTH",
"4 462 OFFCURVE",
"13 467 OFFCURVE",
"23 470 CURVE SMOOTH",
"42 474 OFFCURVE",
"63 476 OFFCURVE",
"83 479 CURVE SMOOTH",
"83 480 OFFCURVE",
"84 480 OFFCURVE",
"85 480 CURVE SMOOTH",
"109 481 OFFCURVE",
"133 483 OFFCURVE",
"157 485 CURVE SMOOTH",
"161 485 OFFCURVE",
"165 488 OFFCURVE",
"169 490 CURVE",
"202 490 OFFCURVE",
"234 490 OFFCURVE",
"266 490 CURVE"
);
}
);
width = 400;
}
);
unicode = 005A;
},
{
glyphname = a;
lastChange = "2020-11-22 11:04:45 +0000";
layers = (
{
layerId = "686D85FA-502B-420B-8C81-C7709808E604";
paths = (
{
closed = 1;
nodes = (
"105 219 OFFCURVE",
"92 219 OFFCURVE",
"80 219 CURVE",
"74 219 OFFCURVE",
"68 219 OFFCURVE",
"62 219 CURVE",
"55 218 OFFCURVE",
"48 219 OFFCURVE",
"46 209 CURVE",
"43 198 OFFCURVE",
"37 188 OFFCURVE",
"33 178 CURVE",
"53 175 OFFCURVE",
"54 174 OFFCURVE",
"52 149 CURVE",
"52 138 OFFCURVE",
"46 134 OFFCURVE",
"31 132 CURVE",
"19 131 OFFCURVE",
"7 128 OFFCURVE",
"-7 125 CURVE",
"-11 129 OFFCURVE",
"-19 134 OFFCURVE",
"-26 140 CURVE",
"-38 152 OFFCURVE",
"-38 157 OFFCURVE",
"-28 172 CURVE",
"-22 182 OFFCURVE",
"-17 193 OFFCURVE",
"-12 204 CURVE",
"-11 207 OFFCURVE",
"-11 213 OFFCURVE",
"-13 217 CURVE",
"-22 240 OFFCURVE",
"-21 248 OFFCURVE",
"-2 260 CURVE",
"9 267 OFFCURVE",
"13 276 OFFCURVE",
"17 286 CURVE",
"20 294 OFFCURVE",
"20 303 OFFCURVE",
"22 312 CURVE",
"25 322 OFFCURVE",
"28 332 OFFCURVE",
"31 342 CURVE",
"33 350 OFFCURVE",
"35 358 OFFCURVE",
"37 366 CURVE",
"40 385 OFFCURVE",
"42 404 OFFCURVE",
"47 423 CURVE",
"50 441 OFFCURVE",
"56 458 OFFCURVE",
"61 475 CURVE",
"66 493 OFFCURVE",
"69 511 OFFCURVE",
"76 528 CURVE",
"90 566 OFFCURVE",
"121 566 OFFCURVE",
"143 544 CURVE",
"151 536 OFFCURVE",
"155 524 OFFCURVE",
"157 513 CURVE",
"162 495 OFFCURVE",
"164 476 OFFCURVE",
"167 457 CURVE",
"168 454 OFFCURVE",
"167 451 OFFCURVE",
"167 447 CURVE",
"167 395 OFFCURVE",
"167 342 OFFCURVE",
"167 289 CURVE",
"167 286 OFFCURVE",
"167 283 OFFCURVE",
"167 276 CURVE",
"175 278 OFFCURVE",
"182 280 OFFCURVE",
"189 282 CURVE",
"198 284 OFFCURVE",
"208 285 OFFCURVE",
"218 287 CURVE",
"223 288 OFFCURVE",
"228 291 OFFCURVE",
"232 292 CURVE",
"240 293 OFFCURVE",
"247 296 OFFCURVE",
"252 286 CURVE",
"255 278 OFFCURVE",
"260 271 OFFCURVE",
"265 265 CURVE",
"271 259 OFFCURVE",
"268 254 OFFCURVE",
"263 251 CURVE",
"255 246 OFFCURVE",
"246 242 OFFCURVE",
"236 239 CURVE",
"225 235 OFFCURVE",
"214 233 OFFCURVE",
"202 231 CURVE",
"197 230 OFFCURVE",
"192 229 OFFCURVE",
"187 229 CURVE",
"169 229 OFFCURVE",
"162 216 OFFCURVE",
"168 200 CURVE",
"170 196 OFFCURVE",
"172 191 OFFCURVE",
"172 187 CURVE",
"171 158 OFFCURVE",
"181 133 OFFCURVE",
"193 108 CURVE",
"197 101 OFFCURVE",
"198 95 OFFCURVE",
"190 89 CURVE",
"186 86 OFFCURVE",
"182 83 OFFCURVE",
"178 79 CURVE",
"166 67 OFFCURVE",
"163 68 OFFCURVE",
"146 73 CURVE",
"130 79 OFFCURVE",
"116 86 OFFCURVE",
"108 100 CURVE",
"106 104 OFFCURVE",
"106 110 OFFCURVE",
"109 113 CURVE",
"114 122 OFFCURVE",
"125 128 OFFCURVE",
"127 137 CURVE",
"130 145 OFFCURVE",
"125 156 OFFCURVE",
"124 166 CURVE",
"121 183 OFFCURVE",
"119 200 OFFCURVE",
"116 219 CURVE"
);
},
{
closed = 1;
nodes = (
"96 406 OFFCURVE",
"80 338 OFFCURVE",
"65 269 CURVE",
"68 269 OFFCURVE",
"69 268 OFFCURVE",
"70 268 CURVE SMOOTH",
"79 268 OFFCURVE",
"88 268 OFFCURVE",
"97 268 CURVE SMOOTH",
"116 268 OFFCURVE",
"119 270 OFFCURVE",
"118 288 CURVE SMOOTH",
"117 348 OFFCURVE",
"115 409 OFFCURVE",
"114 469 CURVE SMOOTH",
"114 471 OFFCURVE",
"113 472 OFFCURVE",
"112 477 CURVE"
);
}
);
width = 300;
}
);
unicode = 0061;
},
{
glyphname = b;
lastChange = "2020-11-22 11:04:49 +0000";
layers = (
{
layerId = "686D85FA-502B-420B-8C81-C7709808E604";
paths = (
{
closed = 1;
nodes = (
"143 70 OFFCURVE",
"149 58 OFFCURVE",
"153 45 CURVE",
"154 43 OFFCURVE",
"153 39 OFFCURVE",
"151 38 CURVE",
"144 33 OFFCURVE",
"136 29 OFFCURVE",
"129 27 CURVE",
"121 25 OFFCURVE",
"117 22 OFFCURVE",
"117 14 CURVE",
"117 -5 OFFCURVE",
"117 -24 OFFCURVE",
"117 -42 CURVE",
"117 -44 OFFCURVE",
"117 -46 OFFCURVE",
"117 -48 CURVE",
"118 -53 OFFCURVE",
"122 -61 OFFCURVE",
"120 -63 CURVE",
"113 -68 OFFCURVE",
"105 -71 OFFCURVE",
"97 -75 CURVE",
"95 -76 OFFCURVE",
"91 -74 OFFCURVE",
"89 -76 CURVE",
"76 -84 OFFCURVE",
"73 -72 OFFCURVE",
"70 -65 CURVE",
"66 -59 OFFCURVE",
"65 -51 OFFCURVE",
"64 -44 CURVE",
"62 -31 OFFCURVE",
"61 -17 OFFCURVE",
"59 -4 CURVE",
"58 0 OFFCURVE",
"53 5 OFFCURVE",
"49 7 CURVE",
"36 12 OFFCURVE",
"21 30 OFFCURVE",
"26 41 CURVE",
"29 50 OFFCURVE",
"36 58 OFFCURVE",
"43 65 CURVE",
"47 70 OFFCURVE",
"52 75 OFFCURVE",
"46 82 CURVE",
"45 83 OFFCURVE",
"45 85 OFFCURVE",
"45 87 CURVE",
"43 110 OFFCURVE",
"42 133 OFFCURVE",
"40 156 CURVE",
"37 180 OFFCURVE",
"33 204 OFFCURVE",
"31 228 CURVE",
"30 236 OFFCURVE",
"30 244 OFFCURVE",
"30 252 CURVE",
"9 258 OFFCURVE",
"2 283 OFFCURVE",
"18 297 CURVE",
"25 304 OFFCURVE",
"28 311 OFFCURVE",
"22 320 CURVE",
"21 321 OFFCURVE",
"21 323 OFFCURVE",
"21 324 CURVE",
"19 347 OFFCURVE",
"18 370 OFFCURVE",
"15 393 CURVE",
"13 416 OFFCURVE",
"10 438 OFFCURVE",
"7 461 CURVE",
"6 462 OFFCURVE",
"6 464 OFFCURVE",
"6 466 CURVE",
"4 487 OFFCURVE",
"3 508 OFFCURVE",
"1 529 CURVE",
"-1 548 OFFCURVE",
"-4 567 OFFCURVE",
"-9 586 CURVE",
"-13 602 OFFCURVE",
"-22 617 OFFCURVE",
"-27 633 CURVE",
"-29 640 OFFCURVE",
"-32 649 OFFCURVE",
"-20 653 CURVE",
"-12 656 OFFCURVE",
"-5 661 OFFCURVE",
"3 664 CURVE",
"11 668 OFFCURVE",
"17 663 OFFCURVE",
"20 657 CURVE",
"29 640 OFFCURVE",
"44 632 OFFCURVE",
"60 624 CURVE",
"79 616 OFFCURVE",
"98 610 OFFCURVE",
"118 602 CURVE",
"132 596 OFFCURVE",
"147 590 OFFCURVE",
"162 584 CURVE",
"173 580 OFFCURVE",
"184 577 OFFCURVE",
"195 573 CURVE",
"208 568 OFFCURVE",
"221 563 OFFCURVE",
"233 557 CURVE",
"247 550 OFFCURVE",
"261 543 OFFCURVE",
"275 535 CURVE",
"297 524 OFFCURVE",
"317 494 OFFCURVE",
"298 467 CURVE",
"288 451 OFFCURVE",
"276 437 OFFCURVE",
"259 427 CURVE",
"243 418 OFFCURVE",
"230 404 OFFCURVE",
"215 393 CURVE",
"199 382 OFFCURVE",
"183 371 OFFCURVE",
"167 360 CURVE",
"167 360 OFFCURVE",
"167 359 OFFCURVE",
"166 359 CURVE",
"152 346 OFFCURVE",
"137 333 OFFCURVE",
"123 318 CURVE",
"134 320 OFFCURVE",
"145 322 OFFCURVE",
"156 324 CURVE",
"158 324 OFFCURVE",
"161 326 OFFCURVE",
"163 326 CURVE",
"197 328 OFFCURVE",
"232 330 OFFCURVE",
"266 332 CURVE",
"272 332 OFFCURVE",
"278 335 OFFCURVE",
"284 336 CURVE",
"288 336 OFFCURVE",
"293 336 OFFCURVE",
"298 336 CURVE",
"308 335 OFFCURVE",
"318 333 OFFCURVE",
"328 331 CURVE",
"349 329 OFFCURVE",
"367 322 OFFCURVE",
"377 303 CURVE",
"380 296 OFFCURVE",
"380 287 OFFCURVE",
"378 281 CURVE",
"372 268 OFFCURVE",
"367 255 OFFCURVE",
"352 248 CURVE",
"342 243 OFFCURVE",
"334 233 OFFCURVE",
"325 227 CURVE",
"303 211 OFFCURVE",
"281 196 OFFCURVE",
"259 180 CURVE",
"243 169 OFFCURVE",
"228 155 OFFCURVE",
"212 143 CURVE",
"193 128 OFFCURVE",
"173 114 OFFCURVE",
"154 99 CURVE",
"148 94 OFFCURVE",
"143 88 OFFCURVE",
"137 83 CURVE"
);
},
{
closed = 1;
nodes = (
"247 493 OFFCURVE",
"242 498 OFFCURVE",
"237 501 CURVE",
"225 506 OFFCURVE",
"213 511 OFFCURVE",
"201 516 CURVE",
"181 524 OFFCURVE",
"162 532 OFFCURVE",
"142 539 CURVE",
"117 548 OFFCURVE",
"92 557 OFFCURVE",
"67 566 CURVE",
"56 570 OFFCURVE",
"53 569 OFFCURVE",
"55 558 CURVE",
"57 537 OFFCURVE",
"61 517 OFFCURVE",
"65 497 CURVE",
"67 488 OFFCURVE",
"68 479 OFFCURVE",
"70 469 CURVE",
"73 455 OFFCURVE",
"76 440 OFFCURVE",
"78 426 CURVE",
"81 408 OFFCURVE",
"82 390 OFFCURVE",
"84 372 CURVE",
"84 368 OFFCURVE",
"88 364 OFFCURVE",
"89 361 CURVE",
"145 404 OFFCURVE",
"199 445 OFFCURVE",
"255 488 CURVE"
);
},
{
closed = 1;
nodes = (
"176 180 OFFCURVE",
"243 230 OFFCURVE",
"313 282 CURVE",
"308 283 OFFCURVE",
"306 283 OFFCURVE",
"305 283 CURVE SMOOTH",
"260 284 OFFCURVE",
"215 282 OFFCURVE",
"171 274 CURVE SMOOTH",
"158 271 OFFCURVE",
"145 270 OFFCURVE",
"133 268 CURVE SMOOTH",
"124 267 OFFCURVE",
"114 266 OFFCURVE",
"106 263 CURVE SMOOTH",
"102 261 OFFCURVE",
"98 255 OFFCURVE",
"98 251 CURVE SMOOTH",
"98 242 OFFCURVE",
"102 233 OFFCURVE",
"103 223 CURVE SMOOTH",
"105 192 OFFCURVE",
"106 161 OFFCURVE",
"108 129 CURVE"
);
}
);
width = 400;
}
);
unicode = 0062;
},
{
glyphname = c;
lastChange = "2020-11-22 11:04:54 +0000";
layers = (
{
layerId = "686D85FA-502B-420B-8C81-C7709808E604";
paths = (
{
closed = 1;
nodes = (
"151 523 OFFCURVE",
"178 523 OFFCURVE",
"167 505 CURVE",
"164 504 OFFCURVE",
"160 504 OFFCURVE",
"155 503 CURVE",
"155 499 OFFCURVE",
"156 495 OFFCURVE",
"156 494 CURVE",
"147 488 OFFCURVE",
"138 483 OFFCURVE",
"130 477 CURVE SMOOTH",
"122 472 OFFCURVE",
"115 466 OFFCURVE",
"107 460 CURVE SMOOTH",
"106 459 OFFCURVE",
"106 458 OFFCURVE",
"105 456 CURVE SMOOTH",
"95 435 OFFCURVE",
"79 417 OFFCURVE",
"72 393 CURVE SMOOTH",
"65 372 OFFCURVE",
"56 352 OFFCURVE",
"52 330 CURVE SMOOTH",
"49 306 OFFCURVE",
"43 282 OFFCURVE",
"39 258 CURVE SMOOTH",
"38 255 OFFCURVE",
"37 251 OFFCURVE",
"39 249 CURVE SMOOTH",
"49 237 OFFCURVE",
"48 221 OFFCURVE",
"54 207 CURVE SMOOTH",
"60 190 OFFCURVE",
"74 177 OFFCURVE",
"94 175 CURVE SMOOTH",
"115 173 OFFCURVE",
"132 184 OFFCURVE",
"150 191 CURVE SMOOTH",
"162 197 OFFCURVE",
"174 205 OFFCURVE",
"187 211 CURVE SMOOTH",
"192 214 OFFCURVE",
"199 214 OFFCURVE",
"203 215 CURVE",
"209 220 OFFCURVE",
"213 225 OFFCURVE",
"218 229 CURVE SMOOTH",
"220 230 OFFCURVE",
"221 232 OFFCURVE",
"222 233 CURVE SMOOTH",
"224 248 OFFCURVE",
"236 255 OFFCURVE",
"248 263 CURVE SMOOTH",
"250 264 OFFCURVE",
"253 266 OFFCURVE",
"255 268 CURVE SMOOTH",
"262 277 OFFCURVE",
"268 286 OFFCURVE",
"276 293 CURVE SMOOTH",
"281 298 OFFCURVE",
"288 303 OFFCURVE",
"296 296 CURVE SMOOTH",
"302 290 OFFCURVE",
"309 283 OFFCURVE",
"316 277 CURVE SMOOTH",
"321 272 OFFCURVE",
"320 267 OFFCURVE",
"316 262 CURVE SMOOTH",
"288 232 OFFCURVE",
"259 204 OFFCURVE",
"226 180 CURVE SMOOTH",
"201 162 OFFCURVE",
"177 143 OFFCURVE",
"147 135 CURVE SMOOTH",
"115 126 OFFCURVE",
"80 117 OFFCURVE",
"50 138 CURVE SMOOTH",
"28 153 OFFCURVE",
"13 174 OFFCURVE",
"3 202 CURVE SMOOTH",
"-8 235 OFFCURVE",
"-4 267 OFFCURVE",
"-5 300 CURVE SMOOTH",
"-5 314 OFFCURVE",
"0 328 OFFCURVE",
"4 341 CURVE SMOOTH",
"7 354 OFFCURVE",
"9 367 OFFCURVE",
"14 379 CURVE SMOOTH",
"23 402 OFFCURVE",
"31 426 OFFCURVE",
"43 447 CURVE SMOOTH",
"57 470 OFFCURVE",
"74 492 OFFCURVE",
"92 511 CURVE SMOOTH",
"108 528 OFFCURVE",
"126 544 OFFCURVE",
"154 537 CURVE"
);
}
);
width = 300;
}
);
unicode = 0063;
},
{
glyphname = d;
lastChange = "2020-11-22 11:04:58 +0000";
layers = (
{
layerId = "686D85FA-502B-420B-8C81-C7709808E604";
paths = (
{
closed = 1;
nodes = (
"371 340 OFFCURVE",
"369 333 OFFCURVE",
"366 326 CURVE SMOOTH",
"352 296 OFFCURVE",
"337 266 OFFCURVE",
"322 237 CURVE SMOOTH",
"305 206 OFFCURVE",
"284 179 OFFCURVE",
"260 154 CURVE SMOOTH",
"228 122 OFFCURVE",
"197 89 OFFCURVE",
"165 56 CURVE SMOOTH",
"154 45 OFFCURVE",
"150 45 OFFCURVE",
"137 57 CURVE",
"137 53 OFFCURVE",
"136 49 OFFCURVE",
"137 46 CURVE SMOOTH",
"138 34 OFFCURVE",
"139 22 OFFCURVE",
"141 10 CURVE SMOOTH",
"144 -10 OFFCURVE",
"147 -29 OFFCURVE",
"151 -48 CURVE SMOOTH",
"154 -63 OFFCURVE",
"147 -75 OFFCURVE",
"131 -77 CURVE SMOOTH",
"122 -78 OFFCURVE",
"113 -77 OFFCURVE",
"102 -77 CURVE",
"99 -56 OFFCURVE",
"96 -36 OFFCURVE",
"92 -15 CURVE SMOOTH",
"89 4 OFFCURVE",
"84 22 OFFCURVE",
"80 41 CURVE SMOOTH",
"77 52 OFFCURVE",
"76 63 OFFCURVE",
"73 74 CURVE SMOOTH",
"69 94 OFFCURVE",
"64 114 OFFCURVE",
"60 134 CURVE SMOOTH",
"56 153 OFFCURVE",
"53 172 OFFCURVE",
"50 191 CURVE SMOOTH",
"49 194 OFFCURVE",
"46 197 OFFCURVE",
"45 200 CURVE SMOOTH",
"41 214 OFFCURVE",
"38 229 OFFCURVE",
"35 243 CURVE SMOOTH",
"33 249 OFFCURVE",
"32 256 OFFCURVE",
"31 262 CURVE SMOOTH",
"30 264 OFFCURVE",
"29 266 OFFCURVE",
"30 268 CURVE SMOOTH",
"35 277 OFFCURVE",
"31 283 OFFCURVE",
"26 291 CURVE SMOOTH",
"24 294 OFFCURVE",
"25 302 OFFCURVE",
"27 303 CURVE SMOOTH",
"31 305 OFFCURVE",
"37 305 OFFCURVE",
"42 304 CURVE SMOOTH",
"43 304 OFFCURVE",
"44 298 OFFCURVE",
"44 295 CURVE SMOOTH",
"44 293 OFFCURVE",
"40 292 OFFCURVE",
"39 290 CURVE SMOOTH",
"37 287 OFFCURVE",
"35 283 OFFCURVE",
"36 281 CURVE SMOOTH",
"39 277 OFFCURVE",
"57 280 OFFCURVE",
"59 285 CURVE SMOOTH",
"62 294 OFFCURVE",
"66 292 OFFCURVE",
"71 287 CURVE SMOOTH",
"78 278 OFFCURVE",
"84 269 OFFCURVE",
"84 256 CURVE SMOOTH",
"84 243 OFFCURVE",
"89 231 OFFCURVE",
"92 218 CURVE SMOOTH",
"93 217 OFFCURVE",
"92 215 OFFCURVE",
"92 212 CURVE",
"83 212 OFFCURVE",
"75 212 OFFCURVE",
"67 213 CURVE SMOOTH",
"55 213 OFFCURVE",
"54 211 OFFCURVE",
"56 200 CURVE",
"69 202 OFFCURVE",
"82 203 OFFCURVE",
"94 205 CURVE",
"107 169 OFFCURVE",
"105 130 OFFCURVE",
"128 97 CURVE",
"168 126 OFFCURVE",
"200 162 OFFCURVE",
"233 199 CURVE SMOOTH",
"258 227 OFFCURVE",
"280 258 OFFCURVE",
"298 291 CURVE SMOOTH",
"306 307 OFFCURVE",
"313 324 OFFCURVE",
"320 340 CURVE SMOOTH",
"325 356 OFFCURVE",
"315 375 OFFCURVE",
"298 386 CURVE SMOOTH",
"287 393 OFFCURVE",
"276 402 OFFCURVE",
"265 410 CURVE SMOOTH",
"247 424 OFFCURVE",
"228 438 OFFCURVE",
"210 452 CURVE SMOOTH",
"198 461 OFFCURVE",
"187 471 OFFCURVE",
"175 482 CURVE SMOOTH",
"160 494 OFFCURVE",
"146 507 OFFCURVE",
"131 520 CURVE SMOOTH",
"93 554 OFFCURVE",
"55 588 OFFCURVE",
"17 622 CURVE",
"11 609 OFFCURVE",
"12 597 OFFCURVE",
"19 584 CURVE SMOOTH",
"23 576 OFFCURVE",
"23 566 OFFCURVE",
"25 557 CURVE SMOOTH",
"27 542 OFFCURVE",
"28 527 OFFCURVE",
"30 512 CURVE SMOOTH",
"31 504 OFFCURVE",
"32 495 OFFCURVE",
"31 487 CURVE SMOOTH",
"31 480 OFFCURVE",
"28 473 OFFCURVE",
"26 466 CURVE",
"33 464 OFFCURVE",
"42 463 OFFCURVE",
"39 451 CURVE",
"34 449 OFFCURVE",
"30 447 OFFCURVE",
"25 445 CURVE",
"26 444 OFFCURVE",
"26 443 OFFCURVE",
"26 442 CURVE",
"30 441 OFFCURVE",
"34 441 OFFCURVE",
"37 440 CURVE",
"50 426 OFFCURVE",
"51 410 OFFCURVE",
"49 395 CURVE",
"40 389 OFFCURVE",
"33 383 OFFCURVE",
"26 378 CURVE",
"29 372 OFFCURVE",
"31 366 OFFCURVE",
"36 362 CURVE SMOOTH",
"38 360 OFFCURVE",
"44 362 OFFCURVE",
"47 363 CURVE SMOOTH",
"49 364 OFFCURVE",
"49 369 OFFCURVE",
"52 375 CURVE",
"55 370 OFFCURVE",
"58 368 OFFCURVE",
"59 365 CURVE SMOOTH",
"59 359 OFFCURVE",
"59 353 OFFCURVE",
"59 347 CURVE SMOOTH",
"59 344 OFFCURVE",
"60 341 OFFCURVE",
"62 339 CURVE SMOOTH",
"69 332 OFFCURVE",
"73 316 OFFCURVE",
"68 308 CURVE SMOOTH",
"67 306 OFFCURVE",
"65 305 OFFCURVE",
"63 304 CURVE SMOOTH",
"62 304 OFFCURVE",
"59 306 OFFCURVE",
"59 307 CURVE SMOOTH",
"58 318 OFFCURVE",
"50 314 OFFCURVE",
"45 313 CURVE SMOOTH",
"39 313 OFFCURVE",
"35 311 OFFCURVE",
"33 319 CURVE SMOOTH",
"33 321 OFFCURVE",
"29 322 OFFCURVE",
"27 323 CURVE SMOOTH",
"24 326 OFFCURVE",
"19 328 OFFCURVE",
"18 331 CURVE SMOOTH",
"13 348 OFFCURVE",
"5 366 OFFCURVE",
"7 383 CURVE SMOOTH",
"8 399 OFFCURVE",
"4 409 OFFCURVE",
"-2 422 CURVE SMOOTH",
"-7 430 OFFCURVE",
"-7 440 OFFCURVE",
"-9 449 CURVE SMOOTH",
"-12 464 OFFCURVE",
"-15 480 OFFCURVE",
"-18 495 CURVE SMOOTH",
"-20 504 OFFCURVE",
"-22 513 OFFCURVE",
"-23 522 CURVE SMOOTH",
"-25 536 OFFCURVE",
"-26 551 OFFCURVE",
"-29 565 CURVE SMOOTH",
"-38 617 OFFCURVE",
"-30 671 OFFCURVE",
"-33 724 CURVE SMOOTH",
"-34 735 OFFCURVE",
"-31 741 OFFCURVE",
"-18 741 CURVE SMOOTH",
"-11 740 OFFCURVE",
"-2 743 OFFCURVE",
"3 740 CURVE SMOOTH",
"9 735 OFFCURVE",
"13 727 OFFCURVE",
"15 719 CURVE SMOOTH",
"19 700 OFFCURVE",
"21 680 OFFCURVE",
"43 670 CURVE SMOOTH",
"47 668 OFFCURVE",
"50 661 OFFCURVE",
"53 656 CURVE SMOOTH",
"54 655 OFFCURVE",
"56 654 OFFCURVE",
"57 653 CURVE SMOOTH",
"70 641 OFFCURVE",
"84 628 OFFCURVE",
"98 615 CURVE SMOOTH",
"115 600 OFFCURVE",
"133 584 OFFCURVE",
"150 569 CURVE SMOOTH",
"172 550 OFFCURVE",
"194 531 OFFCURVE",
"217 512 CURVE SMOOTH",
"236 497 OFFCURVE",
"256 483 OFFCURVE",
"275 468 CURVE SMOOTH",
"283 462 OFFCURVE",
"291 455 OFFCURVE",
"300 449 CURVE SMOOTH",
"317 434 OFFCURVE",
"335 421 OFFCURVE",
"351 406 CURVE SMOOTH",
"359 398 OFFCURVE",
"363 387 OFFCURVE",
"369 377 CURVE SMOOTH",
"371 374 OFFCURVE",
"375 373 OFFCURVE",
"379 370 CURVE",
"379 361 OFFCURVE",
"379 353 OFFCURVE",
"379 344 CURVE"
);
}
);
width = 400;
}
);
unicode = 0064;
},
{
glyphname = e;
lastChange = "2020-11-22 11:05:00 +0000";
layers = (
{
layerId = "686D85FA-502B-420B-8C81-C7709808E604";
paths = (
{
closed = 1;
nodes = (
"214.433 323.752 OFFCURVE",
"202.1 320.31 OFFCURVE",
"190.654 311.376 CURVE",
"185.698 307.508 OFFCURVE",
"178.699 306.26 OFFCURVE",
"172.353 303.711 CURVE",
"163.36 318.039 OFFCURVE",
"149.743 310.903 OFFCURVE",
"138.061 311.781 CURVE",
"137.179 310.661 OFFCURVE",
"136.247 310.019 OFFCURVE",
"136.292 309.453 CURVE",
"137.393 295.55 OFFCURVE",
"136.699 283.453 OFFCURVE",
"117.064 287.438 CURVE",
"115.37 287.782 OFFCURVE",
"112.972 285.437 OFFCURVE",
"111.114 284.055 CURVE",
"103.915 278.704 OFFCURVE",
"96.891 273.115 OFFCURVE",
"89.637 267.842 CURVE",
"78.514 259.757 OFFCURVE",
"73.739 237.496 OFFCURVE",
"80.402 224.589 CURVE",
"81.449 222.559 OFFCURVE",
"82.338 220.202 OFFCURVE",
"82.429 217.96 CURVE",
"84.153 175.795 OFFCURVE",
"85.577 133.618 OFFCURVE",
"87.47 91.462 CURVE",
"88.002 79.618 OFFCURVE",
"89.833 67.834 OFFCURVE",
"91.311 53.698 CURVE",
"104.975 59.183 OFFCURVE",
"115.323 63.953 OFFCURVE",
"126.076 67.487 CURVE",
"137.818 71.346 OFFCURVE",
"150.145 73.449 OFFCURVE",
"161.826 77.458 CURVE",
"172.397 81.085 OFFCURVE",
"182.32 86.559 OFFCURVE",
"192.75 90.653 CURVE",
"204.748 95.363 OFFCURVE",
"216.91 99.693 OFFCURVE",
"229.144 103.756 CURVE",
"248.513 110.188 OFFCURVE",
"270.239 109.958 OFFCURVE",
"286.235 125.942 CURVE",
"290.8 130.504 OFFCURVE",
"298.452 131.978 OFFCURVE",
"305.015 135.019 CURVE",
"305.015 145.742 OFFCURVE",
"305.268 156.208 OFFCURVE",
"304.927 166.654 CURVE",
"304.697 173.693 OFFCURVE",
"307 176.974 OFFCURVE",
"314.552 176.749 CURVE",
"327.838 176.353 OFFCURVE",
"341.153 176.94 OFFCURVE",
"354.439 176.538 CURVE",
"366.666 176.167 OFFCURVE",
"378.841 166.792 OFFCURVE",
"381.519 156.301 CURVE",
"381.802 155.188 OFFCURVE",
"380.463 153.754 OFFCURVE",
"380.404 152.446 CURVE",
"380.196 147.762 OFFCURVE",
"380.393 143.057 OFFCURVE",
"380.088 138.383 CURVE",
"379.855 134.807 OFFCURVE",
"380.41 129.648 OFFCURVE",
"378.353 127.973 CURVE",
"365.851 117.798 OFFCURVE",
"352.962 108.029 OFFCURVE",
"339.555 99.095 CURVE",
"336.749 97.225 OFFCURVE",
"331.236 99.418 OFFCURVE",
"327.624 97.726 CURVE",
"321.398 96.419 OFFCURVE",
"315.226 94.541 OFFCURVE",
"308.934 93.958 CURVE",
"301.835 93.3 OFFCURVE",
"294.628 93.806 OFFCURVE",
"284.152 93.806 CURVE",
"287.787 87.363 OFFCURVE",
"290.556 82.453 OFFCURVE",
"294.79 74.95 CURVE",
"268.674 65.214 OFFCURVE",
"242.835 55.604 OFFCURVE",
"217.013 45.949 CURVE",
"184.128 33.654 OFFCURVE",
"151.51 20.57 OFFCURVE",
"118.262 9.351 CURVE",
"103.594 4.402 OFFCURVE",
"89.626 -2.908 OFFCURVE",
"71.833 1.211 CURVE",
"57.212 4.595 OFFCURVE",
"49.435 12.523 OFFCURVE",
"44.8 24.026 CURVE",
"40.917 33.663 OFFCURVE",
"39.751 44.758 OFFCURVE",
"39.185 55.305 CURVE",
"37.034 95.342 OFFCURVE",
"35.82 135.429 OFFCURVE",
"33.845 175.477 CURVE",
"32.741 197.874 OFFCURVE",
"30.856 220.234 OFFCURVE",
"29.273 242.607 CURVE",
"27.387 269.261 OFFCURVE",
"25.476 295.913 OFFCURVE",
"23.525 322.562 CURVE",
"20.612 362.358 OFFCURVE",
"17.727 402.156 OFFCURVE",
"14.609 441.936 CURVE",
"14.273 446.232 OFFCURVE",
"12.54 450.432 OFFCURVE",
"11.338 454.644 CURVE",
"9.092 462.52 OFFCURVE",
"11.26 468.005 OFFCURVE",
"18.53 472.575 CURVE",
"21.603 474.507 OFFCURVE",
"23.701 479.76 OFFCURVE",
"24.002 483.676 CURVE",
"24.187 486.09 OFFCURVE",
"20.177 488.857 OFFCURVE",
"17.986 491.411 CURVE",
"16.8 492.792 OFFCURVE",
"15.086 493.855 OFFCURVE",
"14.283 495.409 CURVE",
"9.572 504.528 OFFCURVE",
"4.832 513.648 OFFCURVE",
"0.636 523.008 CURVE",
"-0.412 525.347 OFFCURVE",
"-0.045 528.703 OFFCURVE",
"0.612 531.359 CURVE",
"3.415 542.684 OFFCURVE",
"6.687 553.893 OFFCURVE",
"9.499 565.216 CURVE",
"10.052 567.446 OFFCURVE",
"10.058 570.357 OFFCURVE",
"9.073 572.335 CURVE",
"3.81 582.913 OFFCURVE",
"7.022 593.014 OFFCURVE",
"8.527 603.862 CURVE",
"9.991 614.418 OFFCURVE",
"5.676 625.652 OFFCURVE",
"5.492 636.614 CURVE",
"5.398 642.219 OFFCURVE",
"8.116 648.244 OFFCURVE",
"10.856 653.39 CURVE",
"12.601 656.667 OFFCURVE",
"16.719 658.682 OFFCURVE",
"19.772 661.263 CURVE",
"22.173 658.158 OFFCURVE",
"24.574 655.054 OFFCURVE",
"27.742 650.957 CURVE",
"32.041 650.47 OFFCURVE",
"38.486 647.608 OFFCURVE",
"39.623 657.524 CURVE",
"39.77 658.8 OFFCURVE",
"44.745 661.074 OFFCURVE",
"45.853 660.359 CURVE",
"48.034 658.952 OFFCURVE",
"50.682 655.481 OFFCURVE",
"50.304 653.372 CURVE",
"48.49 643.244 OFFCURVE",
"41.834 638.108 OFFCURVE",
"31.575 636.686 CURVE",
"29.065 636.337 OFFCURVE",
"26.989 632.855 OFFCURVE",
"24.713 630.814 CURVE",
"27.122 628.879 OFFCURVE",
"29.348 625.574 OFFCURVE",
"31.969 625.223 CURVE",
"54.509 622.211 OFFCURVE",
"56.8 619.015 OFFCURVE",
"52.593 593.335 CURVE",
"47.135 593.58 OFFCURVE",
"40.702 588.474 OFFCURVE",
"37.537 598.738 CURVE",
"36.797 601.135 OFFCURVE",
"30.165 601.716 OFFCURVE",
"25.439 603.424 CURVE",
"25.598 603.156 OFFCURVE",
"25.154 603.814 OFFCURVE",
"24.8 604.517 CURVE",
"22.796 608.493 OFFCURVE",
"20.814 612.479 OFFCURVE",
"18.824 616.462 CURVE",
"17.469 612.387 OFFCURVE",
"15.118 608.352 OFFCURVE",
"14.949 604.228 CURVE",
"14.505 593.375 OFFCURVE",
"14.992 582.483 OFFCURVE",
"15.173 571.608 CURVE",
"15.185 570.868 OFFCURVE",
"15.732 570.138 OFFCURVE",
"17.686 565.32 CURVE",
"20.937 570.825 OFFCURVE",
"23.092 573.977 OFFCURVE",
"24.73 577.378 CURVE",
"26.668 581.403 OFFCURVE",
"28.159 585.642 OFFCURVE",
"29.844 589.789 CURVE",
"32.74 586.031 OFFCURVE",
"37.335 582.614 OFFCURVE",
"38.171 578.443 CURVE",
"39.809 570.28 OFFCURVE",
"42.296 570.891 OFFCURVE",
"50.163 571.342 CURVE",
"61.79 572.008 OFFCURVE",
"72.497 577.394 OFFCURVE",
"85.147 575.129 CURVE",
"93.825 573.575 OFFCURVE",
"104.037 580.828 OFFCURVE",
"113.615 583.986 CURVE",
"120.77 586.344 OFFCURVE",
"128.012 588.437 OFFCURVE",
"135.208 590.669 CURVE",
"152.881 596.148 OFFCURVE",
"170.576 601.557 OFFCURVE",
"188.213 607.149 CURVE",
"206.762 613.03 OFFCURVE",
"225.211 619.23 OFFCURVE",
"243.804 624.967 CURVE",
"247.948 626.246 OFFCURVE",
"252.665 625.639 OFFCURVE",
"256.838 626.857 CURVE",
"261.722 628.283 OFFCURVE",
"266.266 630.842 OFFCURVE",
"271.022 632.749 CURVE",
"275.844 634.684 OFFCURVE",
"280.612 637.022 OFFCURVE",
"285.636 638.128 CURVE",
"296.67 640.556 OFFCURVE",
"307.787 643.094 OFFCURVE",
"319 644.013 CURVE",
"324.315 644.448 OFFCURVE",
"330.041 641.729 OFFCURVE",
"328.807 633.579 CURVE",
"328.513 631.639 OFFCURVE",
"330.833 628.464 OFFCURVE",
"332.81 627.16 CURVE",
"343.854 619.874 OFFCURVE",
"347.482 609.374 OFFCURVE",
"342.11 597.811 CURVE",
"334.433 581.288 OFFCURVE",
"326.736 564.768 OFFCURVE",
"318.615 548.461 CURVE",
"316.176 543.562 OFFCURVE",
"313.117 539.348 OFFCURVE",
"305.512 541.652 CURVE",
"298.561 543.758 OFFCURVE",
"290.81 543.087 OFFCURVE",
"283.489 544.167 CURVE",
"279.443 544.764 OFFCURVE",
"272.648 545.727 OFFCURVE",
"272.146 547.767 CURVE",
"270.679 553.742 OFFCURVE",
"270.667 560.605 OFFCURVE",
"272.143 566.614 CURVE",
"273.437 571.884 OFFCURVE",
"277.513 576.47 OFFCURVE",
"280.36 581.358 CURVE",
"279.873 582.505 OFFCURVE",
"279.386 583.652 OFFCURVE",
"278.899 584.799 CURVE",
"270.047 582.271 OFFCURVE",
"261.069 580.113 OFFCURVE",
"252.367 577.147 CURVE",
"225.753 568.074 OFFCURVE",
"199.467 557.967 OFFCURVE",
"172.592 549.773 CURVE",
"161.342 546.343 OFFCURVE",
"148.931 546.718 OFFCURVE",
"137.017 545.339 CURVE",
"136.548 551.098 OFFCURVE",
"136.811 557.07 OFFCURVE",
"135.331 562.573 CURVE",
"134.733 564.794 OFFCURVE",
"130.324 565.991 OFFCURVE",
"127.649 567.654 CURVE",
"127.362 561.431 OFFCURVE",
"126.32 555.087 OFFCURVE",
"127.281 549.063 CURVE",
"127.545 547.405 OFFCURVE",
"133.79 546.7 OFFCURVE",
"137.29 545.558 CURVE",
"135.366 543.687 OFFCURVE",
"133.759 540.968 OFFCURVE",
"131.457 540.11 CURVE",
"125.553 537.909 OFFCURVE",
"119.427 535.976 OFFCURVE",
"113.223 535.014 CURVE",
"108.681 534.311 OFFCURVE",
"102.369 531.761 OFFCURVE",
"101.318 540.438 CURVE",
"101.155 541.788 OFFCURVE",
"97.777 543.835 OFFCURVE",
"96.168 543.603 CURVE",
"94.703 543.392 OFFCURVE",
"92.457 540.44 OFFCURVE",
"92.568 538.835 CURVE",
"93.128 530.698 OFFCURVE",
"89.178 528.812 OFFCURVE",
"81.788 528.461 CURVE",
"75.989 528.186 OFFCURVE",
"70.156 525.933 OFFCURVE",
"64.607 523.844 CURVE",
"58.431 521.52 OFFCURVE",
"56.142 507.245 OFFCURVE",
"58.716 496.475 CURVE",
"60.892 487.367 OFFCURVE",
"62.387 477.986 OFFCURVE",
"63.012 468.647 CURVE",
"63.737 457.826 OFFCURVE",
"62.704 446.894 OFFCURVE",
"63.278 436.054 CURVE",
"64.585 411.325 OFFCURVE",
"65.917 386.578 OFFCURVE",
"68.205 361.928 CURVE",
"69.571 347.225 OFFCURVE",
"72.766 332.691 OFFCURVE",
"75.37 316.661 CURVE",
"78.697 318.126 OFFCURVE",
"82.593 320.101 OFFCURVE",
"86.666 321.59 CURVE",
"109.555 329.962 OFFCURVE",
"132.424 338.394 OFFCURVE",
"155.422 346.458 CURVE",
"175.545 353.514 OFFCURVE",
"196.623 358.43 OFFCURVE",
"215.77 367.481 CURVE",
"229.325 373.889 OFFCURVE",
"241.369 376.796 OFFCURVE",
"255.221 371.392 CURVE",
"255.969 371.1 OFFCURVE",
"257.14 371.158 OFFCURVE",
"257.471 370.641 CURVE",
"263.98 360.484 OFFCURVE",
"270.393 350.267 OFFCURVE",
"279.076 336.492 CURVE",
"287.105 333.605 OFFCURVE",
"290.387 319.847 OFFCURVE",
"280.906 309.547 CURVE",
"275.599 303.782 OFFCURVE",
"270.31 298 OFFCURVE",
"264.961 292.168 CURVE",
"258.588 297.71 OFFCURVE",
"254.319 301.312 OFFCURVE",
"247.255 291.307 CURVE",
"243.976 286.662 OFFCURVE",
"231.705 286.889 OFFCURVE",
"223.768 287.636 CURVE",
"219.849 288.005 OFFCURVE",
"216.513 294.567 OFFCURVE",
"212.913 298.327 CURVE",
"214.287 298.363 OFFCURVE",
"215.66 298.398 OFFCURVE",
"217.034 298.434 CURVE",
"220.769 306.273 OFFCURVE",
"224.504 314.114 OFFCURVE",
"228.228 321.965 CURVE",
"237.242 325.129 OFFCURVE",
"237.61 332.652 OFFCURVE",
"236.864 340.242 CURVE",
"236.675 342.16 OFFCURVE",
"233.898 343.823 OFFCURVE",
"232.31 345.604 CURVE",
"230.68 343.891 OFFCURVE",
"227.725 342.227 OFFCURVE",
"227.66 340.456 CURVE",
"227.43 334.194 OFFCURVE",
"228.19 327.896 OFFCURVE",
"228.574 321.612 CURVE"
);
},
{
closed = 1;
nodes = (
"14.688 695.759 OFFCURVE",
"19.831 701.587 OFFCURVE",
"22.579 708.384 CURVE SMOOTH",
"24.813 713.908 OFFCURVE",
"24.174 720.593 OFFCURVE",
"24.865 727.306 CURVE",
"17.757 727.708 OFFCURVE",
"12.289 728.018 OFFCURVE",
"7.909 728.265 CURVE",
"8.806 747.57 OFFCURVE",
"9.663 766.025 OFFCURVE",
"10.539 784.886 CURVE",
"24.491 786.609 OFFCURVE",
"38.053 788.283 OFFCURVE",
"53.513 790.191 CURVE",
"49.512 776.197 OFFCURVE",
"60.692 762.715 OFFCURVE",
"54.06 747.997 CURVE SMOOTH",
"53.219 746.131 OFFCURVE",
"55.559 742.93 OFFCURVE",
"56.162 740.288 CURVE SMOOTH",
"56.858 737.244 OFFCURVE",
"57.958 734.066 OFFCURVE",
"57.667 731.063 CURVE SMOOTH",
"56.596 720.011 OFFCURVE",
"50.909 707.206 OFFCURVE",
"54.735 698.464 CURVE SMOOTH",
"59.004 688.709 OFFCURVE",
"54.786 683.003 OFFCURVE",
"52.47 676.118 CURVE SMOOTH",
"51.439 673.052 OFFCURVE",
"45.829 669.148 OFFCURVE",
"42.905 669.596 CURVE SMOOTH",
"36.956 670.507 OFFCURVE",
"31.42 674.115 OFFCURVE",
"25.714 676.612 CURVE",
"27.89 678.648 OFFCURVE",
"30.097 680.652 OFFCURVE",
"32.233 682.729 CURVE SMOOTH",
"34.48 684.913 OFFCURVE",
"36.873 687.017 OFFCURVE",
"38.633 689.552 CURVE SMOOTH",
"38.89 689.922 OFFCURVE",
"35.843 693.895 OFFCURVE",
"34.573 693.765 CURVE SMOOTH",
"31.069 693.408 OFFCURVE",
"25.141 692.374 OFFCURVE",
"24.696 690.52 CURVE SMOOTH",
"22.3 680.543 OFFCURVE",
"17.255 685.258 OFFCURVE",
"9.378 687.684 CURVE"
);
}
);
width = 400;
}
);
unicode = 0065;
},
{
glyphname = f;
lastChange = "2020-11-22 11:05:06 +0000";
layers = (
{
layerId = "686D85FA-502B-420B-8C81-C7709808E604";
paths = (
{
closed = 1;
nodes = (
"31 525 OFFCURVE",
"33 512 OFFCURVE",
"35 498 CURVE SMOOTH",
"35 496 OFFCURVE",
"35 494 OFFCURVE",
"36 492 CURVE SMOOTH",
"39 471 OFFCURVE",
"42 450 OFFCURVE",
"45 428 CURVE SMOOTH",
"45 425 OFFCURVE",
"45 422 OFFCURVE",
"45 418 CURVE SMOOTH",
"48 399 OFFCURVE",
"52 379 OFFCURVE",
"54 360 CURVE SMOOTH",
"55 351 OFFCURVE",
"55 342 OFFCURVE",
"56 333 CURVE",
"63 335 OFFCURVE",
"69 337 OFFCURVE",
"76 337 CURVE SMOOTH",
"81 337 OFFCURVE",
"85 333 OFFCURVE",
"90 330 CURVE SMOOTH",
"92 329 OFFCURVE",
"94 328 OFFCURVE",
"96 328 CURVE SMOOTH",
"115 327 OFFCURVE",
"132 331 OFFCURVE",
"150 337 CURVE SMOOTH",
"160 340 OFFCURVE",
"171 340 OFFCURVE",
"181 342 CURVE SMOOTH",
"193 345 OFFCURVE",
"204 348 OFFCURVE",
"216 351 CURVE SMOOTH",
"224 353 OFFCURVE",
"231 355 OFFCURVE",
"239 357 CURVE SMOOTH",
"254 360 OFFCURVE",
"269 362 OFFCURVE",
"284 367 CURVE SMOOTH",
"291 370 OFFCURVE",
"298 374 OFFCURVE",
"304 367 CURVE SMOOTH",
"312 360 OFFCURVE",
"321 352 OFFCURVE",
"325 342 CURVE SMOOTH",
"330 330 OFFCURVE",
"323 319 OFFCURVE",
"315 309 CURVE SMOOTH",
"309 302 OFFCURVE",
"301 296 OFFCURVE",
"294 289 CURVE SMOOTH",
"289 284 OFFCURVE",
"284 283 OFFCURVE",
"279 289 CURVE SMOOTH",
"277 291 OFFCURVE",
"274 292 OFFCURVE",
"273 295 CURVE SMOOTH",
"263 313 OFFCURVE",
"248 305 OFFCURVE",
"235 302 CURVE SMOOTH",
"225 300 OFFCURVE",
"216 296 OFFCURVE",
"206 294 CURVE SMOOTH",
"188 290 OFFCURVE",
"169 287 OFFCURVE",
"150 284 CURVE SMOOTH",
"129 281 OFFCURVE",
"108 278 OFFCURVE",
"87 274 CURVE SMOOTH",
"80 273 OFFCURVE",
"73 270 OFFCURVE",
"66 268 CURVE",
"65 266 OFFCURVE",
"64 262 OFFCURVE",
"65 259 CURVE SMOOTH",
"68 239 OFFCURVE",
"71 219 OFFCURVE",
"74 199 CURVE SMOOTH",
"74 198 OFFCURVE",
"74 197 OFFCURVE",
"74 196 CURVE SMOOTH",
"76 172 OFFCURVE",
"77 148 OFFCURVE",
"79 124 CURVE SMOOTH",
"82 98 OFFCURVE",
"85 72 OFFCURVE",
"89 46 CURVE SMOOTH",
"89 45 OFFCURVE",
"89 44 OFFCURVE",
"89 43 CURVE SMOOTH",
"91 8 OFFCURVE",
"93 -27 OFFCURVE",
"95 -62 CURVE SMOOTH",
"95 -70 OFFCURVE",
"92 -74 OFFCURVE",
"85 -77 CURVE SMOOTH",
"60 -89 OFFCURVE",
"41 -78 OFFCURVE",
"40 -50 CURVE SMOOTH",
"40 -27 OFFCURVE",
"38 -4 OFFCURVE",
"35 18 CURVE SMOOTH",
"33 45 OFFCURVE",
"29 71 OFFCURVE",
"26 98 CURVE SMOOTH",
"22 124 OFFCURVE",
"19 150 OFFCURVE",
"16 176 CURVE SMOOTH",
"13 202 OFFCURVE",
"10 227 OFFCURVE",
"6 252 CURVE SMOOTH",
"3 273 OFFCURVE",
"0 294 OFFCURVE",
"-3 315 CURVE SMOOTH",
"-7 339 OFFCURVE",
"-13 363 OFFCURVE",
"-17 387 CURVE SMOOTH",
"-20 401 OFFCURVE",
"-20 416 OFFCURVE",
"-22 430 CURVE SMOOTH",
"-25 447 OFFCURVE",
"-28 464 OFFCURVE",
"-30 481 CURVE SMOOTH",
"-31 483 OFFCURVE",
"-32 485 OFFCURVE",
"-32 488 CURVE SMOOTH",
"-34 507 OFFCURVE",
"-33 526 OFFCURVE",
"-38 545 CURVE SMOOTH",
"-45 575 OFFCURVE",
"-39 606 OFFCURVE",
"-42 636 CURVE SMOOTH",
"-43 648 OFFCURVE",
"-37 652 OFFCURVE",
"-26 652 CURVE SMOOTH",
"-21 652 OFFCURVE",
"-16 654 OFFCURVE",
"-11 656 CURVE SMOOTH",
"-4 658 OFFCURVE",
"6 649 OFFCURVE",
"7 641 CURVE SMOOTH",
"7 632 OFFCURVE",
"7 623 OFFCURVE",
"7 614 CURVE SMOOTH",
"6 605 OFFCURVE",
"12 601 OFFCURVE",
"19 599 CURVE SMOOTH",
"34 595 OFFCURVE",
"49 589 OFFCURVE",
"65 587 CURVE SMOOTH",
"82 584 OFFCURVE",
"97 590 OFFCURVE",
"113 591 CURVE SMOOTH",
"114 592 OFFCURVE",
"115 593 OFFCURVE",
"117 593 CURVE SMOOTH",
"135 595 OFFCURVE",
"154 596 OFFCURVE",
"172 599 CURVE SMOOTH",
"184 601 OFFCURVE",
"196 605 OFFCURVE",
"208 608 CURVE SMOOTH",
"210 608 OFFCURVE",
"212 608 OFFCURVE",
"215 608 CURVE SMOOTH",
"230 611 OFFCURVE",
"246 615 OFFCURVE",
"261 618 CURVE SMOOTH",
"271 620 OFFCURVE",
"282 621 OFFCURVE",
"292 623 CURVE SMOOTH",
"295 623 OFFCURVE",
"299 623 OFFCURVE",
"301 624 CURVE SMOOTH",
"311 630 OFFCURVE",
"318 630 OFFCURVE",
"323 618 CURVE SMOOTH",
"326 611 OFFCURVE",
"334 605 OFFCURVE",
"335 597 CURVE SMOOTH",
"336 590 OFFCURVE",
"334 580 OFFCURVE",
"331 573 CURVE SMOOTH",
"324 560 OFFCURVE",
"317 548 OFFCURVE",
"308 537 CURVE SMOOTH",
"304 530 OFFCURVE",
"295 532 OFFCURVE",
"289 537 CURVE SMOOTH",
"280 544 OFFCURVE",
"272 554 OFFCURVE",
"263 562 CURVE SMOOTH",
"261 564 OFFCURVE",
"257 565 OFFCURVE",
"255 564 CURVE SMOOTH",
"243 562 OFFCURVE",
"232 558 OFFCURVE",
"221 555 CURVE SMOOTH",
"207 553 OFFCURVE",
"193 552 OFFCURVE",
"179 550 CURVE SMOOTH",
"162 548 OFFCURVE",
"146 544 OFFCURVE",
"130 542 CURVE SMOOTH",
"127 541 OFFCURVE",
"124 541 OFFCURVE",
"121 541 CURVE SMOOTH",
"105 539 OFFCURVE",
"90 537 OFFCURVE",
"75 537 CURVE SMOOTH",
"66 536 OFFCURVE",
"58 538 OFFCURVE",
"49 539 CURVE SMOOTH",
"43 539 OFFCURVE",
"38 540 OFFCURVE",
"29 541 CURVE"
);
}
);
width = 400;
}
);
unicode = 0066;
},
{
glyphname = g;
lastChange = "2020-11-22 11:05:10 +0000";
layers = (
{
layerId = "686D85FA-502B-420B-8C81-C7709808E604";
paths = (
{
closed = 1;
nodes = (
"178 918 OFFCURVE",
"183 915 OFFCURVE",
"189 914 CURVE SMOOTH",
"209 912 OFFCURVE",
"228 906 OFFCURVE",
"242 890 CURVE SMOOTH",
"257 872 OFFCURVE",
"268 851 OFFCURVE",
"274 828 CURVE SMOOTH",
"289 774 OFFCURVE",
"282 720 OFFCURVE",
"282 666 CURVE SMOOTH",
"282 644 OFFCURVE",
"274 623 OFFCURVE",
"270 601 CURVE SMOOTH",
"268 590 OFFCURVE",
"269 579 OFFCURVE",
"269 568 CURVE SMOOTH",
"269 552 OFFCURVE",
"268 552 OFFCURVE",
"252 552 CURVE SMOOTH",
"249 552 OFFCURVE",
"245 552 OFFCURVE",
"241 551 CURVE SMOOTH",
"236 551 OFFCURVE",
"231 549 OFFCURVE",
"224 547 CURVE",
"223 550 OFFCURVE",
"221 556 OFFCURVE",
"221 563 CURVE SMOOTH",
"220 576 OFFCURVE",
"220 590 OFFCURVE",
"221 604 CURVE SMOOTH",
"221 608 OFFCURVE",
"223 612 OFFCURVE",
"224 616 CURVE SMOOTH",
"226 624 OFFCURVE",
"229 631 OFFCURVE",
"229 639 CURVE SMOOTH",
"232 682 OFFCURVE",
"236 724 OFFCURVE",
"234 766 CURVE SMOOTH",
"233 792 OFFCURVE",
"233 819 OFFCURVE",
"216 842 CURVE SMOOTH",
"211 848 OFFCURVE",
"208 855 OFFCURVE",
"204 861 CURVE SMOOTH",
"202 864 OFFCURVE",
"197 866 OFFCURVE",
"193 866 CURVE SMOOTH",
"172 868 OFFCURVE",
"152 864 OFFCURVE",
"136 848 CURVE SMOOTH",
"128 839 OFFCURVE",
"118 831 OFFCURVE",
"108 824 CURVE SMOOTH",
"103 821 OFFCURVE",
"95 821 OFFCURVE",
"86 819 CURVE",
"97 810 OFFCURVE",
"91 801 OFFCURVE",
"87 794 CURVE SMOOTH",
"70 765 OFFCURVE",
"56 736 OFFCURVE",
"56 701 CURVE SMOOTH",
"55 684 OFFCURVE",
"55 666 OFFCURVE",
"50 649 CURVE SMOOTH",
"42 623 OFFCURVE",
"48 597 OFFCURVE",
"46 571 CURVE SMOOTH",
"45 553 OFFCURVE",
"44 536 OFFCURVE",
"50 518 CURVE SMOOTH",
"54 504 OFFCURVE",
"49 487 OFFCURVE",
"51 472 CURVE SMOOTH",
"58 434 OFFCURVE",
"55 395 OFFCURVE",
"56 357 CURVE SMOOTH",
"57 336 OFFCURVE",
"57 316 OFFCURVE",
"61 296 CURVE SMOOTH",
"69 260 OFFCURVE",
"60 224 OFFCURVE",
"67 189 CURVE SMOOTH",
"72 157 OFFCURVE",
"67 126 OFFCURVE",
"72 95 CURVE SMOOTH",
"74 82 OFFCURVE",
"74 68 OFFCURVE",
"75 55 CURVE SMOOTH",
"79 28 OFFCURVE",
"80 0 OFFCURVE",
"86 -26 CURVE SMOOTH",
"93 -58 OFFCURVE",
"98 -91 OFFCURVE",
"115 -120 CURVE SMOOTH",
"123 -134 OFFCURVE",
"129 -148 OFFCURVE",
"143 -157 CURVE SMOOTH",
"148 -160 OFFCURVE",
"155 -163 OFFCURVE",
"161 -164 CURVE SMOOTH",
"180 -166 OFFCURVE",
"199 -167 OFFCURVE",
"217 -169 CURVE SMOOTH",
"230 -170 OFFCURVE",
"232 -158 OFFCURVE",
"234 -151 CURVE SMOOTH",
"238 -139 OFFCURVE",
"240 -126 OFFCURVE",
"239 -114 CURVE SMOOTH",
"238 -88 OFFCURVE",
"234 -62 OFFCURVE",
"231 -37 CURVE SMOOTH",
"231 -36 OFFCURVE",
"231 -36 OFFCURVE",
"231 -36 CURVE SMOOTH",
"229 -16 OFFCURVE",
"227 4 OFFCURVE",
"225 23 CURVE SMOOTH",
"223 43 OFFCURVE",
"225 63 OFFCURVE",
"219 82 CURVE SMOOTH",
"214 100 OFFCURVE",
"219 118 OFFCURVE",
"215 136 CURVE SMOOTH",
"209 163 OFFCURVE",
"212 190 OFFCURVE",
"211 218 CURVE SMOOTH",
"210 246 OFFCURVE",
"208 274 OFFCURVE",
"206 302 CURVE SMOOTH",
"205 312 OFFCURVE",
"202 322 OFFCURVE",
"200 332 CURVE",
"179 331 OFFCURVE",
"161 317 OFFCURVE",
"139 319 CURVE SMOOTH",
"133 320 OFFCURVE",
"128 321 OFFCURVE",
"126 327 CURVE SMOOTH",
"124 337 OFFCURVE",
"121 348 OFFCURVE",
"119 358 CURVE SMOOTH",
"119 361 OFFCURVE",
"123 366 OFFCURVE",
"126 367 CURVE SMOOTH",
"139 371 OFFCURVE",
"153 374 OFFCURVE",
"167 378 CURVE SMOOTH",
"175 380 OFFCURVE",
"185 380 OFFCURVE",
"193 383 CURVE SMOOTH",
"197 385 OFFCURVE",
"200 390 OFFCURVE",
"202 395 CURVE SMOOTH",
"208 407 OFFCURVE",
"213 409 OFFCURVE",
"226 405 CURVE SMOOTH",
"230 403 OFFCURVE",
"235 401 OFFCURVE",
"240 402 CURVE SMOOTH",
"252 403 OFFCURVE",
"254 394 OFFCURVE",
"254 387 CURVE SMOOTH",
"255 346 OFFCURVE",
"254 305 OFFCURVE",
"255 264 CURVE SMOOTH",
"255 239 OFFCURVE",
"258 214 OFFCURVE",
"260 189 CURVE SMOOTH",
"261 169 OFFCURVE",
"262 150 OFFCURVE",
"264 130 CURVE SMOOTH",
"266 110 OFFCURVE",
"267 89 OFFCURVE",
"269 68 CURVE SMOOTH",
"272 39 OFFCURVE",
"275 9 OFFCURVE",
"278 -20 CURVE SMOOTH",
"280 -35 OFFCURVE",
"281 -49 OFFCURVE",
"284 -63 CURVE SMOOTH",
"284 -66 OFFCURVE",
"290 -69 OFFCURVE",
"293 -72 CURVE",
"293 -89 OFFCURVE",
"293 -107 OFFCURVE",
"293 -125 CURVE",
"292 -125 OFFCURVE",
"292 -125 OFFCURVE",
"291 -125 CURVE SMOOTH",
"287 -126 OFFCURVE",
"283 -127 OFFCURVE",
"279 -129 CURVE",
"281 -132 OFFCURVE",
"282 -135 OFFCURVE",
"284 -138 CURVE SMOOTH",
"285 -140 OFFCURVE",
"287 -142 OFFCURVE",
"287 -143 CURVE SMOOTH",
"282 -158 OFFCURVE",
"280 -174 OFFCURVE",
"272 -186 CURVE SMOOTH",
"260 -205 OFFCURVE",
"244 -221 OFFCURVE",
"217 -218 CURVE SMOOTH",
"196 -215 OFFCURVE",
"175 -215 OFFCURVE",
"154 -212 CURVE SMOOTH",
"136 -210 OFFCURVE",
"119 -203 OFFCURVE",
"104 -191 CURVE SMOOTH",
"88 -177 OFFCURVE",
"80 -156 OFFCURVE",
"70 -139 CURVE SMOOTH",
"67 -134 OFFCURVE",
"63 -130 OFFCURVE",
"69 -124 CURVE SMOOTH",
"70 -123 OFFCURVE",
"68 -116 OFFCURVE",
"67 -116 CURVE SMOOTH",
"58 -116 OFFCURVE",
"56 -111 OFFCURVE",
"55 -104 CURVE SMOOTH",
"55 -97 OFFCURVE",
"52 -91 OFFCURVE",
"51 -85 CURVE SMOOTH",
"46 -63 OFFCURVE",
"41 -40 OFFCURVE",
"37 -18 CURVE SMOOTH",
"34 -3 OFFCURVE",
"33 11 OFFCURVE",
"31 26 CURVE SMOOTH",
"29 44 OFFCURVE",
"24 62 OFFCURVE",
"22 80 CURVE SMOOTH",
"20 126 OFFCURVE",
"19 172 OFFCURVE",
"17 219 CURVE SMOOTH",
"17 232 OFFCURVE",
"17 245 OFFCURVE",
"16 259 CURVE SMOOTH",
"14 285 OFFCURVE",
"10 311 OFFCURVE",
"8 338 CURVE SMOOTH",
"5 371 OFFCURVE",
"5 404 OFFCURVE",
"3 437 CURVE SMOOTH",
"1 469 OFFCURVE",
"-2 500 OFFCURVE",
"-2 531 CURVE SMOOTH",
"-1 586 OFFCURVE",
"1 641 OFFCURVE",
"3 696 CURVE SMOOTH",
"3 698 OFFCURVE",
"3 701 OFFCURVE",
"4 704 CURVE SMOOTH",
"7 715 OFFCURVE",
"9 726 OFFCURVE",
"12 737 CURVE SMOOTH",
"16 752 OFFCURVE",
"18 768 OFFCURVE",
"23 782 CURVE SMOOTH",
"33 807 OFFCURVE",
"47 830 OFFCURVE",
"66 849 CURVE SMOOTH",
"87 871 OFFCURVE",
"108 894 OFFCURVE",
"137 906 CURVE SMOOTH",
"147 911 OFFCURVE",
"157 915 OFFCURVE",
"168 920 CURVE",
"169 920 OFFCURVE",
"171 920 OFFCURVE",
"172 920 CURVE"
);
}
);
width = 350;
}
);
unicode = 0067;
},
{
glyphname = h;
lastChange = "2020-11-22 11:05:16 +0000";
layers = (
{
layerId = "686D85FA-502B-420B-8C81-C7709808E604";
paths = (
{
closed = 1;
nodes = (
"52.809 222.714 OFFCURVE",
"52.252 218.123 OFFCURVE",
"52.332 213.542 CURVE SMOOTH",
"52.599 198.301 OFFCURVE",
"53.844 183.039 OFFCURVE",
"53.328 167.831 CURVE SMOOTH",
"52.542 144.686 OFFCURVE",
"50.482 121.585 OFFCURVE",
"49.204 98.452 CURVE SMOOTH",
"48.707 89.444 OFFCURVE",
"49.701 80.272 OFFCURVE",
"48.355 71.428 CURVE SMOOTH",
"47.715 67.221 OFFCURVE",
"43.989 62.276 OFFCURVE",
"40.242 60.008 CURVE SMOOTH",
"33.111 55.693 OFFCURVE",
"24.983 53.009 OFFCURVE",
"17.227 49.747 CURVE SMOOTH",
"11.774 47.454 OFFCURVE",
"0.534 54.357 OFFCURVE",
"0.448 60.468 CURVE SMOOTH",
"0.196 78.595 OFFCURVE",
"0 96.74 OFFCURVE",
"0.621 114.849 CURVE SMOOTH",
"0.751 118.624 OFFCURVE",
"4.487 122.276 OFFCURVE",
"4.908 123.029 CURVE",
"3.174 134.472 OFFCURVE",
"0.546 143.875 OFFCURVE",
"0.512 153.286 CURVE SMOOTH",
"0.195 239.901 OFFCURVE",
"0.128 326.518 OFFCURVE",
"0.515 413.132 CURVE SMOOTH",
"0.583 428.329 OFFCURVE",
"3.782 443.491 OFFCURVE",
"4.331 458.712 CURVE SMOOTH",
"5.148 481.356 OFFCURVE",
"4.939 504.038 OFFCURVE",
"5.078 526.705 CURVE SMOOTH",
"5.18 543.223 OFFCURVE",
"4.631 559.762 OFFCURVE",
"5.268 576.257 CURVE SMOOTH",
"6.535 609.054 OFFCURVE",
"8.112 641.846 OFFCURVE",
"10.161 674.603 CURVE SMOOTH",
"11.462 695.411 OFFCURVE",
"29.764 707.816 OFFCURVE",
"49.691 701.993 CURVE SMOOTH",
"52.097 701.289 OFFCURVE",
"55.047 699.225 OFFCURVE",
"55.926 697.055 CURVE SMOOTH",
"60.282 686.293 OFFCURVE",
"64.637 675.444 OFFCURVE",
"67.586 664.255 CURVE SMOOTH",
"68.383 661.228 OFFCURVE",
"64.191 656.943 OFFCURVE",
"62.432 653.168 CURVE SMOOTH",
"61.184 650.488 OFFCURVE",
"59.351 647.736 OFFCURVE",
"59.212 644.945 CURVE SMOOTH",
"58.733 635.305 OFFCURVE",
"59.578 625.569 OFFCURVE",
"58.685 615.984 CURVE SMOOTH",
"48.387 505.444 OFFCURVE",
"55.696 394.641 OFFCURVE",
"53.538 283.984 CURVE SMOOTH",
"53.5 282.045 OFFCURVE",
"53.736 280.1 OFFCURVE",
"53.888 277.385 CURVE",
"57.81 277.112 OFFCURVE",
"61.319 277.008 OFFCURVE",
"64.792 276.601 CURVE SMOOTH",
"78.241 275.025 OFFCURVE",
"91.679 273.353 OFFCURVE",
"107.849 271.384 CURVE",
"106.529 290.804 OFFCURVE",
"105.397 308.666 OFFCURVE",
"104.053 326.513 CURVE SMOOTH",
"103.631 332.118 OFFCURVE",
"102.143 337.667 OFFCURVE",
"101.987 343.265 CURVE SMOOTH",
"100.238 405.985 OFFCURVE",
"98.556 468.708 OFFCURVE",
"97.154 531.436 CURVE SMOOTH",
"96.983 539.074 OFFCURVE",
"96.268 544.484 OFFCURVE",
"86.991 545.862 CURVE SMOOTH",
"75.576 547.558 OFFCURVE",
"69.438 556.586 OFFCURVE",
"71.293 570.999 CURVE SMOOTH",
"74.616 596.821 OFFCURVE",
"80.886 621.991 OFFCURVE",
"92.594 645.539 CURVE SMOOTH",
"96.417 653.228 OFFCURVE",
"101.245 655.711 OFFCURVE",
"109.984 652.762 CURVE SMOOTH",
"117.194 650.329 OFFCURVE",
"125.283 650.621 OFFCURVE",
"132.845 649.048 CURVE SMOOTH",
"135.56 648.483 OFFCURVE",
"139.543 646.424 OFFCURVE",
"140.085 644.312 CURVE SMOOTH",
"142.437 635.136 OFFCURVE",
"145.039 625.709 OFFCURVE",
"145.184 616.336 CURVE SMOOTH",
"145.748 579.681 OFFCURVE",
"142.21 542.653 OFFCURVE",
"146.266 506.443 CURVE SMOOTH",
"150.829 465.704 OFFCURVE",
"145.683 424.696 OFFCURVE",
"151.396 384.738 CURVE SMOOTH",
"155.698 354.649 OFFCURVE",
"152.781 325.081 OFFCURVE",
"155.072 295.387 CURVE SMOOTH",
"155.597 288.584 OFFCURVE",
"154.491 281.269 OFFCURVE",
"156.657 275.07 CURVE SMOOTH",
"159.768 266.165 OFFCURVE",
"168.35 263.473 OFFCURVE",
"177.26 262.022 CURVE SMOOTH",
"185.674 260.651 OFFCURVE",
"193.981 258.578 OFFCURVE",
"202.275 256.563 CURVE SMOOTH",
"203.66 256.226 OFFCURVE",
"204.899 254.754 OFFCURVE",
"205.927 253.566 CURVE SMOOTH",
"211.172 247.506 OFFCURVE",
"213.051 213.552 OFFCURVE",
"206.708 209.454 CURVE SMOOTH",
"198.859 204.383 OFFCURVE",
"188.922 202.393 OFFCURVE",
"179.677 199.827 CURVE SMOOTH",
"178.527 199.508 OFFCURVE",
"176.305 204.04 OFFCURVE",
"174.211 205.913 CURVE SMOOTH",
"170.636 209.112 OFFCURVE",
"166.77 211.984 OFFCURVE",
"163.027 214.994 CURVE",
"162.057 214.208 OFFCURVE",
"161.088 213.422 OFFCURVE",
"160.119 212.637 CURVE",
"160.377 209.176 OFFCURVE",
"160.36 205.668 OFFCURVE",
"160.953 202.267 CURVE SMOOTH",
"162.02 196.155 OFFCURVE",
"164.231 190.153 OFFCURVE",
"164.602 184.023 CURVE SMOOTH",
"166.516 152.354 OFFCURVE",
"167.218 120.593 OFFCURVE",
"169.922 88.998 CURVE SMOOTH",
"171.563 69.816 OFFCURVE",
"176.449 50.93 OFFCURVE",
"179.063 31.8 CURVE SMOOTH",
"179.92 25.526 OFFCURVE",
"188.914 18.331 OFFCURVE",
"179.906 12.824 CURVE SMOOTH",
"171.445 7.652 OFFCURVE",
"161.717 4.267 OFFCURVE",
"152.194 1.182 CURVE SMOOTH",
"137.89 -3.452 OFFCURVE",
"131.594 6.306 OFFCURVE",
"126.628 17.149 CURVE SMOOTH",
"116.666 38.899 OFFCURVE",
"106.897 60.737 OFFCURVE",
"97.098 82.561 CURVE SMOOTH",
"96.62 83.627 OFFCURVE",
"96.887 85.047 OFFCURVE",
"96.354 86.065 CURVE SMOOTH",
"93.385 91.735 OFFCURVE",
"86.47 98.923 OFFCURVE",
"88.016 102.619 CURVE SMOOTH",
"91.115 110.033 OFFCURVE",
"97.682 117.957 OFFCURVE",
"104.852 121.283 CURVE SMOOTH",
"117.997 127.38 OFFCURVE",
"116.996 137.25 OFFCURVE",
"116.166 147.995 CURVE SMOOTH",
"114.694 167.071 OFFCURVE",
"112.668 186.116 OFFCURVE",
"111.701 205.215 CURVE SMOOTH",
"110.962 219.821 OFFCURVE",
"108.252 223.039 OFFCURVE",
"93.139 223.431 CURVE SMOOTH",
"80.56 223.757 OFFCURVE",
"67.985 224.215 OFFCURVE",
"52.923 224.694 CURVE"
);
}
);
width = 250;
}
);
unicode = 0068;
},
{
glyphname = i;
lastChange = "2020-11-22 11:16:23 +0000";
layers = (
{
layerId = "686D85FA-502B-420B-8C81-C7709808E604";
paths = (
{
closed = 1;
nodes = (
"53 542 OFFCURVE",
"36 543 OFFCURVE",
"20 542 CURVE SMOOTH",
"9 542 OFFCURVE",
"4 547 OFFCURVE",
"5 558 CURVE SMOOTH",
"5 563 OFFCURVE",
"5 569 OFFCURVE",
"5 575 CURVE SMOOTH",
"5 590 OFFCURVE",
"10 595 OFFCURVE",
"26 596 CURVE SMOOTH",
"40 597 OFFCURVE",
"53 599 OFFCURVE",
"69 602 CURVE",
"66 620 OFFCURVE",
"61 638 OFFCURVE",
"59 655 CURVE SMOOTH",
"58 662 OFFCURVE",
"59 673 OFFCURVE",
"64 677 CURVE SMOOTH",
"71 684 OFFCURVE",
"78 695 OFFCURVE",
"91 692 CURVE SMOOTH",
"100 690 OFFCURVE",
"115 671 OFFCURVE",
"115 663 CURVE SMOOTH",
"115 646 OFFCURVE",
"115 629 OFFCURVE",
"115 610 CURVE",
"135 611 OFFCURVE",
"153 610 OFFCURVE",
"170 613 CURVE SMOOTH",
"200 618 OFFCURVE",
"213 613 OFFCURVE",
"228 587 CURVE SMOOTH",
"231 581 OFFCURVE",
"233 575 OFFCURVE",
"226 569 CURVE SMOOTH",
"222 565 OFFCURVE",
"222 556 OFFCURVE",
"220 550 CURVE",
"221 549 OFFCURVE",
"223 549 OFFCURVE",
"225 548 CURVE",
"225 553 OFFCURVE",
"226 557 OFFCURVE",
"227 561 CURVE",
"231 561 OFFCURVE",
"235 561 OFFCURVE",
"240 561 CURVE",
"244 550 OFFCURVE",
"237 547 OFFCURVE",
"229 546 CURVE",
"225 527 OFFCURVE",
"216 518 OFFCURVE",
"205 524 CURVE SMOOTH",
"198 527 OFFCURVE",
"193 535 OFFCURVE",
"186 537 CURVE SMOOTH",
"172 543 OFFCURVE",
"165 563 OFFCURVE",
"146 557 CURVE SMOOTH",
"140 555 OFFCURVE",
"133 553 OFFCURVE",
"124 550 CURVE",
"126 531 OFFCURVE",
"128 512 OFFCURVE",
"130 492 CURVE SMOOTH",
"130 488 OFFCURVE",
"130 485 OFFCURVE",
"130 481 CURVE SMOOTH",
"132 447 OFFCURVE",
"131 412 OFFCURVE",
"136 379 CURVE SMOOTH",
"140 358 OFFCURVE",
"136 337 OFFCURVE",
"141 318 CURVE SMOOTH",
"147 290 OFFCURVE",
"141 262 OFFCURVE",
"146 236 CURVE SMOOTH",
"150 214 OFFCURVE",
"148 193 OFFCURVE",
"150 172 CURVE SMOOTH",
"152 144 OFFCURVE",
"153 117 OFFCURVE",
"155 90 CURVE SMOOTH",
"155 79 OFFCURVE",
"158 69 OFFCURVE",
"159 59 CURVE SMOOTH",
"160 48 OFFCURVE",
"159 37 OFFCURVE",
"159 25 CURVE",
"178 25 OFFCURVE",
"195 24 OFFCURVE",
"212 25 CURVE SMOOTH",
"228 27 OFFCURVE",
"240 37 OFFCURVE",
"251 47 CURVE SMOOTH",
"262 57 OFFCURVE",
"267 51 OFFCURVE",
"273 44 CURVE SMOOTH",
"289 25 OFFCURVE",
"289 4 OFFCURVE",
"271 -10 CURVE SMOOTH",
"266 -14 OFFCURVE",
"259 -17 OFFCURVE",
"252 -18 CURVE SMOOTH",
"231 -21 OFFCURVE",
"209 -24 OFFCURVE",
"188 -23 CURVE SMOOTH",
"174 -22 OFFCURVE",
"167 -32 OFFCURVE",
"156 -34 CURVE SMOOTH",
"146 -36 OFFCURVE",
"135 -37 OFFCURVE",
"125 -38 CURVE SMOOTH",
"124 -38 OFFCURVE",
"121 -35 OFFCURVE",
"120 -33 CURVE SMOOTH",
"115 -23 OFFCURVE",
"108 -19 OFFCURVE",
"95 -18 CURVE SMOOTH",
"82 -17 OFFCURVE",
"68 -13 OFFCURVE",
"55 -8 CURVE SMOOTH",
"41 -2 OFFCURVE",
"36 25 OFFCURVE",
"45 37 CURVE SMOOTH",
"51 45 OFFCURVE",
"70 45 OFFCURVE",
"79 40 CURVE SMOOTH",
"88 34 OFFCURVE",
"98 32 OFFCURVE",
"111 27 CURVE",
"111 34 OFFCURVE",
"111 38 OFFCURVE",
"111 41 CURVE SMOOTH",
"109 57 OFFCURVE",
"108 74 OFFCURVE",
"106 90 CURVE SMOOTH",
"103 125 OFFCURVE",
"100 161 OFFCURVE",
"98 196 CURVE SMOOTH",
"97 198 OFFCURVE",
"97 200 OFFCURVE",
"97 202 CURVE SMOOTH",
"95 240 OFFCURVE",
"94 278 OFFCURVE",
"92 316 CURVE SMOOTH",
"90 341 OFFCURVE",
"88 365 OFFCURVE",
"87 389 CURVE SMOOTH",
"85 409 OFFCURVE",
"84 428 OFFCURVE",
"82 448 CURVE SMOOTH",
"79 473 OFFCURVE",
"76 498 OFFCURVE",
"73 523 CURVE SMOOTH",
"72 531 OFFCURVE",
"72 538 OFFCURVE",
"72 542 CURVE"
);
}
);
width = 280;
}
);
unicode = 0069;
},
{
glyphname = j;
lastChange = "2020-11-22 11:05:32 +0000";
layers = (
{
layerId = "686D85FA-502B-420B-8C81-C7709808E604";
paths = (
{
closed = 1;
nodes = (
"205 502 OFFCURVE",
"203 523 OFFCURVE",
"201 543 CURVE",
"200 545 OFFCURVE",
"200 546 OFFCURVE",
"200 548 CURVE",
"199 582 OFFCURVE",
"200 616 OFFCURVE",
"194 649 CURVE",
"190 676 OFFCURVE",
"195 703 OFFCURVE",
"190 729 CURVE",
"183 757 OFFCURVE",
"190 785 OFFCURVE",
"185 813 CURVE",
"178 852 OFFCURVE",
"182 891 OFFCURVE",
"181 930 CURVE",
"180 954 OFFCURVE",
"184 958 OFFCURVE",
"208 958 CURVE",
"215 958 OFFCURVE",
"221 958 OFFCURVE",
"229 958 CURVE",
"231 946 OFFCURVE",
"233 935 OFFCURVE",
"234 923 CURVE",
"236 904 OFFCURVE",
"237 885 OFFCURVE",
"239 866 CURVE",
"240 850 OFFCURVE",
"241 833 OFFCURVE",
"244 818 CURVE",
"251 784 OFFCURVE",
"247 749 OFFCURVE",
"249 715 CURVE",
"250 695 OFFCURVE",
"252 674 OFFCURVE",
"253 654 CURVE",
"253 639 OFFCURVE",
"250 624 OFFCURVE",
"250 610 CURVE",
"250 585 OFFCURVE",
"252 561 OFFCURVE",
"254 536 CURVE",
"254 528 OFFCURVE",
"256 519 OFFCURVE",
"259 512 CURVE",
"261 508 OFFCURVE",
"267 505 OFFCURVE",
"271 504 CURVE",
"276 502 OFFCURVE",
"282 503 OFFCURVE",
"287 503 CURVE",
"297 503 OFFCURVE",
"306 494 OFFCURVE",
"307 484 CURVE",
"307 482 OFFCURVE",
"306 479 OFFCURVE",
"307 477 CURVE",
"308 472 OFFCURVE",
"311 464 OFFCURVE",
"310 463 CURVE",
"303 458 OFFCURVE",
"295 454 OFFCURVE",
"287 450 CURVE",
"279 448 OFFCURVE",
"270 448 OFFCURVE",
"263 444 CURVE",
"259 443 OFFCURVE",
"254 436 OFFCURVE",
"254 432 CURVE",
"253 397 OFFCURVE",
"252 362 OFFCURVE",
"254 327 CURVE",
"255 299 OFFCURVE",
"260 271 OFFCURVE",
"263 242 CURVE",
"266 219 OFFCURVE",
"270 195 OFFCURVE",
"273 172 CURVE",
"276 143 OFFCURVE",
"274 113 OFFCURVE",
"284 87 CURVE",
"296 53 OFFCURVE",
"290 19 OFFCURVE",
"291 -14 CURVE",
"292 -34 OFFCURVE",
"283 -52 OFFCURVE",
"265 -64 CURVE",
"256 -70 OFFCURVE",
"249 -77 OFFCURVE",
"240 -82 CURVE",
"234 -86 OFFCURVE",
"227 -88 OFFCURVE",
"221 -91 CURVE",
"200 -97 OFFCURVE",
"181 -96 OFFCURVE",
"162 -86 CURVE",
"158 -84 OFFCURVE",
"154 -83 OFFCURVE",
"149 -82 CURVE",
"141 -79 OFFCURVE",
"133 -75 OFFCURVE",
"127 -67 CURVE",
"120 -59 OFFCURVE",
"112 -52 OFFCURVE",
"107 -43 CURVE",
"102 -35 OFFCURVE",
"96 -27 OFFCURVE",
"94 -18 CURVE",
"90 0 OFFCURVE",
"86 19 OFFCURVE",
"85 38 CURVE",
"84 49 OFFCURVE",
"88 61 OFFCURVE",
"90 72 CURVE",
"90 75 OFFCURVE",
"93 77 OFFCURVE",
"93 79 CURVE",
"87 96 OFFCURVE",
"97 110 OFFCURVE",
"104 124 CURVE",
"112 137 OFFCURVE",
"123 148 OFFCURVE",
"135 158 CURVE",
"140 162 OFFCURVE",
"151 162 OFFCURVE",
"158 159 CURVE",
"166 155 OFFCURVE",
"173 147 OFFCURVE",
"180 140 CURVE",
"181 138 OFFCURVE",
"179 133 OFFCURVE",
"177 130 CURVE",
"171 124 OFFCURVE",
"164 117 OFFCURVE",
"158 111 CURVE",
"144 97 OFFCURVE",
"136 81 OFFCURVE",
"137 60 CURVE",
"137 47 OFFCURVE",
"134 34 OFFCURVE",
"133 21 CURVE",
"133 20 OFFCURVE",
"133 18 OFFCURVE",
"133 17 CURVE",
"138 4 OFFCURVE",
"141 -9 OFFCURVE",
"148 -20 CURVE",
"151 -27 OFFCURVE",
"158 -31 OFFCURVE",
"165 -34 CURVE",
"199 -50 OFFCURVE",
"205 -47 OFFCURVE",
"233 -26 CURVE",
"240 -22 OFFCURVE",
"243 -10 OFFCURVE",
"243 -1 CURVE",
"245 24 OFFCURVE",
"244 49 OFFCURVE",
"244 74 CURVE",
"244 78 OFFCURVE",
"240 82 OFFCURVE",
"239 86 CURVE",
"235 99 OFFCURVE",
"232 111 OFFCURVE",
"229 124 CURVE",
"227 139 OFFCURVE",
"226 155 OFFCURVE",
"224 170 CURVE",
"220 198 OFFCURVE",
"215 226 OFFCURVE",
"211 254 CURVE",
"210 256 OFFCURVE",
"210 258 OFFCURVE",
"210 260 CURVE",
"208 309 OFFCURVE",
"206 357 OFFCURVE",
"205 405 CURVE",
"205 425 OFFCURVE",
"195 430 OFFCURVE",
"176 423 CURVE",
"168 420 OFFCURVE",
"158 418 OFFCURVE",
"149 417 CURVE",
"137 415 OFFCURVE",
"124 413 OFFCURVE",
"112 411 CURVE",
"93 408 OFFCURVE",
"75 405 OFFCURVE",
"57 402 CURVE",
"46 401 OFFCURVE",
"35 399 OFFCURVE",
"25 397 CURVE",
"21 396 OFFCURVE",
"16 393 OFFCURVE",
"13 391 CURVE",
"8 387 OFFCURVE",
"3 379 OFFCURVE",
"0 380 CURVE",
"-10 381 OFFCURVE",
"-19 386 OFFCURVE",
"-27 391 CURVE",
"-36 395 OFFCURVE",
"-38 413 OFFCURVE",
"-35 425 CURVE",
"-30 443 OFFCURVE",
"-15 442 OFFCURVE",
"-3 445 CURVE",
"11 449 OFFCURVE",
"25 452 OFFCURVE",
"38 454 CURVE",
"56 458 OFFCURVE",
"74 461 OFFCURVE",
"91 465 CURVE",
"104 467 OFFCURVE",
"118 471 OFFCURVE",
"131 474 CURVE",
"134 474 OFFCURVE",
"137 474 OFFCURVE",
"141 474 CURVE",
"161 476 OFFCURVE",
"182 478 OFFCURVE",
"207 480 CURVE"
);
},
{
closed = 1;
nodes = (
"266 73 OFFCURVE",
"268 74 OFFCURVE",
"269 75 CURVE",
"267 81 OFFCURVE",
"265 86 OFFCURVE",
"263 92 CURVE",
"261 87 OFFCURVE",
"258 83 OFFCURVE",
"258 79 CURVE SMOOTH",
"258 77 OFFCURVE",
"262 74 OFFCURVE",
"265 72 CURVE"
);
}
);
width = 350;
}
);
unicode = 006A;
},
{
glyphname = k;
lastChange = "2020-11-22 11:05:36 +0000";
layers = (
{
layerId = "686D85FA-502B-420B-8C81-C7709808E604";
paths = (
{
closed = 1;
nodes = (
"32 772 OFFCURVE",
"42 766 OFFCURVE",
"51 758 CURVE SMOOTH",
"65 746 OFFCURVE",
"73 728 OFFCURVE",
"77 709 CURVE SMOOTH",
"77 709 OFFCURVE",
"77 708 OFFCURVE",
"77 708 CURVE SMOOTH",
"84 676 OFFCURVE",
"83 675 OFFCURVE",
"53 665 CURVE",
"53 629 OFFCURVE",
"53 593 OFFCURVE",
"53 554 CURVE",
"66 566 OFFCURVE",
"77 576 OFFCURVE",
"87 586 CURVE SMOOTH",
"109 610 OFFCURVE",
"132 634 OFFCURVE",
"154 658 CURVE SMOOTH",
"161 666 OFFCURVE",
"165 676 OFFCURVE",
"171 686 CURVE SMOOTH",
"178 696 OFFCURVE",
"186 706 OFFCURVE",
"193 717 CURVE SMOOTH",
"200 726 OFFCURVE",
"209 728 OFFCURVE",
"219 721 CURVE SMOOTH",
"220 720 OFFCURVE",
"222 719 OFFCURVE",
"224 718 CURVE SMOOTH",
"230 714 OFFCURVE",
"241 709 OFFCURVE",
"241 706 CURVE SMOOTH",
"239 696 OFFCURVE",
"234 685 OFFCURVE",
"229 676 CURVE SMOOTH",
"218 658 OFFCURVE",
"205 642 OFFCURVE",
"193 625 CURVE SMOOTH",
"191 622 OFFCURVE",
"187 620 OFFCURVE",
"184 617 CURVE SMOOTH",
"157 587 OFFCURVE",
"130 558 OFFCURVE",
"103 528 CURVE",
"112 506 OFFCURVE",
"122 484 OFFCURVE",
"130 461 CURVE SMOOTH",
"136 443 OFFCURVE",
"140 424 OFFCURVE",
"146 405 CURVE SMOOTH",
"149 393 OFFCURVE",
"155 382 OFFCURVE",
"159 370 CURVE SMOOTH",
"163 356 OFFCURVE",
"166 341 OFFCURVE",
"169 327 CURVE SMOOTH",
"171 320 OFFCURVE",
"173 313 OFFCURVE",
"175 307 CURVE SMOOTH",
"181 285 OFFCURVE",
"187 263 OFFCURVE",
"194 241 CURVE SMOOTH",
"200 222 OFFCURVE",
"206 203 OFFCURVE",
"212 183 CURVE SMOOTH",
"216 169 OFFCURVE",
"219 154 OFFCURVE",
"223 140 CURVE SMOOTH",
"226 128 OFFCURVE",
"230 117 OFFCURVE",
"234 105 CURVE SMOOTH",
"238 92 OFFCURVE",
"242 78 OFFCURVE",
"247 64 CURVE SMOOTH",
"253 45 OFFCURVE",
"259 26 OFFCURVE",
"265 7 CURVE SMOOTH",
"269 -6 OFFCURVE",
"272 -20 OFFCURVE",
"276 -34 CURVE SMOOTH",
"279 -45 OFFCURVE",
"284 -57 OFFCURVE",
"287 -68 CURVE SMOOTH",
"290 -75 OFFCURVE",
"293 -82 OFFCURVE",
"294 -89 CURVE SMOOTH",
"296 -103 OFFCURVE",
"306 -112 OFFCURVE",
"312 -123 CURVE SMOOTH",
"317 -132 OFFCURVE",
"317 -142 OFFCURVE",
"309 -149 CURVE SMOOTH",
"303 -155 OFFCURVE",
"297 -159 OFFCURVE",
"291 -164 CURVE SMOOTH",
"289 -165 OFFCURVE",
"285 -164 OFFCURVE",
"282 -162 CURVE SMOOTH",
"267 -155 OFFCURVE",
"257 -142 OFFCURVE",
"252 -126 CURVE SMOOTH",
"244 -104 OFFCURVE",
"239 -81 OFFCURVE",
"232 -58 CURVE SMOOTH",
"225 -35 OFFCURVE",
"216 -12 OFFCURVE",
"209 11 CURVE SMOOTH",
"203 29 OFFCURVE",
"199 47 OFFCURVE",
"194 65 CURVE SMOOTH",
"188 84 OFFCURVE",
"181 102 OFFCURVE",
"175 121 CURVE SMOOTH",
"171 134 OFFCURVE",
"168 147 OFFCURVE",
"165 159 CURVE SMOOTH",
"159 180 OFFCURVE",
"153 200 OFFCURVE",
"147 220 CURVE SMOOTH",
"143 234 OFFCURVE",
"140 248 OFFCURVE",
"136 262 CURVE SMOOTH",
"132 276 OFFCURVE",
"127 290 OFFCURVE",
"123 304 CURVE SMOOTH",
"119 318 OFFCURVE",
"116 332 OFFCURVE",
"111 346 CURVE SMOOTH",
"106 365 OFFCURVE",
"99 384 OFFCURVE",
"94 402 CURVE SMOOTH",
"88 420 OFFCURVE",
"83 438 OFFCURVE",
"77 455 CURVE SMOOTH",
"71 473 OFFCURVE",
"64 490 OFFCURVE",
"58 507 CURVE",
"56 507 OFFCURVE",
"55 506 OFFCURVE",
"53 506 CURVE",
"53 498 OFFCURVE",
"53 490 OFFCURVE",
"53 482 CURVE SMOOTH",
"53 467 OFFCURVE",
"52 452 OFFCURVE",
"54 437 CURVE SMOOTH",
"62 379 OFFCURVE",
"54 321 OFFCURVE",
"59 263 CURVE SMOOTH",
"63 233 OFFCURVE",
"58 202 OFFCURVE",
"64 172 CURVE SMOOTH",
"68 150 OFFCURVE",
"66 128 OFFCURVE",
"68 106 CURVE SMOOTH",
"69 87 OFFCURVE",
"69 68 OFFCURVE",
"73 50 CURVE SMOOTH",
"78 31 OFFCURVE",
"76 12 OFFCURVE",
"78 -6 CURVE SMOOTH",
"79 -20 OFFCURVE",
"84 -34 OFFCURVE",
"87 -47 CURVE SMOOTH",
"87 -48 OFFCURVE",
"87 -48 OFFCURVE",
"87 -48 CURVE SMOOTH",
"89 -68 OFFCURVE",
"91 -87 OFFCURVE",
"92 -106 CURVE SMOOTH",
"92 -113 OFFCURVE",
"78 -125 OFFCURVE",
"70 -126 CURVE SMOOTH",
"50 -130 OFFCURVE",
"44 -127 OFFCURVE",
"36 -110 CURVE SMOOTH",
"32 -102 OFFCURVE",
"28 -93 OFFCURVE",
"25 -84 CURVE SMOOTH",
"21 -74 OFFCURVE",
"20 -65 OFFCURVE",
"29 -55 CURVE SMOOTH",
"35 -49 OFFCURVE",
"33 -36 OFFCURVE",
"33 -27 CURVE SMOOTH",
"33 -20 OFFCURVE",
"30 -14 OFFCURVE",
"29 -7 CURVE SMOOTH",
"26 19 OFFCURVE",
"23 45 OFFCURVE",
"20 72 CURVE SMOOTH",
"20 73 OFFCURVE",
"20 74 OFFCURVE",
"20 75 CURVE SMOOTH",
"18 108 OFFCURVE",
"16 141 OFFCURVE",
"15 174 CURVE SMOOTH",
"13 213 OFFCURVE",
"14 253 OFFCURVE",
"9 292 CURVE SMOOTH",
"1 361 OFFCURVE",
"7 429 OFFCURVE",
"5 497 CURVE SMOOTH",
"3 542 OFFCURVE",
"1 586 OFFCURVE",
"0 631 CURVE SMOOTH",
"0 670 OFFCURVE",
"0 709 OFFCURVE",
"0 748 CURVE SMOOTH",
"0 756 OFFCURVE",
"2 760 OFFCURVE",
"9 764 CURVE SMOOTH",
"14 767 OFFCURVE",
"17 773 OFFCURVE",
"20 778 CURVE",
"21 778 OFFCURVE",
"22 778 OFFCURVE",
"22 778 CURVE"
);
}
);
width = 300;
}
);
unicode = 006B;
},
{
glyphname = l;
lastChange = "2020-11-22 11:05:49 +0000";
layers = (
{
layerId = "686D85FA-502B-420B-8C81-C7709808E604";
paths = (
{
closed = 1;
nodes = (
"207 112 OFFCURVE",
"203 110 OFFCURVE",
"200 104 CURVE SMOOTH",
"196 95 OFFCURVE",
"188 88 OFFCURVE",
"180 83 CURVE SMOOTH",
"176 81 OFFCURVE",
"168 87 OFFCURVE",
"161 88 CURVE SMOOTH",
"155 89 OFFCURVE",
"149 89 OFFCURVE",
"143 88 CURVE SMOOTH",
"133 87 OFFCURVE",
"122 85 OFFCURVE",
"113 82 CURVE SMOOTH",
"91 73 OFFCURVE",
"70 62 OFFCURVE",
"49 53 CURVE SMOOTH",
"37 47 OFFCURVE",
"26 39 OFFCURVE",
"13 48 CURVE SMOOTH",
"8 51 OFFCURVE",
"2 56 OFFCURVE",
"0 61 CURVE SMOOTH",
"-4 71 OFFCURVE",
"-6 81 OFFCURVE",
"-6 91 CURVE SMOOTH",
"-8 131 OFFCURVE",
"-10 170 OFFCURVE",
"-12 210 CURVE SMOOTH",
"-13 241 OFFCURVE",
"-15 273 OFFCURVE",
"-16 305 CURVE SMOOTH",
"-18 352 OFFCURVE",
"-20 400 OFFCURVE",
"-22 448 CURVE SMOOTH",
"-23 474 OFFCURVE",
"-22 501 OFFCURVE",
"-22 527 CURVE SMOOTH",
"-22 530 OFFCURVE",
"-23 533 OFFCURVE",
"-24 535 CURVE SMOOTH",
"-28 547 OFFCURVE",
"-21 559 OFFCURVE",
"-8 560 CURVE SMOOTH",
"-6 561 OFFCURVE",
"-3 561 OFFCURVE",
"-1 561 CURVE SMOOTH",
"5 562 OFFCURVE",
"14 566 OFFCURVE",
"16 564 CURVE SMOOTH",
"21 558 OFFCURVE",
"24 550 OFFCURVE",
"27 542 CURVE SMOOTH",
"30 536 OFFCURVE",
"32 529 OFFCURVE",
"32 522 CURVE SMOOTH",
"31 494 OFFCURVE",
"29 465 OFFCURVE",
"27 436 CURVE SMOOTH",
"27 424 OFFCURVE",
"25 411 OFFCURVE",
"28 399 CURVE SMOOTH",
"35 360 OFFCURVE",
"28 320 OFFCURVE",
"33 282 CURVE SMOOTH",
"38 252 OFFCURVE",
"35 223 OFFCURVE",
"37 194 CURVE SMOOTH",
"39 167 OFFCURVE",
"42 139 OFFCURVE",
"44 110 CURVE",
"52 114 OFFCURVE",
"61 118 OFFCURVE",
"70 121 CURVE SMOOTH",
"84 126 OFFCURVE",
"98 131 OFFCURVE",
"112 135 CURVE SMOOTH",
"125 137 OFFCURVE",
"138 138 OFFCURVE",
"151 140 CURVE SMOOTH",
"170 143 OFFCURVE",
"185 134 OFFCURVE",
"200 125 CURVE SMOOTH",
"203 123 OFFCURVE",
"208 122 OFFCURVE",
"212 121 CURVE",
"212 118 OFFCURVE",
"212 116 OFFCURVE",
"212 114 CURVE"
);
}
);
width = 250;
}
);
unicode = 006C;
},
{
glyphname = m;
lastChange = "2020-11-22 11:05:53 +0000";
layers = (
{
layerId = "686D85FA-502B-420B-8C81-C7709808E604";
paths = (
{
closed = 1;
nodes = (
"184 221 OFFCURVE",
"187 225 OFFCURVE",
"188 230 CURVE SMOOTH",
"191 244 OFFCURVE",
"194 257 OFFCURVE",
"197 271 CURVE SMOOTH",
"199 280 OFFCURVE",
"201 289 OFFCURVE",
"202 299 CURVE SMOOTH",
"204 311 OFFCURVE",
"205 323 OFFCURVE",
"208 336 CURVE SMOOTH",
"209 345 OFFCURVE",
"214 353 OFFCURVE",
"216 363 CURVE SMOOTH",
"218 372 OFFCURVE",
"220 382 OFFCURVE",
"222 391 CURVE SMOOTH",
"225 403 OFFCURVE",
"228 415 OFFCURVE",
"231 426 CURVE SMOOTH",
"233 436 OFFCURVE",
"234 445 OFFCURVE",
"236 455 CURVE SMOOTH",
"241 473 OFFCURVE",
"246 490 OFFCURVE",
"250 508 CURVE SMOOTH",
"252 518 OFFCURVE",
"254 528 OFFCURVE",
"256 538 CURVE SMOOTH",
"258 548 OFFCURVE",
"261 559 OFFCURVE",
"264 570 CURVE SMOOTH",
"266 577 OFFCURVE",
"268 584 OFFCURVE",
"270 592 CURVE SMOOTH",
"273 609 OFFCURVE",
"276 627 OFFCURVE",
"280 645 CURVE SMOOTH",
"283 659 OFFCURVE",
"289 672 OFFCURVE",
"293 686 CURVE SMOOTH",
"297 697 OFFCURVE",
"300 709 OFFCURVE",
"304 721 CURVE SMOOTH",
"306 728 OFFCURVE",
"307 735 OFFCURVE",
"310 742 CURVE SMOOTH",
"314 750 OFFCURVE",
"322 757 OFFCURVE",
"331 752 CURVE SMOOTH",
"342 747 OFFCURVE",
"359 753 OFFCURVE",
"364 737 CURVE SMOOTH",
"366 731 OFFCURVE",
"367 724 OFFCURVE",
"367 718 CURVE SMOOTH",
"367 486 OFFCURVE",
"367 255 OFFCURVE",
"367 24 CURVE SMOOTH",
"367 -2 OFFCURVE",
"370 -29 OFFCURVE",
"372 -55 CURVE SMOOTH",
"373 -70 OFFCURVE",
"375 -85 OFFCURVE",
"377 -100 CURVE SMOOTH",
"379 -119 OFFCURVE",
"383 -137 OFFCURVE",
"386 -156 CURVE SMOOTH",
"387 -160 OFFCURVE",
"387 -165 OFFCURVE",
"386 -170 CURVE SMOOTH",
"385 -186 OFFCURVE",
"389 -202 OFFCURVE",
"395 -217 CURVE SMOOTH",
"396 -217 OFFCURVE",
"396 -219 OFFCURVE",
"396 -219 CURVE SMOOTH",
"387 -234 OFFCURVE",
"399 -248 OFFCURVE",
"397 -263 CURVE SMOOTH",
"395 -274 OFFCURVE",
"394 -285 OFFCURVE",
"391 -295 CURVE SMOOTH",
"388 -305 OFFCURVE",
"379 -306 OFFCURVE",
"369 -305 CURVE",
"368 -301 OFFCURVE",
"367 -298 OFFCURVE",
"366 -295 CURVE",
"345 -287 OFFCURVE",
"341 -267 OFFCURVE",
"328 -251 CURVE",
"336 -248 OFFCURVE",
"341 -246 OFFCURVE",
"348 -244 CURVE",
"346 -231 OFFCURVE",
"343 -218 OFFCURVE",
"341 -205 CURVE SMOOTH",
"340 -203 OFFCURVE",
"338 -200 OFFCURVE",
"338 -198 CURVE SMOOTH",
"336 -181 OFFCURVE",
"335 -163 OFFCURVE",
"333 -146 CURVE SMOOTH",
"331 -127 OFFCURVE",
"327 -109 OFFCURVE",
"324 -90 CURVE SMOOTH",
"324 -89 OFFCURVE",
"324 -87 OFFCURVE",
"324 -86 CURVE SMOOTH",
"322 -58 OFFCURVE",
"320 -29 OFFCURVE",
"319 0 CURVE SMOOTH",
"309 179 OFFCURVE",
"316 359 OFFCURVE",
"314 539 CURVE SMOOTH",
"314 542 OFFCURVE",
"313 545 OFFCURVE",
"311 548 CURVE",
"307 532 OFFCURVE",
"303 515 OFFCURVE",
"299 498 CURVE SMOOTH",
"295 481 OFFCURVE",
"290 464 OFFCURVE",
"285 447 CURVE SMOOTH",
"283 437 OFFCURVE",
"282 426 OFFCURVE",
"280 416 CURVE SMOOTH",
"277 406 OFFCURVE",
"274 396 OFFCURVE",
"271 385 CURVE SMOOTH",
"269 377 OFFCURVE",
"267 368 OFFCURVE",
"266 360 CURVE SMOOTH",
"260 334 OFFCURVE",
"256 308 OFFCURVE",
"251 282 CURVE SMOOTH",
"247 265 OFFCURVE",
"244 248 OFFCURVE",
"241 231 CURVE SMOOTH",
"237 209 OFFCURVE",
"231 188 OFFCURVE",
"227 167 CURVE SMOOTH",
"224 151 OFFCURVE",
"223 135 OFFCURVE",
"222 118 CURVE SMOOTH",
"221 106 OFFCURVE",
"220 97 OFFCURVE",
"205 94 CURVE SMOOTH",
"198 92 OFFCURVE",
"194 81 OFFCURVE",
"185 87 CURVE SMOOTH",
"179 92 OFFCURVE",
"175 98 OFFCURVE",
"171 104 CURVE SMOOTH",
"155 126 OFFCURVE",
"146 150 OFFCURVE",
"139 176 CURVE SMOOTH",
"136 190 OFFCURVE",
"130 205 OFFCURVE",
"126 219 CURVE SMOOTH",
"123 229 OFFCURVE",
"122 240 OFFCURVE",
"120 250 CURVE SMOOTH",
"119 259 OFFCURVE",
"117 267 OFFCURVE",
"115 276 CURVE SMOOTH",
"110 296 OFFCURVE",
"106 317 OFFCURVE",
"101 337 CURVE SMOOTH",
"98 349 OFFCURVE",
"94 361 OFFCURVE",
"91 374 CURVE",
"94 375 OFFCURVE",
"95 375 OFFCURVE",
"97 376 CURVE SMOOTH",
"100 377 OFFCURVE",
"103 378 OFFCURVE",
"105 380 CURVE",
"103 382 OFFCURVE",
"101 384 OFFCURVE",
"98 385 CURVE SMOOTH",
"85 389 OFFCURVE",
"85 401 OFFCURVE",
"82 410 CURVE SMOOTH",
"76 426 OFFCURVE",
"72 443 OFFCURVE",
"68 459 CURVE SMOOTH",
"64 472 OFFCURVE",
"61 485 OFFCURVE",
"57 497 CURVE SMOOTH",
"55 505 OFFCURVE",
"53 512 OFFCURVE",
"48 519 CURVE",
"48 503 OFFCURVE",
"48 487 OFFCURVE",
"48 470 CURVE SMOOTH",
"48 455 OFFCURVE",
"48 440 OFFCURVE",
"48 425 CURVE SMOOTH",
"49 399 OFFCURVE",
"52 373 OFFCURVE",
"52 347 CURVE SMOOTH",
"52 322 OFFCURVE",
"49 297 OFFCURVE",
"49 271 CURVE SMOOTH",
"48 230 OFFCURVE",
"48 188 OFFCURVE",
"47 147 CURVE SMOOTH",
"47 111 OFFCURVE",
"47 74 OFFCURVE",
"42 39 CURVE SMOOTH",
"38 16 OFFCURVE",
"39 -6 OFFCURVE",
"39 -29 CURVE SMOOTH",
"39 -43 OFFCURVE",
"37 -45 OFFCURVE",
"23 -45 CURVE SMOOTH",
"16 -45 OFFCURVE",
"9 -45 OFFCURVE",
"4 -45 CURVE",
"-2 -39 OFFCURVE",
"-8 -33 OFFCURVE",
"-15 -26 CURVE",
"-15 -16 OFFCURVE",
"-18 -2 OFFCURVE",
"-15 11 CURVE SMOOTH",
"-4 54 OFFCURVE",
"-10 97 OFFCURVE",
"-5 140 CURVE SMOOTH",
"1 188 OFFCURVE",
"-2 234 OFFCURVE",
"-1 281 CURVE SMOOTH",
"0 410 OFFCURVE",
"-1 539 OFFCURVE",
"-1 667 CURVE SMOOTH",
"-1 685 OFFCURVE",
"0 685 OFFCURVE",
"17 685 CURVE SMOOTH",
"19 685 OFFCURVE",
"22 685 OFFCURVE",
"24 685 CURVE SMOOTH",
"47 685 OFFCURVE",
"53 680 OFFCURVE",
"58 657 CURVE SMOOTH",
"60 647 OFFCURVE",
"65 637 OFFCURVE",
"69 627 CURVE SMOOTH",
"73 615 OFFCURVE",
"77 603 OFFCURVE",
"81 590 CURVE SMOOTH",
"85 578 OFFCURVE",
"90 566 OFFCURVE",
"93 554 CURVE SMOOTH",
"98 541 OFFCURVE",
"102 527 OFFCURVE",
"106 513 CURVE SMOOTH",
"107 506 OFFCURVE",
"109 500 OFFCURVE",
"111 494 CURVE SMOOTH",
"116 477 OFFCURVE",
"120 460 OFFCURVE",
"125 443 CURVE SMOOTH",
"130 428 OFFCURVE",
"134 413 OFFCURVE",
"139 397 CURVE SMOOTH",
"140 394 OFFCURVE",
"139 390 OFFCURVE",
"140 387 CURVE SMOOTH",
"140 377 OFFCURVE",
"138 368 OFFCURVE",
"147 359 CURVE SMOOTH",
"152 354 OFFCURVE",
"152 343 OFFCURVE",
"154 335 CURVE SMOOTH",
"159 315 OFFCURVE",
"164 295 OFFCURVE",
"168 275 CURVE SMOOTH",
"170 265 OFFCURVE",
"171 254 OFFCURVE",
"174 243 CURVE SMOOTH",
"175 234 OFFCURVE",
"178 226 OFFCURVE",
"180 217 CURVE",
"181 217 OFFCURVE",
"182 216 OFFCURVE",
"182 216 CURVE"
);
}
);
width = 400;
}
);
unicode = 006D;
},
{
glyphname = n;
lastChange = "2020-11-22 11:05:59 +0000";
layers = (
{
layerId = "686D85FA-502B-420B-8C81-C7709808E604";
paths = (
{
closed = 1;
nodes = (
"189 284 OFFCURVE",
"189 289 OFFCURVE",
"189 293 CURVE SMOOTH",
"189 338 OFFCURVE",
"188 383 OFFCURVE",
"189 428 CURVE SMOOTH",
"189 458 OFFCURVE",
"189 488 OFFCURVE",
"194 518 CURVE SMOOTH",
"198 539 OFFCURVE",
"196 560 OFFCURVE",
"199 580 CURVE SMOOTH",
"200 596 OFFCURVE",
"204 611 OFFCURVE",
"208 626 CURVE SMOOTH",
"208 629 OFFCURVE",
"213 632 OFFCURVE",
"216 632 CURVE SMOOTH",
"225 634 OFFCURVE",
"235 637 OFFCURVE",
"243 634 CURVE SMOOTH",
"250 632 OFFCURVE",
"257 624 OFFCURVE",
"261 616 CURVE SMOOTH",
"265 607 OFFCURVE",
"267 596 OFFCURVE",
"270 585 CURVE",
"268 584 OFFCURVE",
"263 581 OFFCURVE",
"259 578 CURVE SMOOTH",
"256 576 OFFCURVE",
"253 572 OFFCURVE",
"252 568 CURVE SMOOTH",
"249 561 OFFCURVE",
"247 554 OFFCURVE",
"247 547 CURVE SMOOTH",
"245 505 OFFCURVE",
"246 462 OFFCURVE",
"241 420 CURVE SMOOTH",
"233 336 OFFCURVE",
"239 253 OFFCURVE",
"237 170 CURVE SMOOTH",
"237 139 OFFCURVE",
"240 109 OFFCURVE",
"241 78 CURVE SMOOTH",
"241 73 OFFCURVE",
"239 68 OFFCURVE",
"239 63 CURVE SMOOTH",
"239 54 OFFCURVE",
"239 45 OFFCURVE",
"240 36 CURVE SMOOTH",
"243 22 OFFCURVE",
"238 13 OFFCURVE",
"227 3 CURVE SMOOTH",
"218 -6 OFFCURVE",
"212 -9 OFFCURVE",
"200 -2 CURVE SMOOTH",
"190 3 OFFCURVE",
"186 12 OFFCURVE",
"184 22 CURVE SMOOTH",
"179 44 OFFCURVE",
"174 66 OFFCURVE",
"169 88 CURVE SMOOTH",
"166 107 OFFCURVE",
"163 126 OFFCURVE",
"159 144 CURVE SMOOTH",
"155 171 OFFCURVE",
"150 198 OFFCURVE",
"145 225 CURVE SMOOTH",
"141 244 OFFCURVE",
"135 262 OFFCURVE",
"131 281 CURVE SMOOTH",
"129 292 OFFCURVE",
"128 303 OFFCURVE",
"126 315 CURVE SMOOTH",
"123 325 OFFCURVE",
"120 336 OFFCURVE",
"118 346 CURVE SMOOTH",
"115 354 OFFCURVE",
"113 363 OFFCURVE",
"112 371 CURVE SMOOTH",
"107 395 OFFCURVE",
"102 419 OFFCURVE",
"96 442 CURVE SMOOTH",
"89 469 OFFCURVE",
"81 497 OFFCURVE",
"73 524 CURVE SMOOTH",
"72 529 OFFCURVE",
"72 534 OFFCURVE",
"69 540 CURVE",
"67 533 OFFCURVE",
"63 526 OFFCURVE",
"63 519 CURVE SMOOTH",
"61 449 OFFCURVE",
"59 379 OFFCURVE",
"58 309 CURVE SMOOTH",
"58 267 OFFCURVE",
"61 225 OFFCURVE",
"63 182 CURVE SMOOTH",
"65 138 OFFCURVE",
"69 93 OFFCURVE",
"71 48 CURVE SMOOTH",
"71 26 OFFCURVE",
"71 4 OFFCURVE",
"67 -17 CURVE SMOOTH",
"64 -31 OFFCURVE",
"61 -47 OFFCURVE",
"42 -52 CURVE SMOOTH",
"28 -56 OFFCURVE",
"7 -44 OFFCURVE",
"5 -30 CURVE SMOOTH",
"4 -15 OFFCURVE",
"3 0 OFFCURVE",
"15 11 CURVE SMOOTH",
"18 14 OFFCURVE",
"19 18 OFFCURVE",
"19 22 CURVE SMOOTH",
"19 53 OFFCURVE",
"23 85 OFFCURVE",
"18 115 CURVE SMOOTH",
"14 145 OFFCURVE",
"19 175 OFFCURVE",
"14 204 CURVE SMOOTH",
"6 247 OFFCURVE",
"12 290 OFFCURVE",
"10 333 CURVE SMOOTH",
"8 354 OFFCURVE",
"5 376 OFFCURVE",
"5 397 CURVE SMOOTH",
"6 430 OFFCURVE",
"8 462 OFFCURVE",
"10 495 CURVE SMOOTH",
"11 511 OFFCURVE",
"13 528 OFFCURVE",
"15 544 CURVE SMOOTH",
"18 568 OFFCURVE",
"21 593 OFFCURVE",
"24 617 CURVE SMOOTH",
"26 626 OFFCURVE",
"28 634 OFFCURVE",
"30 643 CURVE SMOOTH",
"30 644 OFFCURVE",
"30 646 OFFCURVE",
"31 646 CURVE SMOOTH",
"41 652 OFFCURVE",
"51 660 OFFCURVE",
"61 661 CURVE SMOOTH",
"72 662 OFFCURVE",
"83 655 OFFCURVE",
"87 642 CURVE SMOOTH",
"97 614 OFFCURVE",
"107 586 OFFCURVE",
"116 558 CURVE SMOOTH",
"122 541 OFFCURVE",
"126 524 OFFCURVE",
"131 507 CURVE SMOOTH",
"136 487 OFFCURVE",
"140 467 OFFCURVE",
"145 447 CURVE SMOOTH",
"150 428 OFFCURVE",
"155 409 OFFCURVE",
"160 390 CURVE SMOOTH",
"165 367 OFFCURVE",
"169 345 OFFCURVE",
"174 322 CURVE SMOOTH",
"178 308 OFFCURVE",
"182 294 OFFCURVE",
"186 280 CURVE",
"187 280 OFFCURVE",
"188 280 OFFCURVE",
"189 280 CURVE"
);
}
);
width = 300;
}
);
unicode = 006E;
},
{
glyphname = o;
lastChange = "2020-11-22 11:06:03 +0000";
layers = (
{
layerId = "686D85FA-502B-420B-8C81-C7709808E604";
paths = (
{
closed = 1;
nodes = (
"142 491 OFFCURVE",
"153 491 OFFCURVE",
"164 491 CURVE",
"165 487 OFFCURVE",
"166 484 OFFCURVE",
"167 481 CURVE",
"173 483 OFFCURVE",
"178 486 OFFCURVE",
"181 485 CURVE",
"200 474 OFFCURVE",
"216 459 OFFCURVE",
"227 440 CURVE",
"238 420 OFFCURVE",
"246 400 OFFCURVE",
"246 377 CURVE",
"246 370 OFFCURVE",
"251 370 OFFCURVE",
"256 370 CURVE",
"256 351 OFFCURVE",
"256 331 OFFCURVE",
"256 312 CURVE",
"253 309 OFFCURVE",
"248 308 OFFCURVE",
"247 304 CURVE",
"243 289 OFFCURVE",
"240 273 OFFCURVE",
"237 256 CURVE",
"233 232 OFFCURVE",
"222 210 OFFCURVE",
"210 189 CURVE",
"194 160 OFFCURVE",
"174 134 OFFCURVE",
"144 116 CURVE",
"105 93 OFFCURVE",
"63 100 OFFCURVE",
"35 129 CURVE",
"13 153 OFFCURVE",
"0 184 OFFCURVE",
"-1 218 CURVE",
"-1 242 OFFCURVE",
"-2 266 OFFCURVE",
"0 289 CURVE",
"1 308 OFFCURVE",
"4 329 OFFCURVE",
"11 346 CURVE",
"21 372 OFFCURVE",
"33 396 OFFCURVE",
"47 420 CURVE",
"63 447 OFFCURVE",
"85 469 OFFCURVE",
"114 482 CURVE",
"120 484 OFFCURVE",
"125 488 OFFCURVE",
"130 491 CURVE"
);
},
{
closed = 1;
nodes = (
"198 338 OFFCURVE",
"198 338 OFFCURVE",
"198 338 CURVE",
"198 350 OFFCURVE",
"199 363 OFFCURVE",
"198 374 CURVE SMOOTH",
"196 386 OFFCURVE",
"191 398 OFFCURVE",
"188 409 CURVE SMOOTH",
"180 435 OFFCURVE",
"151 446 OFFCURVE",
"128 433 CURVE SMOOTH",
"109 423 OFFCURVE",
"97 407 OFFCURVE",
"87 389 CURVE SMOOTH",
"78 375 OFFCURVE",
"71 360 OFFCURVE",
"64 345 CURVE SMOOTH",
"59 334 OFFCURVE",
"55 322 OFFCURVE",
"53 311 CURVE SMOOTH",
"50 289 OFFCURVE",
"49 267 OFFCURVE",
"48 245 CURVE SMOOTH",
"47 219 OFFCURVE",
"52 196 OFFCURVE",
"66 174 CURVE SMOOTH",
"80 152 OFFCURVE",
"91 145 OFFCURVE",
"112 158 CURVE SMOOTH",
"129 168 OFFCURVE",
"146 182 OFFCURVE",
"158 198 CURVE SMOOTH",
"170 215 OFFCURVE",
"175 237 OFFCURVE",
"184 256 CURVE SMOOTH",
"193 277 OFFCURVE",
"198 299 OFFCURVE",
"198 323 CURVE SMOOTH",
"198 328 OFFCURVE",
"198 333 OFFCURVE",
"198 338 CURVE"
);
}
);
width = 300;
}
);
unicode = 006F;
},
{
glyphname = p;
lastChange = "2020-11-22 11:06:08 +0000";
layers = (
{
layerId = "686D85FA-502B-420B-8C81-C7709808E604";
paths = (
{
closed = 1;
nodes = (
"220 440 OFFCURVE",
"217 438 OFFCURVE",
"217 431 CURVE",
"215 401 OFFCURVE",
"204 375 OFFCURVE",
"187 351 CURVE",
"177 337 OFFCURVE",
"168 322 OFFCURVE",
"156 310 CURVE",
"145 297 OFFCURVE",
"132 287 OFFCURVE",
"119 275 CURVE",
"116 272 OFFCURVE",
"112 269 OFFCURVE",
"112 266 CURVE",
"112 245 OFFCURVE",
"95 236 OFFCURVE",
"81 228 CURVE",
"71 222 OFFCURVE",
"60 219 OFFCURVE",
"46 213 CURVE",
"48 202 OFFCURVE",
"50 188 OFFCURVE",
"52 175 CURVE",
"53 171 OFFCURVE",
"53 168 OFFCURVE",
"53 164 CURVE",
"53 138 OFFCURVE",
"52 112 OFFCURVE",
"53 85 CURVE",
"54 60 OFFCURVE",
"53 34 OFFCURVE",
"58 10 CURVE",
"64 -13 OFFCURVE",
"59 -35 OFFCURVE",
"63 -57 CURVE",
"70 -100 OFFCURVE",
"67 -144 OFFCURVE",
"67 -188 CURVE",
"67 -200 OFFCURVE",
"61 -212 OFFCURVE",
"55 -223 CURVE",
"47 -238 OFFCURVE",
"31 -235 OFFCURVE",
"18 -233 CURVE",
"11 -231 OFFCURVE",
"4 -222 OFFCURVE",
"1 -215 CURVE",
"-8 -194 OFFCURVE",
"-9 -173 OFFCURVE",
"-1 -151 CURVE",
"2 -142 OFFCURVE",
"1 -132 OFFCURVE",
"4 -124 CURVE",
"13 -102 OFFCURVE",
"16 -80 OFFCURVE",
"14 -57 CURVE",
"12 -30 OFFCURVE",
"13 -3 OFFCURVE",
"8 23 CURVE",
"2 55 OFFCURVE",
"9 87 OFFCURVE",
"3 118 CURVE",
"-4 159 OFFCURVE",
"0 200 OFFCURVE",
"0 241 CURVE",
"-1 368 OFFCURVE",
"0 496 OFFCURVE",
"-1 623 CURVE",
"-2 662 OFFCURVE",
"-6 701 OFFCURVE",
"-8 739 CURVE",
"-8 745 OFFCURVE",
"-6 751 OFFCURVE",
"-4 758 CURVE",
"9 758 OFFCURVE",
"21 759 OFFCURVE",
"33 758 CURVE",
"42 758 OFFCURVE",
"48 747 OFFCURVE",
"48 732 CURVE",
"48 693 OFFCURVE",
"48 655 OFFCURVE",
"48 616 CURVE",
"48 609 OFFCURVE",
"48 602 OFFCURVE",
"48 593 CURVE",
"56 593 OFFCURVE",
"63 594 OFFCURVE",
"71 593 CURVE",
"93 592 OFFCURVE",
"114 587 OFFCURVE",
"134 578 CURVE",
"145 573 OFFCURVE",
"158 570 OFFCURVE",
"162 557 CURVE",
"184 553 OFFCURVE",
"191 534 OFFCURVE",
"201 518 CURVE",
"211 504 OFFCURVE",
"218 488 OFFCURVE",
"217 471 CURVE",
"217 463 OFFCURVE",
"220 460 OFFCURVE",
"227 459 CURVE",
"227 452 OFFCURVE",
"227 446 OFFCURVE",
"227 439 CURVE"
);
},
{
closed = 1;
nodes = (
"49 453 OFFCURVE",
"49 366 OFFCURVE",
"49 277 CURVE",
"66 292 OFFCURVE",
"83 303 OFFCURVE",
"96 317 CURVE SMOOTH",
"114 337 OFFCURVE",
"131 359 OFFCURVE",
"146 381 CURVE SMOOTH",
"156 396 OFFCURVE",
"164 414 OFFCURVE",
"168 432 CURVE SMOOTH",
"173 457 OFFCURVE",
"168 481 OFFCURVE",
"154 502 CURVE SMOOTH",
"142 521 OFFCURVE",
"124 534 OFFCURVE",
"104 539 CURVE SMOOTH",
"87 544 OFFCURVE",
"68 540 OFFCURVE",
"49 540 CURVE"
);
}
);
width = 300;
}
);
unicode = 0070;
},
{
glyphname = q;
lastChange = "2020-11-22 11:06:16 +0000";
layers = (
{
layerId = "686D85FA-502B-420B-8C81-C7709808E604";
paths = (
{
closed = 1;
nodes = (
"294 -78 OFFCURVE",
"291 -79 OFFCURVE",
"287 -81 CURVE",
"281 -83 OFFCURVE",
"274 -86 OFFCURVE",
"267 -87 CURVE",
"245 -88 OFFCURVE",
"241 -83 OFFCURVE",
"235 -63 CURVE",
"225 -33 OFFCURVE",
"213 -4 OFFCURVE",
"202 25 CURVE",
"194 49 OFFCURVE",
"185 73 OFFCURVE",
"176 97 CURVE",
"172 109 OFFCURVE",
"167 122 OFFCURVE",
"161 133 CURVE",
"159 138 OFFCURVE",
"155 142 OFFCURVE",
"148 137 CURVE",
"123 123 OFFCURVE",
"95 121 OFFCURVE",
"69 126 CURVE",
"39 132 OFFCURVE",
"16 152 OFFCURVE",
"2 182 CURVE",
"-5 197 OFFCURVE",
"-9 213 OFFCURVE",
"-7 231 CURVE",
"-7 240 OFFCURVE",
"-7 249 OFFCURVE",
"-7 259 CURVE",
"-8 280 OFFCURVE",
"-4 301 OFFCURVE",
"1 323 CURVE",
"10 354 OFFCURVE",
"22 383 OFFCURVE",
"36 411 CURVE",
"58 455 OFFCURVE",
"90 491 OFFCURVE",
"128 523 CURVE",
"146 538 OFFCURVE",
"167 545 OFFCURVE",
"191 541 CURVE",
"207 539 OFFCURVE",
"227 519 OFFCURVE",
"230 503 CURVE",
"231 493 OFFCURVE",
"233 483 OFFCURVE",
"235 473 CURVE",
"235 470 OFFCURVE",
"238 467 OFFCURVE",
"240 465 CURVE",
"262 446 OFFCURVE",
"277 423 OFFCURVE",
"283 394 CURVE",
"285 388 OFFCURVE",
"288 383 OFFCURVE",
"287 377 CURVE",
"287 368 OFFCURVE",
"290 362 OFFCURVE",
"298 358 CURVE",
"298 353 OFFCURVE",
"298 348 OFFCURVE",
"298 343 CURVE",
"295 339 OFFCURVE",
"290 335 OFFCURVE",
"289 330 CURVE",
"286 320 OFFCURVE",
"285 309 OFFCURVE",
"283 299 CURVE",
"279 276 OFFCURVE",
"266 256 OFFCURVE",
"256 236 CURVE",
"243 212 OFFCURVE",
"224 193 OFFCURVE",
"205 175 CURVE",
"203 173 OFFCURVE",
"201 169 OFFCURVE",
"201 167 CURVE",
"205 157 OFFCURVE",
"210 148 OFFCURVE",
"214 139 CURVE",
"219 126 OFFCURVE",
"225 113 OFFCURVE",
"230 100 CURVE",
"236 84 OFFCURVE",
"241 68 OFFCURVE",
"247 53 CURVE",
"252 37 OFFCURVE",
"257 22 OFFCURVE",
"264 7 CURVE",
"266 2 OFFCURVE",
"271 -2 OFFCURVE",
"275 -4 CURVE",
"278 -6 OFFCURVE",
"283 -5 OFFCURVE",
"288 -5 CURVE",
"288 -23 OFFCURVE",
"289 -41 OFFCURVE",
"288 -58 CURVE",
"287 -66 OFFCURVE",
"290 -70 OFFCURVE",
"298 -70 CURVE",
"298 -73 OFFCURVE",
"298 -75 OFFCURVE",
"298 -77 CURVE"
);
},
{
closed = 1;
nodes = (
"182 228 OFFCURVE",
"186 230 OFFCURVE",
"188 232 CURVE SMOOTH",
"201 241 OFFCURVE",
"206 255 OFFCURVE",
"215 267 CURVE SMOOTH",
"229 286 OFFCURVE",
"235 309 OFFCURVE",
"239 333 CURVE SMOOTH",
"242 357 OFFCURVE",
"238 382 OFFCURVE",
"225 405 CURVE SMOOTH",
"221 412 OFFCURVE",
"217 417 OFFCURVE",
"208 416 CURVE SMOOTH",
"197 414 OFFCURVE",
"194 421 OFFCURVE",
"192 429 CURVE SMOOTH",
"189 438 OFFCURVE",
"173 447 OFFCURVE",
"165 444 CURVE SMOOTH",
"160 443 OFFCURVE",
"154 442 OFFCURVE",
"149 440 CURVE SMOOTH",
"140 436 OFFCURVE",
"131 432 OFFCURVE",
"123 426 CURVE SMOOTH",
"120 424 OFFCURVE",
"120 416 OFFCURVE",
"118 410 CURVE SMOOTH",
"118 409 OFFCURVE",
"118 406 OFFCURVE",
"117 405 CURVE SMOOTH",
"105 398 OFFCURVE",
"99 381 OFFCURVE",
"81 384 CURVE SMOOTH",
"80 384 OFFCURVE",
"76 382 OFFCURVE",
"76 380 CURVE SMOOTH",
"70 366 OFFCURVE",
"65 353 OFFCURVE",
"61 339 CURVE SMOOTH",
"57 327 OFFCURVE",
"53 314 OFFCURVE",
"50 302 CURVE SMOOTH",
"47 287 OFFCURVE",
"42 272 OFFCURVE",
"42 258 CURVE SMOOTH",
"41 242 OFFCURVE",
"41 227 OFFCURVE",
"45 211 CURVE SMOOTH",
"52 186 OFFCURVE",
"78 171 OFFCURVE",
"99 174 CURVE SMOOTH",
"110 176 OFFCURVE",
"121 180 OFFCURVE",
"131 185 CURVE SMOOTH",
"134 186 OFFCURVE",
"137 193 OFFCURVE",
"136 196 CURVE SMOOTH",
"123 231 OFFCURVE",
"108 266 OFFCURVE",
"96 302 CURVE SMOOTH",
"92 313 OFFCURVE",
"86 329 OFFCURVE",
"100 339 CURVE SMOOTH",
"106 344 OFFCURVE",
"115 347 OFFCURVE",
"123 352 CURVE",
"137 346 OFFCURVE",
"144 333 OFFCURVE",
"148 318 CURVE SMOOTH",
"150 309 OFFCURVE",
"150 300 OFFCURVE",
"153 293 CURVE SMOOTH",
"161 270 OFFCURVE",
"170 249 OFFCURVE",
"179 225 CURVE"
);
}
);
width = 350;
}
);
unicode = 0071;
},
{
glyphname = r;
lastChange = "2020-11-22 11:06:22 +0000";
layers = (
{
layerId = "686D85FA-502B-420B-8C81-C7709808E604";
paths = (
{
closed = 1;
nodes = (
"54 247 OFFCURVE",
"57 238 OFFCURVE",
"57 228 CURVE",
"58 203 OFFCURVE",
"57 178 OFFCURVE",
"58 153 CURVE",
"59 132 OFFCURVE",
"61 111 OFFCURVE",
"63 89 CURVE",
"63 89 OFFCURVE",
"62 87 OFFCURVE",
"63 87 CURVE",
"76 74 OFFCURVE",
"79 57 OFFCURVE",
"84 40 CURVE",
"85 37 OFFCURVE",
"86 34 OFFCURVE",
"87 31 CURVE",
"88 10 OFFCURVE",
"91 -10 OFFCURVE",
"90 -31 CURVE",
"90 -36 OFFCURVE",
"81 -42 OFFCURVE",
"75 -46 CURVE",
"73 -48 OFFCURVE",
"68 -48 OFFCURVE",
"64 -49 CURVE",
"48 -56 OFFCURVE",
"43 -53 OFFCURVE",
"38 -36 CURVE",
"34 -21 OFFCURVE",
"29 -6 OFFCURVE",
"25 9 CURVE",
"22 17 OFFCURVE",
"20 26 OFFCURVE",
"19 34 CURVE",
"17 52 OFFCURVE",
"16 70 OFFCURVE",
"14 88 CURVE",
"12 112 OFFCURVE",
"10 136 OFFCURVE",
"9 161 CURVE",
"7 201 OFFCURVE",
"6 242 OFFCURVE",
"4 282 CURVE",
"4 293 OFFCURVE",
"6 304 OFFCURVE",
"-9 310 CURVE",
"-23 315 OFFCURVE",
"-28 330 OFFCURVE",
"-33 343 CURVE",
"-34 345 OFFCURVE",
"-32 349 OFFCURVE",
"-30 350 CURVE",
"-24 357 OFFCURVE",
"-17 365 OFFCURVE",
"-9 371 CURVE",
"-2 375 OFFCURVE",
"0 380 OFFCURVE",
"0 388 CURVE",
"-2 417 OFFCURVE",
"-3 446 OFFCURVE",
"-6 475 CURVE",
"-6 489 OFFCURVE",
"-9 501 OFFCURVE",
"-10 515 CURVE",
"-10 523 OFFCURVE",
"-13 526 OFFCURVE",
"-21 525 CURVE",
"-38 524 OFFCURVE",
"-45 529 OFFCURVE",
"-48 546 CURVE",
"-49 550 OFFCURVE",
"-46 557 OFFCURVE",
"-43 561 CURVE",
"-37 569 OFFCURVE",
"-30 575 OFFCURVE",
"-23 583 CURVE",
"-21 585 OFFCURVE",
"-20 588 OFFCURVE",
"-20 591 CURVE",
"-22 603 OFFCURVE",
"-25 616 OFFCURVE",
"-27 629 CURVE",
"-27 630 OFFCURVE",
"-28 631 OFFCURVE",
"-28 632 CURVE",
"-36 657 OFFCURVE",
"-29 665 OFFCURVE",
"-4 665 CURVE",
"1 665 OFFCURVE",
"6 666 OFFCURVE",
"11 665 CURVE",
"15 664 OFFCURVE",
"21 661 OFFCURVE",
"23 658 CURVE",
"26 649 OFFCURVE",
"27 640 OFFCURVE",
"29 630 CURVE",
"31 613 OFFCURVE",
"32 596 OFFCURVE",
"33 578 CURVE",
"43 578 OFFCURVE",
"51 578 OFFCURVE",
"59 578 CURVE",
"77 579 OFFCURVE",
"95 574 OFFCURVE",
"113 569 CURVE",
"136 562 OFFCURVE",
"159 554 OFFCURVE",
"175 534 CURVE",
"197 508 OFFCURVE",
"200 489 OFFCURVE",
"181 462 CURVE",
"171 448 OFFCURVE",
"160 435 OFFCURVE",
"147 423 CURVE",
"132 411 OFFCURVE",
"115 400 OFFCURVE",
"99 389 CURVE",
"90 382 OFFCURVE",
"81 375 OFFCURVE",
"73 368 CURVE",
"69 365 OFFCURVE",
"65 362 OFFCURVE",
"61 360 CURVE",
"52 356 OFFCURVE",
"49 343 OFFCURVE",
"56 335 CURVE",
"61 330 OFFCURVE",
"67 326 OFFCURVE",
"71 320 CURVE",
"88 298 OFFCURVE",
"105 276 OFFCURVE",
"122 254 CURVE",
"137 235 OFFCURVE",
"152 216 OFFCURVE",
"166 196 CURVE",
"179 177 OFFCURVE",
"191 158 OFFCURVE",
"203 140 CURVE",
"208 132 OFFCURVE",
"214 125 OFFCURVE",
"220 118 CURVE",
"229 107 OFFCURVE",
"238 96 OFFCURVE",
"248 85 CURVE",
"263 68 OFFCURVE",
"278 50 OFFCURVE",
"295 34 CURVE",
"306 24 OFFCURVE",
"318 14 OFFCURVE",
"332 7 CURVE",
"350 -2 OFFCURVE",
"359 -35 OFFCURVE",
"347 -51 CURVE",
"336 -65 OFFCURVE",
"320 -71 OFFCURVE",
"303 -66 CURVE",
"290 -62 OFFCURVE",
"280 -47 OFFCURVE",
"280 -31 CURVE",
"280 -24 OFFCURVE",
"278 -20 OFFCURVE",
"272 -15 CURVE",
"251 5 OFFCURVE",
"231 26 OFFCURVE",
"212 48 CURVE",
"204 56 OFFCURVE",
"196 66 OFFCURVE",
"189 75 CURVE",
"169 103 OFFCURVE",
"149 132 OFFCURVE",
"128 160 CURVE",
"114 180 OFFCURVE",
"99 200 OFFCURVE",
"85 220 CURVE",
"75 233 OFFCURVE",
"66 246 OFFCURVE",
"56 259 CURVE",
"55 258 OFFCURVE",
"54 257 OFFCURVE",
"53 257 CURVE"
);
},
{
closed = 1;
nodes = (
"68 428 OFFCURVE",
"86 441 OFFCURVE",
"103 456 CURVE SMOOTH",
"115 465 OFFCURVE",
"126 475 OFFCURVE",
"137 486 CURVE SMOOTH",
"139 489 OFFCURVE",
"140 496 OFFCURVE",
"138 500 CURVE SMOOTH",
"135 504 OFFCURVE",
"130 508 OFFCURVE",
"125 510 CURVE SMOOTH",
"107 518 OFFCURVE",
"88 526 OFFCURVE",
"67 525 CURVE SMOOTH",
"58 525 OFFCURVE",
"49 529 OFFCURVE",
"37 531 CURVE",
"40 519 OFFCURVE",
"42 511 OFFCURVE",
"43 502 CURVE SMOOTH",
"45 474 OFFCURVE",
"47 444 OFFCURVE",
"49 415 CURVE SMOOTH",
"49 415 OFFCURVE",
"49 415 OFFCURVE",
"50 414 CURVE"
);
}
);
width = 300;
}
);
unicode = 0072;
},
{
glyphname = s;
lastChange = "2020-11-22 11:06:30 +0000";
layers = (
{
layerId = "686D85FA-502B-420B-8C81-C7709808E604";
paths = (
{
closed = 1;
nodes = (
"32 418 OFFCURVE",
"37 409 OFFCURVE",
"45 402 CURVE SMOOTH",
"63 384 OFFCURVE",
"83 368 OFFCURVE",
"105 356 CURVE SMOOTH",
"114 351 OFFCURVE",
"121 343 OFFCURVE",
"129 337 CURVE SMOOTH",
"148 324 OFFCURVE",
"167 311 OFFCURVE",
"186 298 CURVE SMOOTH",
"189 296 OFFCURVE",
"192 294 OFFCURVE",
"195 291 CURVE SMOOTH",
"201 283 OFFCURVE",
"206 274 OFFCURVE",
"217 273 CURVE SMOOTH",
"219 273 OFFCURVE",
"221 270 OFFCURVE",
"222 268 CURVE SMOOTH",
"229 255 OFFCURVE",
"237 243 OFFCURVE",
"242 229 CURVE SMOOTH",
"244 223 OFFCURVE",
"240 215 OFFCURVE",
"237 209 CURVE SMOOTH",
"226 186 OFFCURVE",
"208 169 OFFCURVE",
"187 154 CURVE SMOOTH",
"179 149 OFFCURVE",
"173 142 OFFCURVE",
"165 136 CURVE SMOOTH",
"142 120 OFFCURVE",
"119 104 OFFCURVE",
"92 94 CURVE SMOOTH",
"79 89 OFFCURVE",
"67 79 OFFCURVE",
"51 81 CURVE SMOOTH",
"47 81 OFFCURVE",
"42 84 OFFCURVE",
"40 88 CURVE SMOOTH",
"35 93 OFFCURVE",
"30 100 OFFCURVE",
"28 106 CURVE SMOOTH",
"26 110 OFFCURVE",
"26 117 OFFCURVE",
"28 120 CURVE SMOOTH",
"33 127 OFFCURVE",
"40 133 OFFCURVE",
"47 139 CURVE SMOOTH",
"48 140 OFFCURVE",
"52 140 OFFCURVE",
"53 139 CURVE SMOOTH",
"64 129 OFFCURVE",
"73 138 OFFCURVE",
"83 143 CURVE SMOOTH",
"120 163 OFFCURVE",
"154 186 OFFCURVE",
"184 217 CURVE SMOOTH",
"191 224 OFFCURVE",
"191 229 OFFCURVE",
"183 235 CURVE SMOOTH",
"166 248 OFFCURVE",
"148 262 OFFCURVE",
"131 274 CURVE SMOOTH",
"112 288 OFFCURVE",
"94 300 OFFCURVE",
"75 313 CURVE SMOOTH",
"61 323 OFFCURVE",
"47 331 OFFCURVE",
"34 342 CURVE SMOOTH",
"17 358 OFFCURVE",
"2 375 OFFCURVE",
"-13 392 CURVE SMOOTH",
"-15 395 OFFCURVE",
"-14 401 OFFCURVE",
"-14 405 CURVE SMOOTH",
"-12 428 OFFCURVE",
"-13 451 OFFCURVE",
"-8 473 CURVE SMOOTH",
"-5 488 OFFCURVE",
"4 502 OFFCURVE",
"12 515 CURVE SMOOTH",
"25 533 OFFCURVE",
"39 550 OFFCURVE",
"54 566 CURVE SMOOTH",
"69 582 OFFCURVE",
"89 594 OFFCURVE",
"109 603 CURVE SMOOTH",
"131 613 OFFCURVE",
"171 601 OFFCURVE",
"185 580 CURVE SMOOTH",
"193 570 OFFCURVE",
"201 560 OFFCURVE",
"208 549 CURVE SMOOTH",
"213 541 OFFCURVE",
"217 533 OFFCURVE",
"208 525 CURVE SMOOTH",
"202 520 OFFCURVE",
"196 510 OFFCURVE",
"189 510 CURVE SMOOTH",
"182 509 OFFCURVE",
"173 516 OFFCURVE",
"167 521 CURVE SMOOTH",
"160 528 OFFCURVE",
"155 537 OFFCURVE",
"149 545 CURVE SMOOTH",
"140 557 OFFCURVE",
"126 559 OFFCURVE",
"113 549 CURVE SMOOTH",
"101 540 OFFCURVE",
"89 532 OFFCURVE",
"80 521 CURVE SMOOTH",
"65 499 OFFCURVE",
"45 480 OFFCURVE",
"39 453 CURVE SMOOTH",
"38 445 OFFCURVE",
"35 437 OFFCURVE",
"33 429 CURVE"
);
}
);
width = 280;
}
);
unicode = 0073;
},
{
glyphname = t;
lastChange = "2020-11-22 11:06:35 +0000";
layers = (
{
layerId = "686D85FA-502B-420B-8C81-C7709808E604";
paths = (
{
closed = 1;
nodes = (
"308 615 OFFCURVE",
"304 615 OFFCURVE",
"302 614 CURVE",
"283 592 OFFCURVE",
"254 587 OFFCURVE",
"231 572 CURVE",
"224 568 OFFCURVE",
"213 569 OFFCURVE",
"209 581 CURVE",
"208 584 OFFCURVE",
"205 587 OFFCURVE",
"203 589 CURVE",
"174 583 OFFCURVE",
"146 577 OFFCURVE",
"115 570 CURVE",
"118 550 OFFCURVE",
"120 530 OFFCURVE",
"122 509 CURVE",
"122 507 OFFCURVE",
"122 504 OFFCURVE",
"122 501 CURVE",
"124 468 OFFCURVE",
"125 435 OFFCURVE",
"128 402 CURVE",
"130 371 OFFCURVE",
"134 340 OFFCURVE",
"137 308 CURVE",
"138 291 OFFCURVE",
"140 275 OFFCURVE",
"141 258 CURVE",
"143 243 OFFCURVE",
"144 229 OFFCURVE",
"146 215 CURVE",
"149 200 OFFCURVE",
"153 186 OFFCURVE",
"156 171 CURVE",
"158 158 OFFCURVE",
"159 145 OFFCURVE",
"161 132 CURVE",
"163 120 OFFCURVE",
"167 108 OFFCURVE",
"170 96 CURVE",
"172 85 OFFCURVE",
"173 75 OFFCURVE",
"175 65 CURVE",
"180 46 OFFCURVE",
"185 27 OFFCURVE",
"189 8 CURVE",
"191 0 OFFCURVE",
"193 -9 OFFCURVE",
"194 -17 CURVE",
"196 -35 OFFCURVE",
"199 -53 OFFCURVE",
"200 -71 CURVE",
"200 -74 OFFCURVE",
"196 -80 OFFCURVE",
"193 -81 CURVE",
"184 -84 OFFCURVE",
"175 -85 OFFCURVE",
"166 -86 CURVE",
"155 -88 OFFCURVE",
"148 -81 OFFCURVE",
"146 -69 CURVE",
"146 -67 OFFCURVE",
"146 -64 OFFCURVE",
"145 -62 CURVE",
"134 -46 OFFCURVE",
"135 -27 OFFCURVE",
"132 -8 CURVE",
"131 -2 OFFCURVE",
"128 4 OFFCURVE",
"127 11 CURVE",
"124 23 OFFCURVE",
"121 35 OFFCURVE",
"126 49 CURVE",
"128 54 OFFCURVE",
"124 62 OFFCURVE",
"122 68 CURVE",
"118 89 OFFCURVE",
"112 110 OFFCURVE",
"108 131 CURVE",
"105 145 OFFCURVE",
"105 160 OFFCURVE",
"103 175 CURVE",
"100 196 OFFCURVE",
"96 218 OFFCURVE",
"94 239 CURVE",
"91 265 OFFCURVE",
"91 290 OFFCURVE",
"88 316 CURVE",
"86 338 OFFCURVE",
"81 360 OFFCURVE",
"79 383 CURVE",
"78 401 OFFCURVE",
"79 420 OFFCURVE",
"78 438 CURVE",
"77 457 OFFCURVE",
"72 477 OFFCURVE",
"75 495 CURVE",
"78 517 OFFCURVE",
"68 537 OFFCURVE",
"70 560 CURVE",
"52 556 OFFCURVE",
"36 552 OFFCURVE",
"20 548 CURVE",
"5 544 OFFCURVE",
"-10 542 OFFCURVE",
"-25 537 CURVE",
"-29 536 OFFCURVE",
"-33 530 OFFCURVE",
"-37 526 CURVE",
"-40 523 OFFCURVE",
"-43 519 OFFCURVE",
"-46 518 CURVE",
"-63 513 OFFCURVE",
"-76 523 OFFCURVE",
"-89 531 CURVE",
"-90 532 OFFCURVE",
"-92 535 OFFCURVE",
"-91 537 CURVE",
"-89 547 OFFCURVE",
"-88 557 OFFCURVE",
"-83 566 CURVE",
"-78 577 OFFCURVE",
"-66 578 OFFCURVE",
"-56 581 CURVE",
"-37 586 OFFCURVE",
"-18 591 OFFCURVE",
"1 596 CURVE",
"21 601 OFFCURVE",
"41 605 OFFCURVE",
"60 611 CURVE",
"63 612 OFFCURVE",
"65 620 OFFCURVE",
"66 624 CURVE",
"67 630 OFFCURVE",
"66 635 OFFCURVE",
"66 640 CURVE",
"65 645 OFFCURVE",
"65 650 OFFCURVE",
"64 655 CURVE",
"62 666 OFFCURVE",
"61 676 OFFCURVE",
"60 687 CURVE",
"59 690 OFFCURVE",
"85 709 OFFCURVE",
"88 707 CURVE",
"94 703 OFFCURVE",
"101 698 OFFCURVE",
"106 693 CURVE",
"107 692 OFFCURVE",
"105 687 OFFCURVE",
"103 685 CURVE",
"100 681 OFFCURVE",
"101 675 OFFCURVE",
"102 671 CURVE",
"105 665 OFFCURVE",
"106 658 OFFCURVE",
"108 651 CURVE",
"103 650 OFFCURVE",
"99 649 OFFCURVE",
"92 648 CURVE",
"98 639 OFFCURVE",
"104 631 OFFCURVE",
"111 622 CURVE",
"111 622 OFFCURVE",
"114 624 OFFCURVE",
"116 624 CURVE",
"129 626 OFFCURVE",
"141 627 OFFCURVE",
"154 630 CURVE",
"163 632 OFFCURVE",
"172 636 OFFCURVE",
"181 638 CURVE",
"191 640 OFFCURVE",
"200 642 OFFCURVE",
"210 644 CURVE",
"232 649 OFFCURVE",
"254 654 OFFCURVE",
"276 658 CURVE",
"282 659 OFFCURVE",
"290 662 OFFCURVE",
"293 651 CURVE",
"295 643 OFFCURVE",
"298 636 OFFCURVE",
"301 629 CURVE",
"303 626 OFFCURVE",
"308 623 OFFCURVE",
"311 620 CURVE",
"311 619 OFFCURVE",
"311 617 OFFCURVE",
"311 615 CURVE"
);
},
{
closed = 1;
nodes = (
"68 802 OFFCURVE",
"60 800 OFFCURVE",
"55 797 CURVE SMOOTH",
"48 792 OFFCURVE",
"46 796 OFFCURVE",
"45 802 CURVE SMOOTH",
"43 816 OFFCURVE",
"42 831 OFFCURVE",
"40 845 CURVE SMOOTH",
"37 862 OFFCURVE",
"34 878 OFFCURVE",
"31 895 CURVE SMOOTH",
"29 909 OFFCURVE",
"28 923 OFFCURVE",
"25 936 CURVE SMOOTH",
"23 955 OFFCURVE",
"20 973 OFFCURVE",
"16 991 CURVE SMOOTH",
"13 1006 OFFCURVE",
"19 1014 OFFCURVE",
"39 1016 CURVE SMOOTH",
"59 1019 OFFCURVE",
"67 1010 OFFCURVE",
"69 989 CURVE SMOOTH",
"72 967 OFFCURVE",
"78 946 OFFCURVE",
"82 924 CURVE SMOOTH",
"84 915 OFFCURVE",
"83 905 OFFCURVE",
"84 896 CURVE SMOOTH",
"85 889 OFFCURVE",
"86 882 OFFCURVE",
"87 874 CURVE SMOOTH",
"87 873 OFFCURVE",
"88 872 OFFCURVE",
"88 871 CURVE SMOOTH",
"90 854 OFFCURVE",
"91 836 OFFCURVE",
"93 819 CURVE SMOOTH",
"93 814 OFFCURVE",
"95 808 OFFCURVE",
"87 808 CURVE SMOOTH",
"85 808 OFFCURVE",
"84 804 OFFCURVE",
"84 803 CURVE SMOOTH",
"84 802 OFFCURVE",
"87 800 OFFCURVE",
"88 799 CURVE SMOOTH",
"91 798 OFFCURVE",
"94 798 OFFCURVE",
"98 798 CURVE",
"98 779 OFFCURVE",
"98 760 OFFCURVE",
"98 737 CURVE",
"91 742 OFFCURVE",
"88 745 OFFCURVE",
"83 747 CURVE SMOOTH",
"80 749 OFFCURVE",
"76 750 OFFCURVE",
"73 750 CURVE SMOOTH",
"71 750 OFFCURVE",
"69 745 OFFCURVE",
"69 745 CURVE SMOOTH",
"72 742 OFFCURVE",
"75 740 OFFCURVE",
"79 737 CURVE",
"79 716 OFFCURVE",
"77 715 OFFCURVE",
"55 718 CURVE",
"55 720 OFFCURVE",
"55 722 OFFCURVE",
"55 724 CURVE SMOOTH",
"53 737 OFFCURVE",
"52 751 OFFCURVE",
"50 765 CURVE SMOOTH",
"47 783 OFFCURVE",
"49 787 OFFCURVE",
"69 790 CURVE"
);
}
);
width = 300;
}
);
unicode = 0074;
},
{
glyphname = u;
lastChange = "2020-11-22 11:06:41 +0000";
layers = (
{
layerId = "686D85FA-502B-420B-8C81-C7709808E604";
paths = (
{
closed = 1;
nodes = (
"90 207 OFFCURVE",
"94 213 OFFCURVE",
"97 220 CURVE SMOOTH",
"103 234 OFFCURVE",
"108 248 OFFCURVE",
"113 263 CURVE SMOOTH",
"117 275 OFFCURVE",
"122 287 OFFCURVE",
"126 299 CURVE SMOOTH",
"132 317 OFFCURVE",
"139 334 OFFCURVE",
"144 352 CURVE SMOOTH",
"149 366 OFFCURVE",
"151 381 OFFCURVE",
"155 395 CURVE SMOOTH",
"158 405 OFFCURVE",
"161 415 OFFCURVE",
"164 425 CURVE SMOOTH",
"166 432 OFFCURVE",
"168 440 OFFCURVE",
"169 447 CURVE SMOOTH",
"173 463 OFFCURVE",
"176 480 OFFCURVE",
"179 496 CURVE SMOOTH",
"184 513 OFFCURVE",
"191 530 OFFCURVE",
"193 548 CURVE SMOOTH",
"195 563 OFFCURVE",
"201 575 OFFCURVE",
"208 588 CURVE SMOOTH",
"213 597 OFFCURVE",
"221 605 OFFCURVE",
"233 602 CURVE SMOOTH",
"256 597 OFFCURVE",
"264 588 OFFCURVE",
"267 573 CURVE SMOOTH",
"274 541 OFFCURVE",
"267 509 OFFCURVE",
"272 478 CURVE SMOOTH",
"277 451 OFFCURVE",
"271 424 OFFCURVE",
"277 398 CURVE SMOOTH",
"282 374 OFFCURVE",
"276 350 OFFCURVE",
"282 328 CURVE SMOOTH",
"287 308 OFFCURVE",
"284 288 OFFCURVE",
"286 268 CURVE SMOOTH",
"287 250 OFFCURVE",
"286 232 OFFCURVE",
"291 215 CURVE SMOOTH",
"298 195 OFFCURVE",
"293 173 OFFCURVE",
"304 153 CURVE SMOOTH",
"309 143 OFFCURVE",
"305 127 OFFCURVE",
"305 115 CURVE SMOOTH",
"305 109 OFFCURVE",
"305 104 OFFCURVE",
"305 99 CURVE SMOOTH",
"306 86 OFFCURVE",
"301 80 OFFCURVE",
"288 80 CURVE SMOOTH",
"285 80 OFFCURVE",
"281 80 OFFCURVE",
"278 80 CURVE SMOOTH",
"260 80 OFFCURVE",
"253 86 OFFCURVE",
"252 105 CURVE SMOOTH",
"250 127 OFFCURVE",
"250 149 OFFCURVE",
"247 170 CURVE SMOOTH",
"241 206 OFFCURVE",
"238 241 OFFCURVE",
"237 277 CURVE SMOOTH",
"237 297 OFFCURVE",
"234 317 OFFCURVE",
"232 337 CURVE SMOOTH",
"231 361 OFFCURVE",
"230 385 OFFCURVE",
"227 408 CURVE SMOOTH",
"226 420 OFFCURVE",
"223 431 OFFCURVE",
"221 444 CURVE",
"218 434 OFFCURVE",
"215 426 OFFCURVE",
"213 418 CURVE SMOOTH",
"207 396 OFFCURVE",
"201 373 OFFCURVE",
"194 350 CURVE SMOOTH",
"189 331 OFFCURVE",
"185 312 OFFCURVE",
"179 294 CURVE SMOOTH",
"174 279 OFFCURVE",
"169 264 OFFCURVE",
"163 250 CURVE SMOOTH",
"153 225 OFFCURVE",
"142 201 OFFCURVE",
"131 176 CURVE SMOOTH",
"123 160 OFFCURVE",
"113 144 OFFCURVE",
"93 137 CURVE SMOOTH",
"81 133 OFFCURVE",
"60 138 OFFCURVE",
"55 149 CURVE SMOOTH",
"45 168 OFFCURVE",
"37 188 OFFCURVE",
"29 208 CURVE SMOOTH",
"24 222 OFFCURVE",
"20 238 OFFCURVE",
"16 253 CURVE SMOOTH",
"14 259 OFFCURVE",
"10 266 OFFCURVE",
"11 273 CURVE SMOOTH",
"12 286 OFFCURVE",
"4 293 OFFCURVE",
"-3 302 CURVE SMOOTH",
"-7 307 OFFCURVE",
"-9 314 OFFCURVE",
"-9 320 CURVE SMOOTH",
"-10 336 OFFCURVE",
"-10 353 OFFCURVE",
"-9 370 CURVE SMOOTH",
"-9 382 OFFCURVE",
"-5 385 OFFCURVE",
"6 381 CURVE SMOOTH",
"10 380 OFFCURVE",
"14 380 OFFCURVE",
"18 382 CURVE SMOOTH",
"28 386 OFFCURVE",
"38 384 OFFCURVE",
"42 374 CURVE SMOOTH",
"46 367 OFFCURVE",
"47 359 OFFCURVE",
"49 351 CURVE SMOOTH",
"52 337 OFFCURVE",
"55 324 OFFCURVE",
"58 310 CURVE SMOOTH",
"60 300 OFFCURVE",
"61 290 OFFCURVE",
"63 281 CURVE SMOOTH",
"68 263 OFFCURVE",
"72 245 OFFCURVE",
"77 228 CURVE SMOOTH",
"79 219 OFFCURVE",
"81 210 OFFCURVE",
"85 198 CURVE"
);
}
);
width = 350;
}
);
unicode = 0075;
},
